<svg width="90" height="47" xmlns="http://www.w3.org/2000/svg"><path d="M67.4 40.3c1-2.3 3.8-4.9 8.4-8 4.4-3 7.6-5.4 9.4-7.3 2.9-3.2 4.4-6.8 4.4-10.7 0-4-1.4-7.3-4.2-9.8C82.6 2 79 .7 74.6.7c-4.9 0-8.8 1.6-11.8 4.9-2.9 3.1-4.4 7.1-4.4 12.2h7.4c.1-3.5.9-6.3 2.3-8C69.5 7.9 71.6 7 74.4 7c2.6 0 4.5.6 5.9 1.8 1.3 1.2 2 3 2 5.5s-1 4.9-3 7.1c-1.3 1.3-3.3 3-6.2 5.1-5.2 3.6-8.7 6.4-10.4 8.3-3 3.4-4.5 7.4-4.5 12h31.5v-6.5H67.4zM23.2.8C10.5.8.2 11.1.2 23.8s10.3 23 23 23 23-10.3 23-23-10.3-23-23-23zm0 38c-8.3 0-15-6.7-15-15s6.7-15 15-15 15 6.7 15 15-6.7 15-15 15z" fill="#DADBDB"/></svg>