<svg width="91" height="47" viewBox="0 0 91 47" xmlns="http://www.w3.org/2000/svg"><path d="M23.2.8c-12.7 0-23 10.3-23 23s10.3 23 23 23 23-10.3 23-23-10.3-23-23-23zm0 38c-8.3 0-15-6.7-15-15s6.7-15 15-15 15 6.7 15 15-6.7 15-15 15zm64.7-12.6c-1.4-1.6-3.4-2.8-6-3.6 4.9-1.6 7.4-4.8 7.4-9.7 0-3.8-1.4-6.8-4-9-2.7-2.2-6.4-3.2-10.8-3.2-4.3 0-7.9 1.2-10.7 3.7-3 2.5-4.6 6-5 10.4h7.1c.2-2.7 1.1-4.6 2.6-6 1.4-1.3 3.4-1.9 6-1.9 2.5 0 4.5.6 5.8 1.7 1.2 1.1 1.8 2.7 1.8 4.9s-.7 3.8-2 5c-1.4 1.1-3.3 1.7-6 1.7h-3.1v5.5h3.1c2.9 0 5 .6 6.5 1.8 1.5 1.2 2.3 3 2.3 5.6 0 2.1-.7 3.8-2.2 5.3-1.6 1.5-3.8 2.4-6.6 2.4-2.5 0-4.6-.7-6.1-2.2-1.7-1.6-2.6-3.8-2.7-6.6h-7.4c.4 5 2.1 8.8 5.2 11.4 2.8 2.4 6.5 3.5 11.1 3.5 4.8 0 8.7-1.4 11.7-4 2.9-2.6 4.3-6 4.3-10-.1-2.8-.8-5-2.3-6.7z" fill-rule="nonzero" fill="#DADBDB"/></svg>