<svg width="26" height="30" xmlns="http://www.w3.org/2000/svg"><defs><path id="a" d="M0 20.031V9.396h3.546v10.635H0z"/></defs><g fill="#A4CA39"><path d="M9.305 4.223c.442 0 .8.355.8.797a.8.8 0 1 1-1.601 0c0-.442.359-.797.801-.797m6.9 0a.798.798 0 1 1 0 1.597.8.8 0 0 1-.8-.8c0-.442.358-.797.8-.797M7.892.126l1.522 2.21a8.611 8.611 0 0 1 3.27-.638 8.65 8.65 0 0 1 3.427.703L17.705.09a.213.213 0 0 1 .293-.054l.04.029a.21.21 0 0 1 .051.293l-1.547 2.246c2.235 1.123 3.832 3.195 4.162 5.629H4.661c.337-2.489 2.003-4.6 4.318-5.705L7.505.394a.213.213 0 0 1 .054-.293l.04-.029a.213.213 0 0 1 .293.054M23.526 9.436h.355c.877 0 1.597.92 1.597 2.043v6.549c0 1.122-.72 2.043-1.597 2.043h-.355c-.876 0-1.594-.921-1.594-2.043v-6.549c0-1.123.718-2.043 1.594-2.043M11.308 23.852v3.691c0 1.123-.717 2.043-1.594 2.043h-.355c-.876 0-1.593-.92-1.593-2.043v-3.691H6.299a1.638 1.638 0 0 1-1.634-1.63V9.298h16.162v12.924c0 .895-.735 1.63-1.63 1.63H17.85v3.734c0 1.123-.718 2.043-1.594 2.043h-.355c-.877 0-1.594-.92-1.594-2.043v-3.734h-2.999zM1.594 9.396h.355c.88 0 1.597.92 1.597 2.043v6.549c0 1.123-.717 2.043-1.597 2.043h-.355c-.877 0-1.594-.92-1.594-2.043v-6.549c0-1.123.717-2.043 1.594-2.043"/></g></svg>