<svg xmlns="http://www.w3.org/2000/svg" width="756px" height="523px" viewBox="0 0 756 523"><g fill="none" fill-rule="evenodd"><g stroke="#FF9015" stroke-width=".5"><path stroke-dasharray="3" d="M48.212 285.759h79.648c7.909 0 11.214-3.305 11.214-7.344v-8.771"/><path stroke-linecap="round" stroke-linejoin="round" d="M41.116 281.42c0 8.078-6.656 14.626-14.866 14.626s-14.866-6.548-14.866-14.626c0-8.076 6.656-14.624 14.866-14.624s14.866 6.548 14.866 14.624z"/><path stroke-linecap="round" stroke-linejoin="round" d="M19.354 279.728c0-3.923 3.262-7.103 7.287-7.103s7.287 3.18 7.287 7.103c0 3.922-3.262 7.102-7.288 7.102-4.025 0-7.287-3.18-7.287-7.102h.001z"/><path stroke-linecap="round" stroke-linejoin="round" d="M23.8 279.728c0-1.529 1.272-2.769 2.84-2.769 1.569 0 2.84 1.24 2.84 2.77 0 1.527-1.271 2.767-2.84 2.767-1.568 0-2.84-1.24-2.84-2.768zm7.63 7.838c1.378 1.343.739 2.764-1.21 2.764l-7.214-.002c-1.95 0-2.587-1.42-1.21-2.764l9.634.002z"/><path stroke-dasharray="3" d="M51.212 428.83h26.11c4.039 0 5.213-5.538 5.213-9.577V329.6c-.49-7.117 3.305-7.343 3.474-7.343h145.088c7.909 0 11.214-3.305 11.214-7.344v-30.038"/><path stroke-linecap="round" stroke-linejoin="round" d="M40.901 427.33c0 8.078-6.56 14.626-14.65 14.626-8.093 0-14.652-6.548-14.652-14.625s6.56-14.625 14.651-14.625c8.091 0 14.651 6.548 14.651 14.625v-.001z"/><path stroke-linecap="round" stroke-linejoin="round" d="M22.494 420.393c1.026-.437 6.457-.437 8.29 0 1.04.184 1.673 1.141 1.913 2.376.536 1.284.593 8.52 0 10.298-.403 1.223-.987 2.066-1.912 2.377-1.058.565-7.092.452-8.291 0-.928-.057-1.625-1.254-1.913-2.377-.652-1.722-.308-9.353 0-10.298.18-1.175 1.22-2.333 1.913-2.376z"/><path stroke-linecap="round" stroke-linejoin="round" d="M26.64 428.311c1.331 0 2.411 1.062 2.411 2.372 0 1.311-1.08 2.373-2.412 2.373-1.333 0-2.412-1.062-2.412-2.373 0-1.31 1.08-2.372 2.412-2.372h.001z"/><g stroke-linecap="round" stroke-linejoin="round"><path d="M257.025 481.75c0 8.077-6.656 14.626-14.867 14.626-8.21 0-14.865-6.55-14.865-14.625 0-8.076 6.656-14.625 14.865-14.625 8.21 0 14.867 6.549 14.867 14.625v-.001z"/><path d="M257.025 481.75c0 8.077-6.656 14.626-14.867 14.626-8.21 0-14.865-6.55-14.865-14.625 0-8.076 6.656-14.625 14.865-14.625 8.21 0 14.867 6.549 14.867 14.625v-.001z"/><path d="M251.098 490.892h-17.86v-9.866c0-.986.477-2.95 1.72-4.308 1.003-1.094 2.502-1.63 3.546-1.904 1.061-.278 2.446-.37 3.207-.408.998-.045 3.274.215 3.274.215 2.081.385 3.193.867 4.184 1.81 1.28 1.22 1.93 3.167 1.93 4.097v10.364h-.001z"/><path d="M236.064 488.13c0 .397-.327.72-.731.72a.727.727 0 0 1-.732-.72c0-.398.328-.721.732-.721.404 0 .731.323.731.72v.001zm2.188 0a.697.697 0 0 1-.703.69.697.697 0 0 1-.704-.69c0-.382.314-.692.704-.692.388 0 .703.31.703.692zm2.217 0a.696.696 0 0 1-.703.69.697.697 0 0 1-.703-.69c0-.382.315-.692.703-.692.389 0 .703.31.703.692zm2.217 0a.697.697 0 0 1-.704.69.697.697 0 0 1-.703-.69c0-.382.315-.692.703-.692.389 0 .704.31.704.692zm2.216 0a.697.697 0 0 1-.704.69.697.697 0 0 1-.703-.69c0-.382.315-.692.703-.692.39 0 .704.31.704.692zm2.217 0a.697.697 0 0 1-.703.69.698.698 0 0 1-.704-.69c0-.382.316-.692.704-.692.388 0 .703.31.703.692zm1.69 2.762h2.178v-3.642h-2.178v3.642zm2.289-10.639v-7.858 7.858z"/></g><path stroke-dasharray="3" d="M97.493 480.382h19c4.04 0 5.213-5.538 5.213-9.577v-37.398c0-4.04 3.305-7.343 7.344-7.343h92.42c4.038 0 7.342-3.304 7.342-7.343v-58.064"/><path stroke-linecap="round" stroke-linejoin="round" d="M93.6 481.75c0 8.078-6.655 14.626-14.865 14.626s-14.866-6.548-14.866-14.625 6.656-14.625 14.866-14.625S93.6 473.674 93.6 481.75z"/><path stroke-linecap="round" stroke-linejoin="round" d="M86.841 485.33c0 2.448-2.017 4.432-4.505 4.432h-6.683c-2.488 0-4.505-1.984-4.505-4.432v-6.574c0-2.45 2.017-4.433 4.505-4.433h6.683c2.488 0 4.505 1.984 4.505 4.433v6.574zm-4.572-6.508v4.021-4.021zm-6.548.001v4.02-4.02z"/><path stroke-linecap="round" stroke-linejoin="round" d="M78.272 485.387v-.705c0-.393.323-.711.723-.711.399 0 .723.318.723.71v.706m-1.446 0h1.446"/><path stroke-dasharray="3" d="M306.868 480.387h-8.65c-4.04 0-7.345-3.304-7.345-7.344v-40.34c0-4.037 3.305-7.341 7.344-7.341h78.277c4.04 0 7.344-3.305 7.344-7.344v-68.23"/><path stroke-linecap="round" stroke-linejoin="round" d="M332.71 489.749a.36.36 0 0 1-.364.358h-16.949a.36.36 0 0 1-.364-.358v-16.7c0-.197.163-.358.364-.358h16.949c.201 0 .364.16.364.359v16.699z"/><path stroke-linecap="round" stroke-linejoin="round" d="M326.792 483.892a.362.362 0 0 1-.364.358h-5.1a.362.362 0 0 1-.364-.358v-5.017a.36.36 0 0 1 .364-.357h5.1a.36.36 0 0 1 .364.357v5.017z"/><path stroke-linecap="round" stroke-linejoin="round" d="M338.739 481.75c0 8.078-6.656 14.626-14.868 14.626-8.21 0-14.867-6.548-14.867-14.626 0-8.076 6.657-14.624 14.867-14.624 8.212 0 14.868 6.548 14.868 14.624z"/><path stroke-linecap="round" stroke-linejoin="round" d="M332.71 489.749a.36.36 0 0 1-.364.358h-16.949a.36.36 0 0 1-.364-.358v-16.7c0-.197.163-.358.364-.358h16.949c.201 0 .364.16.364.359v16.699z"/><path stroke-linecap="round" stroke-linejoin="round" d="M326.792 483.892a.362.362 0 0 1-.364.358h-5.1a.362.362 0 0 1-.364-.358v-5.017a.36.36 0 0 1 .364-.357h5.1a.36.36 0 0 1 .364.357v5.017z"/><path stroke-linecap="round" stroke-linejoin="round" d="M338.739 481.75c0 8.078-6.656 14.626-14.868 14.626-8.21 0-14.867-6.548-14.867-14.626 0-8.076 6.657-14.624 14.867-14.624 8.212 0 14.868 6.548 14.868 14.624z"/><g><path stroke-dasharray="3" d="M467.878 480.387H448.13c-4.038 0-7.342-3.304-7.342-7.344v-40.564c0-4.04-3.305-7.344-7.344-7.344h-28.323c-4.039 0-7.344-3.305-7.344-7.344v-68.003"/><path stroke-linecap="round" stroke-linejoin="round" d="M496.134 490.1a.36.36 0 0 1-.364.358h-16.948a.36.36 0 0 1-.364-.358v-16.699c0-.197.163-.359.364-.359h16.948c.2 0 .364.162.364.36V490.1z"/><path stroke-linecap="round" stroke-linejoin="round" d="M493.259 480.195a.276.276 0 0 1-.28.274h-3.903a.276.276 0 0 1-.278-.274v-3.84c0-.15.125-.274.278-.274h3.904c.154 0 .279.123.279.274v3.84zm0 6.92a.276.276 0 0 1-.28.274h-3.903a.276.276 0 0 1-.278-.274v-3.84c0-.15.125-.274.278-.274h3.904c.154 0 .279.123.279.274v3.84zm-7.466-6.92a.276.276 0 0 1-.279.274h-3.904a.277.277 0 0 1-.279-.274v-3.84c0-.15.126-.274.28-.274h3.904c.154 0 .279.123.279.274v3.84h-.001zm0 6.92a.276.276 0 0 1-.279.274h-3.904a.277.277 0 0 1-.279-.274v-3.84c0-.15.126-.274.28-.274h3.904c.154 0 .279.123.279.274v3.84h-.001z"/><path stroke-linecap="round" stroke-linejoin="round" d="M502.162 481.75c0 8.078-6.656 14.626-14.866 14.626s-14.866-6.548-14.866-14.626c0-8.076 6.656-14.624 14.866-14.624s14.866 6.548 14.866 14.624z"/><path stroke-linecap="round" stroke-linejoin="round" d="M496.134 490.1a.36.36 0 0 1-.364.358h-16.948a.36.36 0 0 1-.364-.358v-16.699c0-.197.163-.359.364-.359h16.948c.2 0 .364.162.364.36V490.1z"/><path stroke-linecap="round" stroke-linejoin="round" d="M493.259 480.195a.276.276 0 0 1-.28.274h-3.903a.276.276 0 0 1-.278-.274v-3.84c0-.15.125-.274.278-.274h3.904c.154 0 .279.123.279.274v3.84zm0 6.92a.276.276 0 0 1-.28.274h-3.903a.276.276 0 0 1-.278-.274v-3.84c0-.15.125-.274.278-.274h3.904c.154 0 .279.123.279.274v3.84zm-7.466-6.92a.276.276 0 0 1-.279.274h-3.904a.277.277 0 0 1-.279-.274v-3.84c0-.15.126-.274.28-.274h3.904c.154 0 .279.123.279.274v3.84h-.001zm0 6.92a.276.276 0 0 1-.279.274h-3.904a.277.277 0 0 1-.279-.274v-3.84c0-.15.126-.274.28-.274h3.904c.154 0 .279.123.279.274v3.84h-.001z"/></g><g><path stroke-dasharray="3" d="M178.212 480.387h29.767c4.039 0 5.213-5.538 5.213-9.576v-25.39c0-4.038 3.305-7.343 7.344-7.343h23.903c4.039 0 7.344-3.303 7.344-7.342v-70.83"/><path stroke-linecap="round" stroke-linejoin="round" d="M175.313 481.75c0 8.078-6.655 14.626-14.866 14.626-8.21 0-14.865-6.548-14.865-14.625s6.655-14.625 14.865-14.625 14.866 6.548 14.866 14.625v-.001z"/><path stroke-linecap="round" stroke-linejoin="round" d="M158.61 486.953a.404.404 0 0 1-.394-.301l-1.707-6.549-.026-.062-.054-.129a4.477 4.477 0 0 1-.298-1.608c0-2.506 2.073-4.544 4.62-4.544 2.546 0 4.618 2.038 4.618 4.544 0 .604-.123 1.199-.367 1.765l-1.776 6.587a.406.406 0 0 1-.393.297h-4.223zm-2.106-6.85h8.493-8.493zm2.53 8.287h3.433-3.433zm.559 1.558h2.314-2.314z"/></g><g><path stroke-dasharray="3" d="M387.378 480.387h-14.434c-4.039 0-7.343-3.304-7.343-7.344v-33.085c0-4.04 3.304-7.342 7.343-7.342h1.434c14.62 0 16.174-.268 16.174-7.344v-75.484"/><path stroke-linecap="round" stroke-linejoin="round" d="M414.421 490.1a.36.36 0 0 1-.364.358H397.11a.36.36 0 0 1-.364-.358v-16.699c0-.197.163-.359.364-.359h16.948c.201 0 .364.162.364.36V490.1h-.001z"/><path stroke-linecap="round" stroke-linejoin="round" d="M407.734 487.115a.276.276 0 0 1-.278.274h-3.904a.275.275 0 0 1-.278-.274v-3.84c0-.15.124-.274.278-.274h3.904c.153 0 .278.123.278.274v3.84z"/><path stroke-linecap="round" stroke-linejoin="round" d="M420.45 481.75c0 8.078-6.656 14.626-14.867 14.626-8.21 0-14.865-6.548-14.865-14.626 0-8.076 6.655-14.624 14.865-14.624 8.211 0 14.866 6.548 14.866 14.624h.001z"/><path stroke-linecap="round" stroke-linejoin="round" d="M414.421 490.1a.36.36 0 0 1-.364.358H397.11a.36.36 0 0 1-.364-.358v-16.699c0-.197.163-.359.364-.359h16.948c.201 0 .364.162.364.36V490.1h-.001z"/><path stroke-linecap="round" stroke-linejoin="round" d="M407.734 487.115a.276.276 0 0 1-.278.274h-3.904a.275.275 0 0 1-.278-.274v-3.84c0-.15.124-.274.278-.274h3.904c.153 0 .278.123.278.274v3.84z"/><path stroke-linecap="round" stroke-linejoin="round" d="M420.45 481.75c0 8.078-6.656 14.626-14.867 14.626-8.21 0-14.865-6.548-14.865-14.626 0-8.076 6.655-14.624 14.865-14.624 8.211 0 14.866 6.548 14.866 14.624h.001z"/><path stroke-linecap="round" stroke-linejoin="round" d="M407.734 480.195a.276.276 0 0 1-.278.274h-3.904a.275.275 0 0 1-.278-.274v-3.84c0-.15.124-.274.278-.274h3.904c.153 0 .278.123.278.274v3.84z"/></g></g><path fill="#B3B3B3" fill-rule="nonzero" d="M594.975 130.875h-32.847a.643.643 0 0 1 0-1.286h32.847a.644.644 0 0 1 0 1.286m0 2.198h-32.847a.643.643 0 0 1 0-1.286h32.847a.643.643 0 0 1 0 1.286m0 2.197h-32.847a.643.643 0 0 1 0-1.286h32.847a.643.643 0 0 1 0 1.286m-32.151-10.958a.65.65 0 1 1-.001 0m2.105 0a.65.65 0 1 1 .002 1.3.65.65 0 0 1-.002-1.3m30.905-1.914H561.27c-.98 0-1.775.795-1.775 1.775v10.832c0 .98.796 1.774 1.775 1.774h34.563c.98 0 1.774-.795 1.774-1.774v-10.832c0-.98-.794-1.775-1.774-1.775"/><path fill="#B3B3B3" d="M592.042 219.686c-1.418-.805-3.997-2.545-5.544-2.947-1.548-.4-3.997-.669-7.946-.669-3.948 0-6.4.268-7.947.67-1.545.401-4.125 2.141-5.543 2.946-1.418.803 2.063 1.74 2.836 2.543.774.804 2.065 1.474 3.74 1.474h13.827c1.676 0 2.967-.67 3.74-1.474.774-.804 4.256-1.74 2.837-2.543"/><path fill="#B3B3B3" fill-rule="nonzero" d="M595.78 194.283c0 .625-.509 1.133-1.133 1.133h-32.223a1.134 1.134 0 0 1-1.132-1.133V179.86c0-.625.508-1.133 1.132-1.133h32.223c.624 0 1.132.508 1.132 1.133v14.423h.001zm-1.133-16.84h-32.223a2.419 2.419 0 0 0-2.415 2.417v14.423a2.419 2.419 0 0 0 2.415 2.416h32.223a2.419 2.419 0 0 0 2.415-2.416V179.86a2.419 2.419 0 0 0-2.415-2.416v-.001z"/><path fill="#B3B3B3" fill-rule="nonzero" d="M561.831 184.001l5.941 10.897 2.274-1.239-5.941-10.898-2.274 1.24zm3.587 0l5.94 10.897 2.275-1.239-5.94-10.898-2.275 1.24zm3.589 0l5.94 10.897 2.275-1.239-5.941-10.898-2.274 1.24zm3.588 0l5.941 10.897 2.274-1.239-5.941-10.898-2.274 1.24zm8.584-.634l.012 11.352 2.892-.003-.01-11.353-2.894.004zm3.525-1.059l.013 12.411 2.891-.004-.01-12.41-2.894.003zm3.525-1.222l.014 13.631 2.892-.003-.013-13.631-2.893.003zm3.528 1.221l.012 12.411 2.893-.003-.012-12.411-2.893.003zm89.605 6.087a.73.73 0 1 1-1.46 0v-8.226a.731.731 0 0 1 1.46 0v8.226zm14.69-37.51H677.61v71.492h20.216v-69.718c0-.98-.795-1.774-1.775-1.774h.001zM672.89 180.17a.73.73 0 1 1 1.46 0v8.225a.73.73 0 1 1-1.46 0v-8.226.001zm-18.395-27.51v69.718h22.177v-71.494h-20.404c-.98 0-1.773.795-1.773 1.775v.001zm-147.469 64.544c0-.98-.794-1.773-1.774-1.773H492.09c-.98 0-1.773.794-1.773 1.773v4.733h16.71v-4.733h-.001zm2.136 7.266H488.18c0 3.791 2.808 6.347 6.15 10.25 1.632 1.905 1.666 4.38 1.666 4.38s-4.003 1.004-4.003 3.353h13.357c0-2.349-4.002-3.354-4.002-3.354s.033-2.474 1.665-4.38c3.341-3.902 6.15-6.458 6.15-10.249h-.001zm-1.881-2.064h-17.218c-.98 0-1.774.795-1.774 1.774h20.765c0-.98-.794-1.774-1.773-1.774zm17.243-27.143l-.493-3.393a.887.887 0 0 0-.887-.887h-1.251a.887.887 0 0 0-.887.887l-.492 3.393h1.813v-3.055a.192.192 0 0 1 .383 0v3.055h1.814zm21.775 0l-.493-3.393a.887.887 0 0 0-.887-.887h-1.251a.887.887 0 0 0-.887.887l-.492 3.393h1.814v-3.055a.191.191 0 0 1 .382 0v3.055h1.814z"/><path fill="#B3B3B3" fill-rule="nonzero" d="M546.57 195.561h-13.033v-7.887a2.33 2.33 0 0 1 2.266-2.326 2.33 2.33 0 0 1 2.267 2.326v2.786h1.877v-2.786a4.21 4.21 0 0 0-4.083-4.203h-.12a4.21 4.21 0 0 0-4.084 4.203v7.887h-11.24c-.979 0-1.774.794-1.774 1.774v2.072c0 .98.795 1.773 1.774 1.773h26.15c.98 0 1.774-.794 1.774-1.773v-2.072c0-.98-.795-1.774-1.774-1.774zm80.575-115.784l-.789-.017v2.882l.789-2.865zm-31.554-8.689l-.095-.004v.348l.095-.344z"/><path fill="#B3B3B3" fill-rule="nonzero" d="M719.877 242.164v.132h-11.312v-14.18h8.067l.13 1.287h9.217l.13 1.286h9.216l.13 1.287h9.217l.132 1.286h6.102v9.034h-24.532v-.132h-6.497zm-17.81.545h-6.813v-1.09h.798c.979 0 1.774-.794 1.774-1.773v-16.59h-43.331v16.59c0 .979.793 1.773 1.773 1.773h.354v1.09h-4.507v-17.023c0-.832-.675-1.505-1.507-1.505h-.352c-.833 0-1.507.673-1.507 1.505v3.389h-.777v-3.252c0-.832-.674-1.507-1.506-1.507h-80.752c-.831 0-1.506.675-1.506 1.507v3.252h-.647V211.33c0-.832-.674-1.507-1.506-1.507h-.354c-.832 0-1.507.675-1.507 1.507v31.379h-1.754v-66.252h1.163c.28 0 .507-.228.507-.51v-2.46h5.434a4.19 4.19 0 0 0 4.187-4.183v-3.04a1.525 1.525 0 0 0 1.063-1.452v-.36h1.878l-1.59-8.43h-4.581l-2.342 8.43h3.483v.36c0 .68.446 1.256 1.062 1.452v3.04a3.162 3.162 0 0 1-3.16 3.159h-5.434v-2.42a.508.508 0 0 0-.507-.507h-1.163v-48.802h75.444v1.5h1.025v-1.5h67.158v16.146h-2.604v59.188h2.604v46.641zm-39.153 0v-1.09h26.048v1.09h-26.048zm-99.353 0v-2.023h85.188v2.023H563.56h.001zm-10.42 0v-86.99h1.538v86.99H553.141zm-62.05-46.357l-.507-.045v-35.225h2.527c-.025 4.31.414 8.647.927 12.896.723 5.986 1.937 11.81 3.4 17.65.919 3.66 3.798 12.615-1.457 14.357-3.984 1.32-5.417-2.267-5.575-5.512h.178v-.676l.508-.046c1.14 0 1.278-.671 1.278-1.497v-.404c0-.826-.137-1.498-1.278-1.498h-.001zm61.026 46.357H538.43l-1.594-33.498c5.373-1.212 8.953-5.12 8.953-7.76h-24.59c0 2.64 3.582 6.548 8.955 7.76l-1.594 33.498h-41.823v-81.627h2.308v35.085l-1.42-.13v.896h-.887v2.239h.887v.893l1.42-.13v.538h.179c.107 2.843 1.067 6.51 4.172 6.892 2.188.268 4.433-.46 5.684-2.326 1.392-2.077 1.1-5.128.773-7.454-.49-3.457-1.451-6.808-2.287-10.19-.794-3.221-1.366-6.498-1.86-9.777-.815-5.407-1.484-11.008-1.424-16.536h.373v-1.69h-.34c.03-.795.084-1.587.15-2.376h.209s.39-6.138 3.852-6.372h4.21v-2.64s-2.672 0-4.252.193c-3.873.472-5.312 4.248-5.377 8.819h.184a52.21 52.21 0 0 0-.14 2.376h-2.567V139.76a3.103 3.103 0 0 1 3.1-3.1h2.926c1.444 0 2.65.998 2.993 2.337l-6.325 1.453-1.28 2.145 17.513-4.026-2.088-1.37-6.323 1.453c-.5-2.021-2.316-3.53-4.49-3.53h-2.926a4.644 4.644 0 0 0-4.64 4.638v19.632h-2.307v-30.075h65.205v26.403h.175v86.989zm-67.942-43.653h-1.677v-.001h-7.653v43.655H452.16v-43.654h-40.533v-45.081h.174V121.44h68.438v14.985h3.936v62.631zm-1.678 43.653v-40.882h1.678v40.882h-1.678zm-1.746 0v-40.882h.72v40.882h-.72zm-3.133 0v-40.882h2.108v40.882h-2.108zm-1.747 0v-40.882h.72v40.882h-.72zm-25.456 0v-40.883h.719v40.883h-.72.001zm-3.394 0v-40.883h2.369v40.883h-2.37.001zm-1.746 0v-40.883h.72v40.883h-.72zm-3.371 0v-40.883h2.346v40.883h-2.346zm-1.746 0v-40.883h.72v40.883h-.72zm-3.371 0v-40.883h2.346v40.883h-2.346zm-1.745 0v-40.883h.72v40.883h-.72zm-3.372 0v-40.883h2.347v40.883h-2.347zm-1.745 0v-40.883h.72v40.883h-.72zm-3.371 0v-40.883h2.345v40.883h-2.345zm-1.745 0v-40.883h.72v40.883h-.72zm-3.373 0v-40.883h2.347v40.883h-2.347zm-1.744 0v-40.883h.719v40.883h-.72.001zm-3.343 0v-40.883h2.318v40.883h-2.318zm-1.745 0v-40.883h.719v40.883h-.72.001zm-2.977 0v-40.883h1.952v40.883h-1.952zm75.11-121.975h46.246v1.5h1.025v-1.5h17.934v7.557h-65.205v-7.557zm0-1.026v-5.818h46.246v5.818h-46.246zm47.27 0v-5.818h17.935v5.818H534.007zm24.433 0v-5.818h9.195v5.818h-9.195zm10.22 0v-2.977h5.332v2.977H568.66zm0-4.001v-1.303h5.332v1.303H568.66zm6.357 4v-5.817h58.867v5.818h-58.867v-.001zM505.913 65.83l121.482 33.61H505.913V65.829v.001zm128.996 48.06h44.71l21.029 5.819h-65.74v-5.818l.001-.001zm74.467 24.786v1.7h-2.785v52.198h2.785v1.7h-8.118v-55.598h8.118zm17.082 104.646h25.474v-10.06h2.732v-14.234h-9.346v-1.286h-9.347v-1.285h-9.346v-1.287h-9.347v-1.286h-8.713v-17.815h2.606V136.88h-2.606v-9.851h18.54l26.556 7.347v-5.933l1.3.36v-10.495l.025.007.854-3.098-10.81-.222.704-2.56-12.048-.564.705-2.56-10.81-.222.705-2.561-12.05-.564.706-2.56-10.81-.222.705-2.56-12.05-.564.706-2.561-10.81-.221.705-2.561-11.312-.53v4.709l-1.283-.363v-6.965l-1.29-.027v6.627l-1.282-.363v-6.291l-1.29-.026v5.952l-1.283-.363v-5.616l-1.287-.026v5.278l-1.283-.363v-4.942l-1.29-.027v4.604l-1.282-.363v-6.88l-1.288-.06v6.575h-.001l-1.283-.363V88.62l-1.288-.061v5.967l-1.284-.363V88.5l-1.29-.06v5.359l-1.282-.364V88.38l-1.287-.06v4.75h-.001l-1.283-.362V88.26l-.33-.015-.103.376.433-1.573v-1.371l-1.288-.027v6.693h-.001l-1.283-.364v-6.356l-1.29-.026v6.018l-1.283-.364V85.57l-1.288-.026v5.343l-1.283-.363v-5.006l-1.287-.027v4.669l-1.283-.364v-4.332l-.15-.003.15-.537v-2.048l-1.29-.06v6.616l-1.283-.364v-6.312l-1.29-.061v6.008l-1.282-.363v-5.705l-1.288-.06v5.4l-1.283-.363v-5.097l-1.29-.06v4.792l-1.282-.363v-4.49l-1.205-.056-.084.305v3.876l-1.284-.363v-6.421l-1.29-.027v6.083l-1.282-.363v-5.746l-1.287-.027v5.408l-1.283-.362v-5.072l-1.288-.027v4.734l-1.284-.363v-4.397l-1.023-.021.705-2.56-.97-.046v6.659l-1.283-.363v-6.356l-1.29-.06v6.05l-1.282-.362v-5.75l-1.29-.06v5.445l-1.282-.363v-5.141l-1.288-.06v4.836l-1.284-.363v-4.533l-1.29-.061v4.229l-1.282-.363v-6.487l-1.288-.027v6.149l-1.283-.363v-5.812l-1.29-.026v5.473l-1.282-.363V73.74l-1.29-.026v4.798l-1.282-.363v-4.462l-1.288-.026v4.123l-1.283-.363v-6.397l-1.288-.061v6.094l-.001-.001-1.283-.363v-5.79l-1.29-.06v5.485l-1.283-.363v-5.182l-1.288-.06V75.6l-1.283-.364v-4.574l-1.29-.061v4.27l-1.282-.363v-3.967l-.383-.018.383-1.39v-1.176l-1.288-.027v6.213l-1.283-.363v-5.876l-1.29-.027v5.539l-1.282-.363v-5.202l-1.29-.027v4.863l-1.282-.363v-4.526l-1.29-.027v4.189l-1.282-.363v-3.852l-.201-.004.2-.73v-1.854l-11.544-.541-.07.249.775-2.81-10.81-.222.704-2.56-12.048-.563-.06.216.765-2.776-10.81-.223.704-2.56-12.05-.564.706-2.56-10.81-.223.705-2.56-12.048-.563.704-2.56-10.81-.223.705-2.56-12.05-.564.706-2.56-10.81-.223.705-2.561-12.05-.563.706-2.56-10.81-.222.705-2.56-12.05-.565.705-2.56-10.81-.223.706-2.56-12.05-.564-.006.025.712-2.585-3.59-.073v12.358l343.572 95.164v4.87l-343.571-95.06v1.064l95.822 26.512V99.44h-27.361v5.34h2.027v2.224H411.8v-2.223h2.026V99.44h-4.762v54.6h1.536v88.668h-1.536v10.67h317.393V243.32l.001.002zM569.411 30.945h99.565v6.248h1.283v-7.531H568.128v7.531h1.283v-6.248zm-.001 13.779v-6.247h99.566v.814a1.56 1.56 0 0 1 1.1 1.485h.183v-3.582H568.128v8.813h5.51v-1.283H569.41z"/><path fill="#B3B3B3" d="M573.638 67.746v3.852l1.283.363V40.776a.28.28 0 0 1 .28-.28h.73a.28.28 0 0 1 .278.28c0-.516.255-.971.642-1.256a1.546 1.546 0 0 0-.92-.307h-.73c-.862 0-1.563.7-1.563 1.563v26.97z"/><path fill="#B3B3B3" d="M577.772 40.496h.729a.28.28 0 0 1 .28.28c0-.517.256-.972.642-1.257a1.553 1.553 0 0 0-.922-.306h-.73c-.344 0-.661.116-.92.306-.387.285-.641.74-.641 1.256v31.55l1.283.363V40.775a.28.28 0 0 1 .279-.279"/><path fill="#B3B3B3" d="M580.345 40.496h.729a.28.28 0 0 1 .28.28c0-.517.254-.972.64-1.257a1.552 1.552 0 0 0-.92-.306h-.73a1.55 1.55 0 0 0-.92.306c-.387.285-.642.74-.642 1.256v32.278l1.284.363V40.775a.28.28 0 0 1 .279-.279"/><path fill="#B3B3B3" d="M582.916 40.496h.729a.28.28 0 0 1 .28.28c0-.517.254-.972.641-1.257a1.552 1.552 0 0 0-.921-.306h-.729a1.55 1.55 0 0 0-.921.306c-.388.285-.641.74-.641 1.256v33.006l1.283.363V40.775a.28.28 0 0 1 .279-.279"/><path fill="#B3B3B3" d="M585.487 40.496h.73a.28.28 0 0 1 .28.28c0-.517.254-.972.64-1.257a1.548 1.548 0 0 0-.92-.306h-.73a1.55 1.55 0 0 0-.92.306c-.389.285-.642.74-.642 1.256V74.51l1.283.363V40.775a.28.28 0 0 1 .28-.279"/><path fill="#B3B3B3" fill-rule="nonzero" d="M588.06 40.496h.729a.28.28 0 0 1 .28.28c0-.517.254-.972.64-1.257a1.552 1.552 0 0 0-.92-.306h-.73c-.345 0-.661.116-.921.306-.387.285-.64.74-.64 1.256v34.462l1.282.363V40.775a.28.28 0 0 1 .28-.279m4.864.277v36.283V40.774"/><path fill="#B3B3B3" d="M590.63 40.496h.73a.28.28 0 0 1 .28.277c.002-.515.256-.969.642-1.254a1.55 1.55 0 0 0-.921-.306h-.73a1.55 1.55 0 0 0-.921.306c-.388.285-.641.74-.641 1.256v35.189l1.283.364V40.775a.28.28 0 0 1 .279-.279"/><path fill="#B3B3B3" d="M592.924 40.773a.28.28 0 0 1 .279-.277h.73a.28.28 0 0 1 .28.28c0-.517.254-.972.642-1.257a1.558 1.558 0 0 0-.921-.307h-.731c-.345 0-.662.117-.921.307-.386.284-.64.738-.641 1.254v35.919l1.283.364V40.772v.001z"/><path fill="#B3B3B3" d="M595.496 71.084V40.775a.28.28 0 0 1 .279-.278h.73a.28.28 0 0 1 .279.278c0-.516.254-.97.642-1.256a1.555 1.555 0 0 0-.921-.307h-.73c-.345 0-.662.117-.921.307-.387.285-.641.74-.641 1.256V77.42l1.283.363v-6.7.001z"/><path fill="#B3B3B3" d="M598.347 40.496h.729a.28.28 0 0 1 .28.28c0-.517.254-.972.64-1.257a1.552 1.552 0 0 0-.92-.306h-.73a1.55 1.55 0 0 0-.92.306c-.388.285-.641.74-.641 1.256v37.373l1.283.364V40.775a.28.28 0 0 1 .279-.279"/><path fill="#B3B3B3" d="M600.919 40.496h.729a.28.28 0 0 1 .28.28c0-.517.254-.972.64-1.257a1.552 1.552 0 0 0-.92-.306h-.73c-.345 0-.662.116-.921.306-.388.285-.641.74-.641 1.256v38.101l1.283.364V40.776a.28.28 0 0 1 .28-.28"/><path fill="#B3B3B3" d="M603.49 40.496h.73a.28.28 0 0 1 .28.28c0-.517.253-.972.64-1.257a1.552 1.552 0 0 0-.92-.306h-.73a1.55 1.55 0 0 0-.92.306c-.389.285-.642.74-.642 1.256v38.829l1.283.364V40.775a.28.28 0 0 1 .28-.279"/><path fill="#B3B3B3" d="M606.062 40.496h.729a.28.28 0 0 1 .28.28c0-.517.255-.972.64-1.257a1.548 1.548 0 0 0-.92-.306h-.73a1.55 1.55 0 0 0-.92.306c-.388.285-.641.74-.641 1.256v39.557l1.282.363v-39.92a.28.28 0 0 1 .28-.279"/><path fill="#B3B3B3" d="M608.633 40.496h.73a.28.28 0 0 1 .28.28c0-.517.254-.972.64-1.257a1.552 1.552 0 0 0-.92-.306h-.73c-.346 0-.661.116-.921.306-.387.285-.641.74-.641 1.256V81.06l1.284.363V40.775c0-.154.125-.279.278-.279"/><path fill="#B3B3B3" d="M611.205 40.496h.73a.28.28 0 0 1 .28.28c0-.517.254-.972.641-1.257a1.552 1.552 0 0 0-.921-.306h-.73a1.55 1.55 0 0 0-.921.306c-.388.285-.641.74-.641 1.256v41.013l1.283.363V40.775a.28.28 0 0 1 .279-.279"/><path fill="#B3B3B3" d="M613.777 40.496h.73a.28.28 0 0 1 .28.28c0-.517.254-.97.64-1.256a1.544 1.544 0 0 0-.92-.307h-.73a1.55 1.55 0 0 0-.92.306c-.389.285-.642.74-.642 1.256v41.741l1.283.363V40.775a.28.28 0 0 1 .28-.279"/><path fill="#B3B3B3" d="M616.349 40.496h.729a.28.28 0 0 1 .28.28c0-.517.255-.972.64-1.257a1.548 1.548 0 0 0-.92-.306h-.73c-.345 0-.661.116-.92.307-.402.292-.64.758-.641 1.255v42.469l1.284.363V40.775c0-.154.125-.279.278-.279"/><path fill="#B3B3B3" d="M618.92 40.496h.729a.28.28 0 0 1 .28.28c0-.517.255-.972.642-1.257a1.553 1.553 0 0 0-.922-.306h-.73c-.345 0-.66.116-.92.306-.387.285-.641.74-.641 1.256v43.197l1.284.363v-43.56c0-.154.125-.279.278-.279"/><path fill="#B3B3B3" d="M621.492 40.496h.73a.28.28 0 0 1 .278.28c0-.517.255-.97.641-1.256a1.541 1.541 0 0 0-.92-.307h-.729a1.55 1.55 0 0 0-.92.306c-.389.285-.642.74-.642 1.256V84.7l1.283.363V40.775a.28.28 0 0 1 .28-.279"/><path fill="#B3B3B3" fill-rule="nonzero" d="M624.064 40.496h.73c.153 0 .277.124.278.277.001-.515.255-.969.641-1.254a1.547 1.547 0 0 0-.92-.306h-.729a1.55 1.55 0 0 0-.923.307c-.401.292-.64.759-.64 1.255v44.653l1.282.362V40.775a.28.28 0 0 1 .281-.279zm2.292 39.265V40.774v45.745-6.759.001z"/><path fill="#B3B3B3" d="M626.356 40.773a.279.279 0 0 1 .28-.277h.73a.28.28 0 0 1 .278.28c0-.517.254-.972.642-1.257a1.552 1.552 0 0 0-.92-.307h-.73c-.346 0-.663.117-.923.307-.386.284-.64.738-.64 1.254v45.383l1.282.364V40.775l.001-.002"/><path fill="#B3B3B3" d="M629.207 40.496h.73a.28.28 0 0 1 .28.28c0-.517.255-.972.641-1.257a1.552 1.552 0 0 0-.921-.306h-.73a1.55 1.55 0 0 0-.921.306c-.388.285-.641.74-.641 1.256v46.11l1.283.362V40.775a.28.28 0 0 1 .279-.279"/><path fill="#B3B3B3" d="M631.778 40.496h.73a.28.28 0 0 1 .28.28c0-.517.254-.972.641-1.257a1.55 1.55 0 0 0-.92-.306h-.73c-.347 0-.662.116-.92.306-.388.285-.643.74-.643 1.256v46.837l1.284.363v-47.2c0-.154.125-.279.278-.279"/><path fill="#B3B3B3" d="M634.35 40.496h.73a.28.28 0 0 1 .28.28c0-.517.254-.972.641-1.257a1.55 1.55 0 0 0-.92-.306h-.73a1.55 1.55 0 0 0-.922.306c-.387.285-.64.74-.64 1.256V88.34l1.282.364V40.775a.28.28 0 0 1 .28-.279"/><path fill="#B3B3B3" d="M636.923 40.496h.729a.28.28 0 0 1 .28.28c0-.517.255-.972.642-1.257a1.553 1.553 0 0 0-.922-.306h-.73a1.55 1.55 0 0 0-.92.306c-.388.285-.641.74-.641 1.256v48.293l1.283.363V40.775a.28.28 0 0 1 .279-.279"/><path fill="#B3B3B3" d="M639.495 40.496h.73a.28.28 0 0 1 .278.28c0-.517.254-.972.641-1.257a1.547 1.547 0 0 0-.92-.306h-.729a1.55 1.55 0 0 0-.92.306c-.389.285-.642.74-.642 1.256v49.021l1.283.363V40.775a.28.28 0 0 1 .28-.279"/><path fill="#B3B3B3" fill-rule="nonzero" d="M642.066 40.496h.73c.153 0 .277.124.278.277.001-.515.255-.969.641-1.254a1.547 1.547 0 0 0-.92-.306h-.729c-.346 0-.663.116-.922.306-.388.285-.64.74-.64 1.256v49.748l1.282.364V40.775a.28.28 0 0 1 .28-.279zm2.292.277v50.842-50.843.001zm2.573 0l-.001.002v51.568-51.571l.001.001z"/><path fill="#B3B3B3" fill-rule="nonzero" d="M644.358 40.773a.279.279 0 0 1 .28-.277h.73c.153 0 .277.124.278.277.001-.516.255-.97.642-1.254a1.552 1.552 0 0 0-.92-.307h-.73c-.346 0-.663.117-.923.307-.386.284-.64.738-.64 1.254v50.478l1.282.363V40.775l.001-.002zm5.145 0l-.001.002V93.07 40.773h.001z"/><path fill="#B3B3B3" d="M646.93 40.773a.279.279 0 0 1 .28-.277h.73c.154 0 .278.124.279.277 0-.516.255-.97.642-1.254a1.552 1.552 0 0 0-.92-.307h-.731c-.345 0-.662.117-.922.307-.386.284-.64.738-.641 1.254V91.98l1.283.364V40.773"/><path fill="#B3B3B3" d="M649.503 40.773c0-.153.125-.277.278-.277h.73a.28.28 0 0 1 .279.28c0-.517.254-.972.642-1.257a1.553 1.553 0 0 0-.921-.307h-.73c-.345 0-.662.117-.921.307-.386.284-.64.738-.641 1.254v51.935l1.283.364V40.772"/><path fill="#B3B3B3" d="M652.353 40.496h.73a.28.28 0 0 1 .28.28c0-.517.253-.972.64-1.257a1.55 1.55 0 0 0-.92-.306h-.73c-.346 0-.663.116-.922.306-.388.285-.64.74-.64 1.256v52.66l1.282.363V40.775a.28.28 0 0 1 .28-.279"/><path fill="#B3B3B3" fill-rule="nonzero" d="M654.925 40.496h.729a.28.28 0 0 1 .28.277c0-.515.255-.969.64-1.254a1.55 1.55 0 0 0-.92-.306h-.73a1.55 1.55 0 0 0-.92.306c-.388.285-.641.74-.641 1.256v53.388l1.283.363V40.775a.28.28 0 0 1 .279-.279zm2.293.277l-.001.002v54.48-54.483l.001.001z"/><path fill="#B3B3B3" d="M657.218 40.773a.279.279 0 0 1 .279-.277h.73a.28.28 0 0 1 .279.28c0-.517.255-.972.642-1.257a1.555 1.555 0 0 0-.921-.307h-.73c-.345 0-.662.117-.922.307a1.56 1.56 0 0 0-.641 1.254v54.118l1.283.363V40.773"/><path fill="#B3B3B3" d="M659.789 88.8V40.775a.28.28 0 0 1 .279-.279h.731a.28.28 0 0 1 .279.28c0-.517.255-.972.642-1.257a1.557 1.557 0 0 0-.921-.306h-.731c-.345 0-.662.116-.921.306a1.56 1.56 0 0 0-.641 1.256V95.62l1.283.362V88.8z"/><path fill="#B3B3B3" d="M662.64 40.496h.73a.28.28 0 0 1 .279.28c0-.517.255-.972.64-1.257a1.547 1.547 0 0 0-.92-.306h-.73c-.345 0-.66.116-.92.306a1.56 1.56 0 0 0-.641 1.256v55.572l1.284.363V40.775c0-.154.125-.279.278-.279"/><path fill="#B3B3B3" d="M665.21 40.496h.73a.28.28 0 0 1 .28.28c0-.517.256-.972.642-1.257a1.552 1.552 0 0 0-.921-.306h-.73a1.55 1.55 0 0 0-.921.306c-.387.285-.641.74-.641 1.256v56.3l1.283.363V40.775a.28.28 0 0 1 .279-.279"/><path fill="#B3B3B3" fill-rule="nonzero" d="M668.976 39.29a1.543 1.543 0 0 0-.462-.077h-.73a1.55 1.55 0 0 0-.921.307c-.388.285-.643.74-.643 1.256v57.026l1.283.364v-57.39a.28.28 0 0 1 .28-.28h.73a.28.28 0 0 1 .28.28V98.53l1.283.364v-58.12c0-.7-.466-1.286-1.1-1.484zM409.169 97.628h2.764V86.642h-2.868v11.98h.104v-.994zm-.104-12.23h2.868V40.002h-2.868v45.396zm250.724 3.954l.149-.544-.149-.008v.552z"/><path d="M409.064 154.041v88.667"/><path fill="#B3B3B3" fill-rule="nonzero" d="M601.478 194.272v-53.833h23.533v53.833h-23.533zm25.28 0v-53.833h23.534v53.833h-23.534zm-27.941 2.66h54.136v-59.154h-54.136v59.154zm-182.066-2.66v-53.833h28.202v53.833h-28.202zm29.948 0v-53.833H474.9v53.833h-28.201zm-32.608 2.66h63.47v-59.154h-63.47v59.154zm162.071-32.48l-3.289-8.43h-.56l2.978 8.43h.871zm-1.89 0l-2.341-8.43h-.466l2.214 8.43h.593zm-12 0h.869l2.976-8.43h-.556l-3.289 8.43z"/><g opacity=".5"><path stroke="#FF9015" stroke-width=".259" d="M601.186 125.052v.734m-.51 1.188l-.333-.542m1.776-.001l-.315.514"/><path fill="#FF9015" fill-rule="nonzero" d="M601.231 128.092a1.854 1.854 0 1 1 0-3.708 1.854 1.854 0 0 1 0 3.708zm-2.459-1.866v4.488h4.918v-4.488a2.459 2.459 0 0 0-4.917 0h-.001z"/><path stroke="#FF9015" stroke-width=".259" d="M603.364 130.278v5.803"/><path fill="#FF9015" fill-rule="nonzero" d="M603.609 136.065a.24.24 0 1 1-.479.002.24.24 0 0 1 .478-.002h.001zM473.42 239.705c0 .77-.625 1.392-1.393 1.392h-2.013a1.392 1.392 0 0 1-1.392-1.392v-2.013c0-.768.624-1.391 1.392-1.391h2.013c.769 0 1.393.623 1.393 1.39v2.014z"/><g fill="#FF9015"><path d="M714.638 129.013h1.1v-.947h-1.1z"/><path fill-rule="nonzero" d="M726.577 132.991h-10.819l-.529-4.508.004-.981H727.1l-.037 1.178-.486 4.311zm-12.295 6.993c0 .15-.096.27-.212.27-.117 0-.212-.12-.212-.27l-.208-11.424c0-.387.19-.7.42-.7.232 0 .42.313.42.7l-.208 11.424zm3.744-.152c.175-.301.22-.978.27-1.695.126-1.875.3-3.56 2.87-3.56 2.568 0 2.742 1.685 2.87 3.56.049.717.095 1.394.269 1.695.06.102.334.435 1.38.435l.002.012v-6.843h-9.044v6.83c1.05 0 1.323-.332 1.383-.434z"/><path d="M721.088 138.424c.924 0 1.672.76 1.672 1.697 0 .387-.129.743-.344 1.029 1.211-.088 2.27-.305 3.031-.602-.981 0-1.367-.298-1.496-.52-.643-1.11.386-4.823-2.785-4.823-3.173 0-2.142 3.714-2.786 4.823-.129.222-.515.52-1.499.52.721.288 1.723.492 2.868.586a1.694 1.694 0 0 1-.333-1.013c0-.936.748-1.697 1.672-1.697"/><path fill-rule="nonzero" d="M721.084 141.386a.867.867 0 0 1-.86-.875c0-.483.383-.875.86-.875.476 0 .861.392.861.875a.868.868 0 0 1-.86.875m0-2.628c-.814 0-1.475.67-1.475 1.496s.661 1.496 1.474 1.496c.814 0 1.474-.67 1.474-1.496s-.66-1.496-1.474-1.496"/></g><path fill="#FF9015" fill-rule="nonzero" d="M487.85 237.916c0-.273.222-.494.494-.494h.796c.272 0 .493.22.493.494v2.885c0 .272-.22.493-.493.494h-.796a.494.494 0 0 1-.493-.494v-2.885h-.001zm2.238 4.826h.601v-.454h-.601v.454z"/><path stroke="#FF9015" stroke-width=".259" d="M488.741 237.906v-.645a.824.824 0 0 1 1.646 0v5.075m-.157.304v.237m.305-.237v.237"/><path fill="#FF9015" fill-rule="nonzero" d="M416.07 123.047h11.987v-1.177H416.07v1.177zm-.436 2.536h13.172v-2.28h-13.172v2.28zm13.172.225c0 .753-2.95 1.365-6.586 1.365-3.638 0-6.586-.612-6.586-1.365h13.172z"/><path fill="#FF9015" d="M532.478 97.398a.36.36 0 0 1-.36.36h-7.868a.358.358 0 0 1-.357-.36v-7.867c0-.199.16-.36.357-.36h7.868a.36.36 0 0 1 .36.36v7.867z"/><path fill="#050000" d="M528.185 97.757v1.316"/><path stroke="#FF9015" stroke-linecap="round" stroke-linejoin="round" stroke-width=".392" d="M528.185 97.757v1.316"/><path fill="#050000" d="M523.893 99.074h8.585"/><path stroke="#FF9015" stroke-linecap="round" stroke-linejoin="round" stroke-width=".392" d="M523.893 99.074h8.585"/><path stroke="#FFF" stroke-linecap="round" stroke-linejoin="round" stroke-width=".392" d="M531.205 93.465a3.019 3.019 0 1 1-6.04-.003 3.02 3.02 0 0 1 6.04.002v.001z"/><path stroke="#FFF" stroke-linecap="round" stroke-linejoin="round" stroke-width=".392" d="M530.113 93.465a1.928 1.928 0 1 1-3.856.002 1.928 1.928 0 0 1 3.856-.002z"/><path fill="#FF9015" d="M695.016 148.703a.359.359 0 0 1-.36.359h-7.868a.358.358 0 0 1-.357-.36v-7.866c0-.2.16-.36.357-.36h7.868c.199 0 .36.16.36.36v7.867z"/><path fill="#050000" d="M690.723 149.062v1.316"/><path stroke="#FF9015" stroke-linecap="round" stroke-linejoin="round" stroke-width=".392" d="M690.723 149.062v1.316"/><path fill="#050000" d="M686.43 150.379h8.586"/><path stroke="#FF9015" stroke-linecap="round" stroke-linejoin="round" stroke-width=".392" d="M686.43 150.379h8.586"/><path stroke="#FFF" stroke-linecap="round" stroke-linejoin="round" stroke-width=".392" d="M693.742 144.77a3.02 3.02 0 1 1-6.04.001 3.02 3.02 0 0 1 6.04-.002v.001z"/><path stroke="#FFF" stroke-linecap="round" stroke-linejoin="round" stroke-width=".392" d="M692.652 144.77a1.93 1.93 0 1 1-3.859.003 1.93 1.93 0 0 1 3.859-.004v.001z"/><g><path fill="#FF9015" d="M632.734 141.381a.232.232 0 0 0-.165-.395h-5.088a.295.295 0 0 0-.296.293v5.045c0 .206.252.31.399.164l.009-.008 5.14-5.099h.001z"/><path fill="#FFF" fill-rule="nonzero" d="M627.185 145.647v.004c0 .18.22.27.349.143l.007-.006 4.493-4.456c.129-.127.037-.345-.145-.345"/></g><g><path fill="#FF9015" d="M452.634 141.381a.231.231 0 0 0-.165-.395h-5.088a.294.294 0 0 0-.295.293v5.045c0 .206.252.31.398.164l.01-.008 5.14-5.099z"/><path fill="#FFF" fill-rule="nonzero" d="M447.086 145.647v.004c0 .18.22.27.348.143l.008-.006 4.493-4.456a.202.202 0 0 0-.144-.345"/></g><g><path fill="#FF9015" d="M697.809 128.778a2.193 2.193 0 0 1-2.193 2.194h-3.745a2.194 2.194 0 0 1-2.195-2.194v-3.745c0-1.212.983-2.194 2.195-2.194h3.745c1.21 0 2.193.982 2.193 2.194v3.745z"/><path stroke="#FFF" stroke-width=".335" d="M696.863 126.906a3.12 3.12 0 1 1-6.24 0 3.12 3.12 0 0 1 6.24 0z"/></g><path stroke="#FF9015" stroke-linecap="round" stroke-linejoin="round" stroke-width=".259" d="M415.967 77.818v-.741m-.385 1.845l-.53-.523m1.24.523l.592-.457"/><path fill="#FF9015" fill-rule="nonzero" d="M415.967 79.856a1.868 1.868 0 0 1-1.88-1.856c0-1.025.842-1.856 1.88-1.856 1.039 0 1.88.83 1.88 1.856a1.868 1.868 0 0 1-1.88 1.856M418.279 75h-4.624a.728.728 0 0 0-.728.728v4.545c0 .4.326.727.728.727h4.624a.728.728 0 0 0 .728-.727v-4.545a.728.728 0 0 0-.728-.728"/></g><g fill="#B3B3B3"><path fill-rule="nonzero" d="M685.205 334.123c-.22.235-.365.536-.409.87h-1.684c.048-.39.289-.721.643-.87h1.45zm2.66 0v.87h-2.535a1.08 1.08 0 0 1 1.03-.87h1.505zm3.101.87h-2.553v-.87h1.912c.353.149.594.48.641.87zm2.2 0h-1.674a1.564 1.564 0 0 0-.349-.87h1.381c.353.149.595.48.642.87zm11.854-.87c-.224.24-.367.544-.41.87h-1.683c.048-.39.289-.721.642-.87h1.451zm2.66 0v.87h-2.535c.1-.485.51-.855 1.03-.87h1.505zm3.101.87h-2.554v-.87h1.913c.352.149.594.48.641.87zm2.199 0h-1.672a1.579 1.579 0 0 0-.349-.87h1.38c.352.149.595.48.641.87zm-74.599 46.542v-38.206h.625v-3.858h-4.172v-1.068h-22.942v1.068h-4.17v3.858h.624v38.206h-1.841l.506-.045-2.744-31.198h1.147c.283 0 .513-.23.513-.513a.509.509 0 0 0-.18-.382 1.405 1.405 0 0 0-1.349-1.022h-8.876c-.586 0-1.088.358-1.299.867-.763-.06-1.201-.467-1.372-1.336l-1.018-5.186a.513.513 0 0 0-1.006.197l1.019 5.187c.278 1.412 1.186 2.188 2.556 2.188h.291l-3.137 31.19.505.053h-55.018l-1.139-16.868.274.018a.887.887 0 1 0 .097-1.771l-.366-.025 3.195-18.738h-.413a.444.444 0 0 0-.356-.516l-.703-.105a.444.444 0 0 0-.517.356l-1.721 9.288a.443.443 0 0 0 .355.516l.705.105h.001l-2.083 8.989-1.479-.1V350.03h.889c.245 0 .443-.2.443-.444v-1.131a.444.444 0 0 0-.443-.443H522.68v-3.491a.886.886 0 0 0-.886-.886h-12.461a.887.887 0 0 0-.887.886v3.49h-10.295a.444.444 0 0 0-.445.444v1.13c0 .246.199.445.445.445h.887v12.597l-2.284.156-2.084-8.99h.003l.703-.104c.24-.045.4-.275.356-.516l-1.72-9.288a.445.445 0 0 0-.518-.356l-.703.105a.444.444 0 0 0-.356.516h-.413l3.195 18.738-.366.025a.887.887 0 0 0 .097 1.77l.275-.017-1.139 16.868-7.522.001V269.328h195.001l.566 9.453h37.748v56.212h-6.37a1.596 1.596 0 0 0-1.013-1.36v-.204h-9.081v.205c-.561.218-.963.74-1.012 1.359h-8.709a1.595 1.595 0 0 0-1.013-1.36v-.204H683.6v.204c-.57.222-.964.75-1.013 1.36h-34.668v-7.938a2.328 2.328 0 0 1 2.265-2.327 2.33 2.33 0 0 1 2.266 2.327v2.787h1.878v-2.787a4.209 4.209 0 0 0-4.084-4.203l-.12-.001a4.209 4.209 0 0 0-4.084 4.204v7.938h-35.492v2.838h109.329v43.704h-81.496zm-1.689 0h.663v-38.206h-.663v38.206zm-1.025 0H611.06v-38.206h.832v4.684h22.942v-4.684h.833v38.206zm-26.296 0h.664v-38.206h-.664v38.206zm-15.938-8.451l2.292-22.792h7.512l2.004 22.792h-11.808zm-.851 8.45l.747-7.425h12.003l.653 7.426h-13.403v-.001zm-59.689-4.971V364.46l1.454.099 1.283 12.003h-2.737v.001zm0 4.972v-3.946h2.846l.422 3.946h-3.268zm-1.025-18.922l-1.05-.071v-10.373h-8.138v-2.138h9.188v12.582zm0 13.95h-1.05v-12.244l1.05.073v12.171zm-1.05 4.459h1.05v-3.434h-1.05v3.434zm-1.026-18.55l-4.714-.322a.888.888 0 0 0-.097 1.772l.42.028-1.188 17.585h-2.083l-.765-16.808h1.163c.49 0 .888-.396.888-.886v-.804a.888.888 0 0 0-.888-.887h-1.195v-8.181h.461c.449 0 .805-.34.863-.775h7.135v9.278zm0 14.09h-4.166l1.337-12.505 2.829.193v12.313-.001zm0 4.973h-4.697l.422-3.946h4.275v3.946zm-18.404-19.384v-8.182h8.351v8.182h-8.351zm8.417 2.576l1.075 11.836h-10.634l1.076-11.836h8.483zm-10.011 16.808l.359-3.946h10.821l.358 3.946h-11.538zm-.797 0h-2.084l-1.187-17.585.42-.028a.888.888 0 0 0-.098-1.772l-3.908.267v-9.223h6.329a.878.878 0 0 0 .864.775h.461v8.18h-1.196a.888.888 0 0 0-.888.888v.804c0 .49.398.886.888.886h1.163l-.764 16.808zm-6.857 0v-3.946h3.47l.421 3.946h-3.891zm0-17.34l2.023-.138 1.337 12.506h-3.36v-12.368zm-1.025-1.71l-1.051.074V350.03h8.382v2.138h-7.331v10.317zm0 14.078h-1.051v-12.226l1.051-.072v12.298zm-1.051 4.459h1.051v-3.434h-1.051v3.434zm-1.026-4.46h-3.541l1.282-12.002 2.259-.154v12.157-.001zm0 4.973h-4.073l.422-3.946h3.651v3.946zm-17.005 0v-120.05h3.504v120.05h-3.504zm-1.026-67.505h-4.262v-1.388h2.9v-1.938h-2.9v-2.344h2.9v-1.936h-2.9v-2.344h2.9v-1.937h-2.9v-2.344h2.9v-1.937h-2.9v-2.343h2.9v-1.938h-2.9v-2.344h2.9V289.3h-2.9v-2.344h2.9v-1.938h-2.9v-2.342h2.9v-1.938h-2.9v-2.344h2.9v-1.937h-2.9v-2.344h2.9v-1.936h-2.9v-2.344h2.9v-1.938h-2.9v-2.343h2.9v-1.937h-2.9v-2.131h4.262v52.546zm0 67.505h-38.122v-3.48h4.91v-4.764h-4.91v-3.003h2.901v-1.937h-2.901v-2.343h2.901v-1.938h-2.901v-2.343h2.901v-1.937h-2.901v-2.344h2.901v-1.936h-2.901v-2.345h2.901v-1.938h-2.901v-2.343h2.901v-1.937h-2.901v-2.344h2.901v-1.936h-2.901v-2.344h2.901v-1.937h-2.901v-2.344h2.901v-1.938h-2.901v-2.342h2.901v-1.938h-2.901v-2.345h2.901v-1.935h-2.901v-2.345h2.901v-1.936h-2.901v-2.47h38.122v62.742zm-62.497-60.272v-2.47h21.604v2.47H418.51zm0 4.28V323.2h21.604v2.345H418.51v-.002zm0 4.28v-2.344h21.604v2.345H418.51v-.001zm0 4.28v-2.342h21.604v2.343H418.51v-.001zm0 4.283v-2.344h21.604v2.344H418.51zm0 4.28v-2.343h21.604v2.344H418.51v-.001zm0 4.28v-2.343h21.604v2.344H418.51v-.001zm0 4.28v-2.343h21.604v2.344H418.51v-.001zm0 4.284v-2.345h21.604v2.345H418.51zm0 4.28v-2.344h21.604v2.344H418.51zm0 4.28v-2.344h21.604v2.344H418.51zm0 4.28v-2.342h21.604v2.343H418.51v-.001zm0 4.94v-3.002h21.604v3.003H418.51v-.001zm0 8.245v-3.48h21.604v3.48H418.51zm-2.77-60.272h-2.901v1.936h2.901v2.345h-2.901v1.935h2.901v2.345h-2.901v1.938h2.901v2.342h-2.901v1.938h2.901v2.344h-2.901v1.937h2.901v2.344h-2.901v1.936h2.901v2.344h-2.901v1.937h2.901v2.343h-2.901v1.938h2.901v2.345h-2.901v1.936h2.901v2.344h-2.901v1.937h2.901v2.343h-2.901v1.938h2.901v2.343h-2.901v1.937h2.901v3.003h-4.114v-54.497h4.114v2.469zm-4.113 60.272h4.113v-3.48h-4.113v3.48zm-.001-79.05h.175v-41h37.798v2.13h-2.9v1.938h2.9v2.343h-2.9v1.938h2.9v2.344h-2.9v1.936h2.9v2.344h-2.9v1.937h2.9v2.344h-2.9v1.938h2.9v2.342h-2.9v1.938h2.9v2.344h-2.9v1.936h2.9v2.344h-2.9v1.938h2.9v2.343h-2.9v1.937h2.9v2.344h-2.9v1.937h2.9v2.344h-2.9v1.936h2.9v2.344h-2.9v1.938h2.9v1.388h-37.973v-11.545zm40.744 11.546v-1.39h21.604v1.39H452.37zm0-3.327v-2.344h21.604v2.344H452.37zm0-4.28v-2.344h21.604v2.344H452.37zm0-4.281v-2.344h21.604v2.344H452.37zm0-4.28v-2.344h21.604v2.344H452.37zm0-4.282v-2.344h21.604v2.344H452.37zm0-4.28v-2.344h21.604v2.344H452.37zm0-4.281v-2.343h21.604v2.343H452.37zm0-4.281v-2.344h21.604v2.344H452.37zm0-4.281v-2.344h21.604v2.344H452.37zm0-4.28v-2.344h21.604v2.344H452.37zm0-4.281v-2.344h21.604v2.344H452.37zm0-4.281v-2.131h21.604v2.13H452.37v.001zm34.192 4.199v-6.33h28.722v6.33h-28.722zm29.748-6.33h164.784l.379 6.33H516.31v-6.33zm203.567 0v9.658h-34.334l-2.534 5.157-.888-14.815h37.756zm0 16.27h-36.442l2.747-5.587h33.695v5.588-.001zm0 120.792h-3.476V408.6h13.448v-10.054h-3.475V261.485h.084v-8.105H409.064v49.105h1.537v79.05h-1.537v12.22h310.813v4.792z"/><path fill-rule="nonzero" d="M491.391 332.589V296.39h23.535v36.199h-23.535zm0-37.944v-15.888h48.815v15.888h-48.815zm25.28 37.944V296.39h23.535v36.199h-23.535zm-27.941 2.662h54.136v-59.155H488.73v59.155zm131.779 16.562h5.709v-1.069h-5.709v1.069zm-8.616 6.96h22.941v-9.61h-22.941v9.61zm8.616 3.799h5.709v-1.069h-5.709v1.069zm-8.616 6.961h22.941v-9.61h-22.941v9.61zm8.616 3.8h5.709v-1.069h-5.709v1.069zm-8.616 7.543h22.941v-10.193h-22.941v10.193zm25.63-50.512h-1.25a.886.886 0 0 0-.888.887l-.493 3.392h1.815v-3.054c0-.106.085-.192.191-.192.105 0 .19.086.19.192v3.054h1.815l-.492-3.392a.887.887 0 0 0-.888-.887m21.776 0h-1.252a.887.887 0 0 0-.887.887l-.492 3.392h1.814v-3.054a.191.191 0 1 1 .382 0v3.054h1.814l-.492-3.392a.887.887 0 0 0-.887-.887m-3.261 15.308h1.07v-5.71h-1.07v5.71zm-16.36 35.204h18.819v-42.473h-18.819v42.473zm20.976-35.204h1.07v-5.709h-1.07v5.709zm-1.388 35.204h18.819v-42.473h-18.819v42.473zm-75.25-48.649H573.1V320.03c0-.98.795-1.775 1.774-1.775h1.304v1.686h4.838v-1.686h1.227c.98 0 1.773.794 1.773 1.775v12.198-.001zm0 1.8c0 .978-.794 1.773-1.773 1.773h-7.369c-.98 0-1.773-.794-1.774-1.774v-.774h10.916v.775zm-15.487 9.846a.73.73 0 1 1-1.46 0v-24.349a.73.73 0 0 1 1.461 0v24.35l-.001-.001zm17.507-46.898h-21.258v72.275h23.032v-70.5c0-.98-.794-1.775-1.774-1.775z"/><path d="M544.477 378.518c0 .98.796 1.774 1.774 1.774h39.785c.98 0 1.774-.794 1.774-1.774v-8.389h-43.333v8.39-.001z"/><path fill-rule="nonzero" d="M561.517 343.873a.73.73 0 1 1-1.46 0v-24.35a.73.73 0 1 1 1.46 0v24.35zm2.322-46.897h-17.587c-.98 0-1.775.793-1.775 1.774v70.5h19.362v-72.274z"/><path d="M624.146 291.595v-16.899c0-.806-.656-1.46-1.46-1.46h-13.019c-.805 0-1.46.654-1.46 1.46v16.9c0 .805.655 1.46 1.46 1.46h13.018c.805 0 1.461-.655 1.461-1.46"/><path fill-rule="nonzero" d="M619.769 296.654h5.708v-1.069h-5.708v1.069zm-12.188-5.059v-16.899a2.09 2.09 0 0 1 2.087-2.088h13.017a2.09 2.09 0 0 1 2.087 2.088v16.899a2.088 2.088 0 0 1-2.087 2.086h-13.017a2.089 2.089 0 0 1-2.087-2.086zm-2.491 6.1h22.174v-27.499H605.09v27.499z"/><path d="M670.46 291.595v-16.899c0-.806-.656-1.46-1.461-1.46H655.98c-.804 0-1.46.654-1.46 1.46v16.9c0 .805.656 1.46 1.46 1.46h13.018c.805 0 1.46-.655 1.46-1.46"/><path fill-rule="nonzero" d="M666.082 296.654h5.708v-1.069h-5.708v1.069zm-12.187-5.059v-16.899a2.09 2.09 0 0 1 2.087-2.088h13.017c1.149 0 2.087.937 2.087 2.088v16.899a2.09 2.09 0 0 1-2.087 2.086h-13.017a2.088 2.088 0 0 1-2.087-2.086zm-2.492 6.1h22.174v-27.499h-22.174v27.499z"/><path d="M645.673 273.235h-13.016c-.805 0-1.462.655-1.462 1.46v16.9c0 .806.657 1.46 1.462 1.46h13.016a1.46 1.46 0 0 0 1.46-1.46v-16.9a1.46 1.46 0 0 0-1.46-1.46"/><path fill-rule="nonzero" d="M647.76 291.595c0 1.15-.936 2.086-2.087 2.086h-13.016a2.088 2.088 0 0 1-2.086-2.086v-16.899a2.09 2.09 0 0 1 2.086-2.088h13.016a2.09 2.09 0 0 1 2.087 2.088v16.9-.001zm-17.895 5.06h5.709v-1.07h-5.71v1.07h.001zm-1.786 1.04h22.172v-27.499h-22.172v27.5-.001zm59.631-20.989c.604 0 1.096-.491 1.096-1.097v-.796a1.097 1.097 0 0 0-2.192 0v.796c0 .606.49 1.097 1.096 1.097zm3.453 0c.604 0 1.095-.491 1.095-1.097v-.796a1.096 1.096 0 0 0-2.191 0v.796c0 .606.491 1.097 1.096 1.097zm3.452 0c.605 0 1.097-.491 1.097-1.097v-.796a1.097 1.097 0 0 0-2.192 0v.796c0 .606.491 1.097 1.095 1.097zm-15.566 69.738h39.742v-8.041h-39.742v8.041zm2.331 19.401h36.166v8.14c0 .978-.815 1.772-1.821 1.772H683.2c-1.006 0-1.821-.794-1.821-1.773v-8.139h.001zm0-11.412c0-.98.815-1.776 1.82-1.776h32.525c1.006 0 1.82.795 1.82 1.776v10.294H681.38v-10.294zm15.15-4.2h5.865v-1.07h-5.865v1.07zm-17.481 30.643h40.828V347.54h-40.828v33.337-.001z"/></g><g opacity=".5"><path fill="#FF9015" fill-rule="nonzero" d="M611.854 329.118a.094.094 0 0 1-.094.094h-1.321a.094.094 0 0 1-.095-.094v-1.322c0-.052.042-.095.095-.095h1.32c.053 0 .095.043.095.095v1.322zm0 2.38a.094.094 0 0 1-.094.096h-1.321a.095.095 0 0 1-.095-.096v-1.32c0-.053.042-.095.095-.095h1.32c.053 0 .095.042.095.095v1.32zm2.142-4.842h-5.74a.123.123 0 0 0-.122.123v5.747c0 .069.055.124.123.124h5.739a.123.123 0 0 0 .123-.124v-5.747a.123.123 0 0 0-.123-.123zm-121.14 45.299c0 .769-.624 1.392-1.392 1.392h-2.013a1.392 1.392 0 0 1-1.392-1.392v-2.014c0-.767.624-1.391 1.392-1.391h2.013c.768 0 1.392.624 1.392 1.39v2.015zm186.341-96.9c0 .722-.585 1.306-1.306 1.306h-1.937a1.306 1.306 0 0 1-1.306-1.306v-1.937c0-.72.585-1.306 1.306-1.306h1.937c.721 0 1.306.585 1.306 1.306v1.937z"/><path fill="#FFF" d="M676.713 275.072h.42"/><path stroke="#FFF" stroke-linecap="round" stroke-width=".095" d="M676.713 275.072h.42"/><path fill="#FFF" d="M677.872 273.138v1.185"/><path stroke="#FFF" stroke-linecap="round" stroke-width=".095" d="M677.872 273.138v1.185"/><path fill="#FFF" d="M675.974 273.138v1.185"/><path stroke="#FFF" stroke-linecap="round" stroke-width=".095" d="M675.974 273.138v1.185"/><path fill="#FFF" d="M676.713 275.072v-.207a.21.21 0 0 1 .42 0v.207"/><path stroke="#FFF" stroke-linecap="round" stroke-width=".095" d="M676.713 275.072v-.207a.21.21 0 0 1 .42 0v.207"/><g fill="#FF9015"><path d="M714.244 321.24a.191.191 0 0 0 0 .382.19.19 0 0 0 0-.381"/><path fill-rule="nonzero" d="M714.244 322.055a.624.624 0 1 1 0-1.248.624.624 0 0 1 0 1.248m0-1.389a.765.765 0 1 0-.002 1.53.765.765 0 0 0 .002-1.53"/><path fill-rule="nonzero" d="M714.244 321.771a.34.34 0 1 1 .001 0m0-.814a.474.474 0 1 0 .473.474.474.474 0 0 0-.474-.474"/><path fill-rule="nonzero" d="M714.244 322.345a.915.915 0 0 1 0-1.829.915.915 0 0 1 0 1.829m0-1.963a1.049 1.049 0 1 0-.002 2.098 1.049 1.049 0 0 0 .002-2.098"/><path fill-rule="nonzero" d="M714.244 322.628a1.2 1.2 0 0 1-1.198-1.197 1.2 1.2 0 0 1 1.198-1.198 1.2 1.2 0 0 1 1.198 1.198 1.2 1.2 0 0 1-1.198 1.197m2.13-4.368h-4.26a.305.305 0 0 0-.304.305v6.084c0 .167.137.304.304.304h4.26a.305.305 0 0 0 .304-.304v-6.084a.305.305 0 0 0-.304-.305"/></g><path fill="#FF9015" fill-rule="nonzero" d="M556.746 271.837h11.986v-1.177h-11.986v1.177zm-.436 2.535h13.172v-2.28H556.31v2.28zm13.171.225c0 .753-2.949 1.365-6.586 1.365-3.638 0-6.586-.612-6.586-1.365h13.172z"/><path fill="#FF9015" d="M501.631 346.987h-4.44a1 1 0 0 1-1.002-1.001v-4.441a1 1 0 0 1 1.001-1.001h4.441a1 1 0 0 1 1.001 1v4.442a1 1 0 0 1-1 1"/><path stroke="#FFF" stroke-width=".258" d="M499.411 340.544v6.443m-3.222-3.222h6.443"/><path fill="#FF9015" d="M675.838 333.007a.36.36 0 0 1-.359.359h-7.869a.358.358 0 0 1-.357-.36v-7.866c0-.2.16-.36.357-.36h7.869a.36.36 0 0 1 .359.36v7.867z"/><path fill="#E66C25" d="M671.545 333.366v1.316"/><path stroke="#FF9015" stroke-linecap="round" stroke-linejoin="round" stroke-width=".392" d="M671.545 333.366v1.316"/><path fill="#E66C25" d="M667.253 334.682h8.585"/><path stroke="#FF9015" stroke-linecap="round" stroke-linejoin="round" stroke-width=".392" d="M667.253 334.682h8.585"/><path stroke="#FFF" stroke-linecap="round" stroke-linejoin="round" stroke-width=".392" d="M674.566 329.073a3.02 3.02 0 1 1-6.04.001 3.02 3.02 0 0 1 6.04-.001z"/><path stroke="#FFF" stroke-linecap="round" stroke-linejoin="round" stroke-width=".392" d="M673.474 329.073a1.929 1.929 0 1 1-3.858.002 1.929 1.929 0 0 1 3.858-.002z"/><g><path fill="#FF9015" d="M533.573 331.575a.25.25 0 0 0 .177.425h5.435a.315.315 0 0 0 .315-.316v-5.428c0-.228-.27-.34-.425-.183l-5.502 5.502z"/><path fill="#FFF" fill-rule="nonzero" d="M539.5 327.213v-.004a.207.207 0 0 0-.354-.147l-.009.006-4.576 4.578a.208.208 0 0 0 .147.354"/></g><g><path fill="#FF9015" d="M602.225 277.087a2.193 2.193 0 0 1-2.194 2.193h-3.744a2.194 2.194 0 0 1-2.195-2.193v-3.745c0-1.212.983-2.194 2.195-2.194h3.744c1.212 0 2.194.981 2.194 2.193v3.746z"/><path stroke="#FFF" stroke-width=".335" d="M601.28 275.214a3.121 3.121 0 1 1-6.24 0 3.121 3.121 0 0 1 6.239 0h.001z"/></g><g><path fill="#FF9015" fill-rule="nonzero" d="M609.94 376.46c0-.271.221-.492.493-.492h.796c.274 0 .494.22.494.493v2.887c0 .272-.22.493-.494.493h-.795a.493.493 0 0 1-.493-.493v-2.887l-.001-.001zm2.239 4.829h.601v-.455h-.601v.455z"/><path stroke="#FF9015" stroke-width=".259" d="M610.831 376.452v-.645a.824.824 0 0 1 1.647 0v5.075m-.158.304v.238m.305-.238v.238"/></g></g><g fill="#000" fill-rule="nonzero"><path d="M238.258 359.535a.518.518 0 0 0 0 1.034h3.792a.517.517 0 0 0 0-1.034h-3.792zm-11.463 2.93v-4.051h-1.078v-1.271h28.875v1.27h-1.078v4.053h-26.72l.001-.001zm11.463 2.456h3.792a.517.517 0 0 1 0 1.034h-3.792a.517.517 0 0 1 0-1.034zm-11.463 2.974h26.72v-4.912h-26.72v4.912zm9.379-32.639h-.719l-4.229 11.747h1.121l3.827-11.747zm-1.755 11.747l2.846-11.747h-.599l-3.01 11.747h.763zm14.662 0l-4.228-11.747h-.715l3.827 11.747h1.116zm-2.425 0l-3.01-11.747h-5.89l-2.043 11.747h10.943zm-10.738 5.254c.346 1.285 1.346 3.26 2.402 4.188h3.816c1.055-.928 2.055-2.903 2.403-4.188.311-1.156.205-3.59-.997-4.835h-6.627c-1.203 1.244-1.31 3.68-.997 4.835zm45.685-19.03a.8.8 0 1 1 .001-1.599.8.8 0 1 1-.001 1.6m0-2.61a1.811 1.811 0 1 0 0 3.621 1.811 1.811 0 1 0 0-3.622m112.434-26.805l-3.29 8.431h.872l2.978-8.431h-.56zm-1.4 8.431h.594l2.214-8.431h-.467l-2.341 8.431zm8.154-8.431l2.977 8.431h.869l-3.29-8.431h-.556zm-32.965-21.953h32.846a.644.644 0 0 1 0 1.287h-32.846a.644.644 0 0 1 0-1.287m0-2.196h32.846a.643.643 0 0 1 0 1.286h-32.846a.644.644 0 0 1 0-1.286m0-2.198h32.846a.643.643 0 0 1 0 1.286h-32.846a.643.643 0 0 1 0-1.286m.695-5.278a.652.652 0 0 1 0 1.3.65.65 0 0 1 0-1.3m-1.552 12.468h34.56c.98 0 1.775-.794 1.775-1.775v-10.831c0-.98-.794-1.773-1.774-1.773h-34.561c-.981 0-1.774.794-1.774 1.773v10.83c0 .982.793 1.776 1.774 1.776"/><path d="M155.913 268.328h29.508v.115h1.026v-.115h29.625v5.872h-60.159v-5.872zm0-1.026v-5.817h29.508v5.817h-29.508zm30.534 0v-5.817h29.625v5.817h-29.625zm34.319 16.007h1.052v98.226h-2.887v-93.593h-1.025v93.593h-2.886v-98.226h1.052v4.633h4.694v-4.633zm0-14.981h107.166v.115h1.025v-.115h76.346l-.001 34.157h.001v17.769h-3.939a3.162 3.162 0 0 1-3.159-3.16v-3.04a1.527 1.527 0 0 0 1.063-1.451v-.36h3.482l-2.342-8.431h-4.582l-1.589 8.43h1.88v.36c0 .682.446 1.257 1.062 1.453v3.04a4.19 4.19 0 0 0 4.185 4.184h3.939v60.256H378.22v-2.507h1.971a2.288 2.288 0 0 0 2.286-2.287v-8.532a2.288 2.288 0 0 0-2.286-2.286h-1.3v-37.55h-7.45v30.778a220.715 220.715 0 0 0-4.18-2.613c-1.1-.662-3.265-.644-3.623-.636v-2.371c0-2.94-2.633-5.325-5.88-5.325h-23.866c-3.248 0-5.88 2.385-5.88 5.325v2.372h-.77v-2.372c0-2.94-2.633-5.325-5.88-5.325h-23.553c-3.248 0-5.881 2.385-5.881 5.325v2.404c-.709.058-1.858.226-2.607.72l-3.992 2.52v-30.802h-7.451v37.55h-1.299a2.289 2.289 0 0 0-2.288 2.286v8.532a2.29 2.29 0 0 0 2.288 2.287h1.97v2.507h-26.802v-3.124h.879a.887.887 0 0 0 .888-.888v-9h-26.72v9c0 .49.397.888.887.888h.88v3.124h-5.718v-99.251h-2.077v-13.956zm0-1.026v-5.817h32.314v5.817h-32.314zm33.339 0v-2.977h5.332v2.978h-5.332v-.001zm0-4.002v-1.303h5.332v1.303h-5.332zm6.357 4.002v-5.817h67.47v5.817h-67.47zm68.495 0v-5.817h48.726v5.817h-48.726zm49.751 0v-2.977h5.331v2.978h-5.331v-.001zm0-4.002v-1.303h5.331v1.303h-5.331zm6.357 4.002v-5.817h20.237v5.817h-20.237zm-6.174 99.655v-.01h1.3c.695 0 1.261.567 1.261 1.262v8.532c0 .695-.566 1.262-1.261 1.262h-7.339l1.911-11.046h4.128zm-1.025-1.034h-2.925l.406-2.342c.358-1.237-.52-2.215-1.64-2.975h.001l-1.242-.8v-30.408h5.4v36.525zm-1.714 15.612h-7.219v-1.392h3.569v-.116l.173-1h3.477v2.508zm-12.514 0H293.13v-1.392h70.508v1.392zm-80.576-20.93c-1.079.717-1.999 1.739-1.64 2.976l.406 2.342h-2.924v-36.525h5.399v30.424l-1.243.784h.002v-.001zm-1.056 6.352l1.911 11.046h-7.338a1.264 1.264 0 0 1-1.262-1.262v-8.532c0-.695.566-1.261 1.262-1.261h1.299v.009h4.128zm5.83 14.578h-7.219v-2.507h3.478l.172.999v.116h3.569v1.392zM237.74 370.61c0-.286.232-.517.518-.517h3.792a.518.518 0 1 1 0 1.034h-3.792a.517.517 0 0 1-.518-.517zm-7.111 10.924v-3.124h19.049v3.124h-19.049zm-18.938 0v-42.792h2.304v42.792h-2.304zm-6.857 0v-42.792h3.892v42.792h-3.892zm-6.854 0v-42.792h3.891v42.792h-3.891zm-6.856 0v-42.792h3.891v42.792h-3.891zm-6.857 0v-42.792h3.891v42.792h-3.891zm-6.856 0v-42.792h3.892v42.792h-3.892zm-6.856 0v-42.792h3.892v42.792h-3.892zm-6.856 0v-42.792h3.892v42.792h-3.892zm-7.274 0v-42.792h4.309v42.792h-4.309zm-7.011-106.23h6.499v-.08h60.159v7.059h-2.077v51.956h-57.57v-58.935H155.4v58.935h-9.46v4.503h9.46-5.986v43.298h-8.321v9.329h-11.217v7.456h-11.567v9.563h28.586v-.418h11.595v-14.216h250.574V253.38h-259.65v21.925-.001z"/><path d="M295.516 343.489h65.738v-32.842h-65.738v32.842zm-1.047 2.148v-36.314H362.3v36.314h-67.831zm66.319-.715a.28.28 0 1 0 0-.56h-1.966a.28.28 0 1 0 0 .56h1.966zm14.378-13.294a.8.8 0 1 1 0 1.6.8.8 0 0 1 0-1.6zm0 2.611a1.811 1.811 0 1 0 0-3.623 1.811 1.811 0 0 0 0 3.623z"/></g><g fill="#B3B3B3"><path fill-rule="nonzero" d="M388.85 230.748a.517.517 0 0 0 0 1.034h3.792a.517.517 0 0 0 0-1.034h-3.792zm-11.464 7.43v-9h26.72v9c0 .49-.397.887-.887.887h-.88v3.276h-2.068v-3.276h-19.048v3.276h-2.07v-3.276h-.879a.888.888 0 0 1-.887-.887h-.001zm9.381-30.61h-.719l-4.23 11.747h1.122l3.827-11.747zm-1.755 11.747l2.846-11.747h-.599l-3.01 11.747h.763zm14.662 0l-4.228-11.747h-.715l3.827 11.747h1.116zm-13.369 0h10.943l-3.009-11.747h-5.891l-2.043 11.747zm6.423 9.441c1.056-.928 2.056-2.902 2.404-4.188.311-1.156.205-3.59-.998-4.834h-6.627c-1.202 1.243-1.308 3.678-.997 4.834.348 1.286 1.348 3.26 2.404 4.188h3.815-.001zm-104.532 11.929h87.998v-11.61h-87.998v11.61zm2.383 1.834h7.578v-1.345h-7.578v1.345zm75.654 0h7.577v-1.345h-7.577v1.345zm-3.88-20.675c-.774.805-2.065 1.475-3.741 1.475h-13.826c-1.675 0-2.967-.67-3.74-1.475-.774-.803-4.255-1.74-2.837-2.543 1.418-.805 3.998-2.544 5.544-2.945 1.548-.402 3.997-.67 7.947-.67 3.948 0 6.398.268 7.945.67 1.547.401 4.126 2.14 5.544 2.945 1.419.803-2.062 1.74-2.836 2.543m-39.009 0c-.773.805-2.066 1.475-3.741 1.475h-13.825c-1.675 0-2.968-.67-3.74-1.475-.775-.803-4.256-1.74-2.837-2.543 1.417-.805 3.997-2.544 5.545-2.945 1.545-.402 3.996-.67 7.944-.67 3.949 0 6.4.268 7.946.67 1.547.401 4.126 2.14 5.544 2.945 1.419.803-2.063 1.74-2.836 2.543m50.677-4.558c-3.456-1.969-17.973-7.755-41.826-7.755s-38.371 5.786-41.826 7.755c-1.485.845-2.173 2.092-2.173 3.693v7.633h2.173v-1.97c0-1.479.808-2.462 2.703-2.462h78.246c1.894 0 2.703.983 2.703 2.462v1.97h2.173v-7.633c0-1.6-.689-2.848-2.173-3.693m-107.913 2.89h4.325a.529.529 0 0 0 0-1.057h-4.325a.529.529 0 0 0 0 1.057zm0 1.358h4.325a.529.529 0 0 0 0-1.057h-4.325a.53.53 0 0 0 0 1.057zm0-4.13h4.325a.528.528 0 0 0 0-1.056h-4.325a.529.529 0 0 0 0 1.057v-.001zm0 1.358h4.325a.528.528 0 0 0 0-1.056h-4.325a.529.529 0 0 0 0 1.056zm10.871-10.995c0-2.43-3.67-3.779-8.709-3.816-5.037.037-8.708 1.385-8.708 3.816v1.585h-32.209v3.236h32.21v.84c0 1.451 1.036 2.384 2.176 2.384h13.062c1.141 0 2.178-.933 2.178-2.384v-.84h11.203v-3.236H276.98v-1.585h-.001zm-8.916-3.82c.07 0 .138.004.208.004.069 0 .137-.003.207-.003h-.415v-.001z"/><path d="M279.253 239.015c-1.1-1.424-2.206-2.204-3.153-2.204h-6.287c.017-.15.026-.276.032-.39h.267v-7.245h6.465v-1.105c.603 0 1.906-.852 1.91-1.606.187.154.44.251.721.251.571 0 1.036-.395 1.036-.882v-11.078c0-.488-.465-.883-1.036-.883-.573 0-1.037.395-1.037.883v7.85c-.318-.414-.814-.669-1.192-.669h-17.417c-.378 0-.874.255-1.192.668v-7.849c0-.488-.465-.883-1.036-.883-.573 0-1.037.395-1.037.883v11.078c0 .487.464.882 1.037.882.28 0 .533-.097.72-.25.004.753 1.306 1.605 1.91 1.605v1.105h7.181v7.244h.231c.006.115.017.241.034.391h-6.416c-.934 0-2.023.756-3.108 2.142-.037 0-.072-.01-.11-.01a1.86 1.86 0 1 0 1.042.32c.967-.87 1.943-.905 2.176-.905h6.653c.075.444.151.886.21 1.265-.19.196-.31.46-.31.752v1.208a1.081 1.081 0 1 0 2.163 0v-1.208c0-.296-.12-.562-.313-.757.053-.378.124-.818.194-1.26h6.51c.216 0 1.076.017 1.974.72a1.858 1.858 0 0 0 .691 3.586 1.857 1.857 0 1 0 .487-3.649"/><path fill-rule="nonzero" d="M238.384 214.698h3.196a.436.436 0 0 1 0 .872h-3.196a.436.436 0 0 1 0-.872zm-9.66 5.853h22.516v-7.332h-22.516v7.332zm9.66 2.164h3.196a.436.436 0 0 1 0 .872h-3.196a.436.436 0 0 1 0-.872zm-9.66 7.163h22.516v-8.797h-22.516v8.797zm-63.822 12.576h10.856c0-2.851-4.678-3.354-4.678-3.354s-.317-2.947 3.08-4.543c5.567-2.615 9.734-5.214 9.734-10.086h-18.992v17.983zm-2.055-27.024h-3.453c-.979 0-1.774.795-1.774 1.774v11.871h7.001v-11.87c0-.98-.794-1.775-1.774-1.775zm19.273 6.976h-15.444c-.98 0-1.774.795-1.774 1.774h18.992c0-.98-.795-1.774-1.774-1.774zM383.327 97.628h3.057v.994h4.591v-.994h13.603v.994h4.487v-11.98h-25.738v10.986zm0-12.23V40.002h13.888v45.396h-13.888zm12.091-21.005h1.037v-6.219h-1.037v6.219zm2.626 21.005V40.002h11.021v45.396h-11.021zm.76-21.005h1.037v-6.219h-1.037v6.219zm-72.254.863V33.191h24.802v32.065H326.55zm26.35 0V33.191h24.802v32.065H352.9zm-27.898 1.548h54.247V31.643h-54.247v35.161zm2.654 14.35c-.805 0-1.457.652-1.457 1.457v2.888h-1.133v-2.907c0-.794-.644-1.438-1.438-1.438h-67.53a2.807 2.807 0 0 0 2.433-1.418h.5a1.224 1.224 0 0 0 0-2.447h-.316a2.82 2.82 0 0 0-2.618-1.78h-10.399a2.82 2.82 0 0 0-2.618 1.78h-.01a1.224 1.224 0 1 0 0 2.447h.193a2.81 2.81 0 0 0 2.435 1.418h-3.16c-.806 0-1.458.652-1.458 1.458v2.887h-.367V68.418a1.457 1.457 0 1 0-2.914 0V99.34h2.914v-1.7H326.2v1.7h2.915V82.61c0-.805-.653-1.457-1.458-1.457l-.001.001zM281.484 49.57l1.361 3.416.284.712 3.914-1.561.539 1.353 1.619-.646-.234-.586 2.295-.916-.914-2.294-2.296.914.44 1.102-.666-1.671-1.619.645.552 1.388-3.167 1.262-1.361-3.416 1.21-.482-.397-.996-3.487 1.389.397.997 1.53-.61z"/><path fill-rule="nonzero" d="M236.562 66.177V99.44h-84.049l84.05-33.263h-.001zm-1.005 49.53v-1.304h5.331v1.303h-5.33l-.001.001zm0 4.001v-2.977h5.331v2.977h-5.331zm-10.996 0v-5.819h9.97v5.818h-9.97v.001zm108.555 1.025v1.5h1.026v-1.5h71.16v48.802h-.89a.508.508 0 0 0-.509.51v2.417h-5.434a3.162 3.162 0 0 1-3.16-3.159v-3.04a1.525 1.525 0 0 0 1.063-1.452v-.36h3.482l-2.342-8.429h-4.582l-1.589 8.43h1.878v.36c0 .68.447 1.257 1.064 1.451v3.04a4.19 4.19 0 0 0 4.186 4.185h5.434v2.46c0 .281.227.508.508.508h.891v66.252H287.018V212.83h-2.475v29.878h-33.45a.723.723 0 0 0 .146-.422v-11.768h-22.515v11.768c0 .161.061.301.147.422h-2.117v-91.443h-2.193v-30.532h108.555zm-91.203-1.026v-5.818h91.203v5.818h-91.203zm92.23 0v-5.818h54.714v5.818h-54.715.001zm55.74.001v-2.977h5.331v2.977h-5.332.001zm0-4.002v-1.303h5.331v1.303h-5.332.001zm6.356 4.001v-5.818h9.062v5.818h-9.062zM241.58 232.712h-3.196a.436.436 0 0 1 0-.872h3.196a.437.437 0 0 1 0 .872zm-15.85 9.996h-2.886V156.17h-1.026v86.538h-2.886v-90.417h1.167v3.878h4.463v-3.878h1.168v90.417zm-25.822-123v-5.819h20.191v5.818h-20.19l-.001.001zm-43.994 0v-5.819h42.97v5.818h-42.97v.001zm42.97 1.025v1.5h1.024v-1.5h20.191v7.558h-64.185v-7.558h42.97zm19.023 121.975h-11.742l-1.593-33.498c5.372-1.212 8.952-5.12 8.952-7.759h-24.587c0 2.64 3.58 6.547 8.953 7.76l-1.595 33.497h-40.38v-46.64h2.604V136.88h-2.605v-7.564h64.185v21.95h-2.192v91.442zm-69.302-48.435v-1.7h2.785v-52.199h-2.785v-1.699h8.12v55.598h-8.12zm.81 55.696h-46.013v-6.46h7.46l.131-1.287h9.215l.132-1.286h9.215l.132-1.287h9.214l.131-1.285h9.216l.105-1.03h1.062v12.635zM402.548 17.93l-12.016-.565-.032-.008.704-2.553-10.713-.22-.09-.025.698-2.537-9.595-.449V7.264L347.452 0l-20.3 9.206v4.312l-10.38 1.507.96 2.45-.084.032-10.282 1.21.97 2.471H194.57v7.37h95.138l-3.46 1.368H194.57v8.061h71.298l-3.46 1.368H194.57v8.06h47.46l-3.463 1.37H194.57v8.06h23.62l-3.462 1.367H194.57v6.7l-6.98.821.97 2.472-11.529 1.673.97 2.471-10.374 1.22.97 2.472-11.53 1.674.972 2.47-10.376 1.221.971 2.471-11.529 1.674.97 2.471-10.374 1.22.97 2.471-11.529 1.673.971 2.472-10.375 1.221 1.172 2.984-.013.006v10.497l1.593-.63v6.136l28.526-11.29h10.161v9.108h.237v22.991h-2.605v59.188h2.605v26.947h-1.853v1.114h-9.175v1.286h-9.347v1.286h-9.346v1.288h-9.347v1.285H101v14.234h1.375v7.486h47.04v2.385h259.65V99.441H237.586V65.77l110.321-43.66 61.156 16.921v-1.064l-61.048-16.89-.166-.047-236.334 93.53v-5.032L347.88 16.047l61.185 16.947V20.636l-7.22-.148.704-2.56-.001.002z"/><path fill-rule="nonzero" d="M391.7 156.022h-.56l-3.289 8.43h.871l2.978-8.43zm-1.365 8.43l2.213-8.43h-.466l-2.341 8.43h.594zm11.406 0l-3.289-8.43h-.556l2.977 8.43h.868zm-172.456-29.917h32.847a.643.643 0 0 1 0 1.286h-32.847a.643.643 0 0 1 0-1.286zm0-2.197h32.847a.643.643 0 0 1 0 1.286h-32.847a.643.643 0 0 1 0-1.286zm0-2.198h32.847a.644.644 0 0 1 0 1.287h-32.847a.644.644 0 0 1 0-1.287zm.696-5.277a.65.65 0 1 1 0 1.3.65.65 0 0 1 0-1.3zm2.103 0a.65.65 0 1 1-.613.649c0-.345.27-.63.614-.649h-.001zm-5.429-.14v10.833c0 .98.793 1.775 1.773 1.775h34.562c.98 0 1.774-.795 1.774-1.775v-10.832c0-.98-.795-1.774-1.774-1.774h-34.562c-.98 0-1.774.795-1.774 1.774l.001-.001zm.762 78.627v-22.955h36.61v22.955h-15.016v2.293c0 1.163 2.071 2.944 4.21 2.944v.597h-14.998v-.597c2.139 0 4.209-1.781 4.209-2.944v-2.293h-15.015zm1.672-1.741h33.266v-19.473h-33.266v19.473zm-58.858-3.009h-.349a1.275 1.275 0 0 1-1.109 1.11v.347h-.313v-.348a1.277 1.277 0 0 1-1.11-1.109h-.348v-.313h.348c.072-.58.53-1.038 1.11-1.11v-.348h.313v.348c.58.072 1.038.53 1.11 1.11h.348v.313zm-1.615-2.187a2.03 2.03 0 1 0 .004 4.059 2.03 2.03 0 0 0-.004-4.058v-.001z"/><path fill-rule="nonzero" d="M181.74 198.6h-.349a1.276 1.276 0 0 1-1.11 1.11v.347h-.313v-.348a1.274 1.274 0 0 1-1.109-1.109h-.349v-.313h.35c.07-.58.528-1.038 1.108-1.11v-.348h.313v.348c.58.072 1.038.53 1.11 1.11h.348v.313h.001zm-1.616-2.187a2.03 2.03 0 1 0 .004 4.06 2.03 2.03 0 0 0-.004-4.06zm-4.892-60.275c4.515.195 8.035 1.767 8.035 3.676 0 .061-.014.12-.022.179.008.048.022.095.022.143 0 .455-.323.885-.882 1.27-1.316 1.134-3.986 1.95-7.153 2.087v54.105h2.343v1.692h-2.343v1.22c0 .227-.092.43-.236.583-.233 3.327-2.13 6.699-5.931 6.289-5.585-.602-5.675-6.185-4.937-10.638.567-3.417 1.563-6.723 2.338-10.091.76-3.295 1.35-6.628 1.822-9.975.908-6.452 1.652-13.142 1.103-19.663h-.208s-.011-.14-.035-.362h-.79v-1.328h.574c-.385-1.836-1.33-4.528-3.601-4.681h-4.21v-2.64s2.672 0 4.253.193c3.382.412 4.907 3.346 5.283 7.128h2.853v-11.827c-3.245-.114-5.99-.937-7.33-2.092-.56-.385-.883-.815-.883-1.27 0-.048.015-.095.022-.143-.007-.059-.022-.118-.022-.179 0-1.934 3.613-3.52 8.213-3.682v-.241a.862.862 0 0 1 1.722 0v.247zm-2.083 67.716c.359-.846.58-1.777.66-2.704a.848.848 0 0 1-.3-.64v-1.22h-2.341v-1.692h2.342v-40.945h-2.772c.003.121.01.24.012.362h-.184c.47 5.627-.054 11.381-.748 16.963a135.022 135.022 0 0 1-3.162 16.702c-.75 2.953-1.564 5.996-1.691 9.056-.087 2.08.028 4.932 2.212 5.972 2.278 1.084 4.938.58 5.972-1.854zm16.912-11.646a.192.192 0 0 1 .383 0v3.055h1.813l-.492-3.393a.888.888 0 0 0-.887-.888h-1.251a.888.888 0 0 0-.887.888l-.492 3.393h1.813v-3.055zm21.775 0a.192.192 0 0 1 .383 0v3.055h1.814l-.492-3.393a.889.889 0 0 0-.888-.888h-1.251a.887.887 0 0 0-.886.888l-.493 3.393h1.813v-3.055z"/><path d="M214.305 195.561h-13.033v-7.887a2.33 2.33 0 0 1 2.267-2.326 2.33 2.33 0 0 1 2.266 2.326v2.786h1.877v-2.786a4.21 4.21 0 0 0-4.083-4.203h-.121a4.21 4.21 0 0 0-4.083 4.203v7.887h-11.24c-.98 0-1.774.794-1.774 1.774v2.072c0 .98.795 1.773 1.775 1.773h26.149c.979 0 1.773-.794 1.773-1.773v-2.072c0-.98-.794-1.774-1.773-1.774"/></g><g opacity=".5"><path fill="#FF9015" fill-rule="nonzero" d="M391.695 194.226a.124.124 0 0 1-.124.124h-1.726a.124.124 0 0 1-.123-.124V192.5c0-.068.056-.123.123-.123h1.726c.069 0 .124.055.124.123v1.726zm1.88-3.854h-5.738a.123.123 0 0 0-.123.123v5.748c0 .067.055.123.123.123h5.738a.124.124 0 0 0 .123-.123v-5.748a.123.123 0 0 0-.123-.123z"/><g fill="#FF9015"><path d="M379.573 229.032h1.792a.573.573 0 0 0 .572-.572v-2.953c-.468-.065-.96-.1-1.468-.1s-1 .035-1.468.1v2.953c0 .315.256.572.572.572"/><path fill-rule="nonzero" d="M381.108 223.337a.412.412 0 1 1 .001-.824.412.412 0 0 1-.001.823m0 1.263a.412.412 0 1 1-.04-.823.412.412 0 0 1 .04.823m-1.241-1.262a.412.412 0 1 1 .001-.824.412.412 0 0 1-.001.823m0 1.263a.412.412 0 1 1-.04-.823.412.412 0 0 1 .04.823m1.498-2.773h-1.792a.573.573 0 0 0-.572.573v2.895a10.853 10.853 0 0 1 2.936 0v-2.895a.572.572 0 0 0-.572-.573"/></g><path stroke="#FF9015" stroke-width=".259" d="M267.544 125.052v.734m-.51 1.188l-.334-.542m1.776-.001l-.316.514"/><path fill="#FF9015" fill-rule="nonzero" d="M267.589 128.092a1.854 1.854 0 1 1 0-3.708 1.854 1.854 0 0 1 0 3.708zm-2.46-1.866v4.488h4.917v-4.488a2.458 2.458 0 1 0-4.917 0z"/><path stroke="#FF9015" stroke-width=".259" d="M269.721 130.278v5.803"/><path fill="#FFF" d="M269.484 136.934h.475v-.814h-.475z"/><path fill="#FF9015" d="M269.484 136.934h.475v-.814h-.475zM395.225 128.965a2.194 2.194 0 0 1-2.194 2.194h-3.745a2.194 2.194 0 0 1-2.194-2.194v-3.745c0-1.212.983-2.194 2.194-2.194h3.745c1.212 0 2.194.982 2.194 2.194v3.745z"/><path stroke="#FFF" stroke-width=".335" d="M394.279 127.093a3.12 3.12 0 1 1-6.239 0 3.12 3.12 0 0 1 6.238 0h.001z"/><path fill="#FF9015" fill-rule="nonzero" d="M212.496 236.643c0-.27.221-.493.493-.493h.796c.272 0 .493.222.493.493v2.887c0 .272-.22.493-.493.493h-.796a.493.493 0 0 1-.493-.493v-2.887zm2.238 4.827h.601v-.454h-.601v.454z"/><path stroke="#FF9015" stroke-width=".259" d="M213.387 236.634v-.644a.824.824 0 0 1 1.647 0v5.074m-.159.306v.237m.306-.237v.237"/><g><path fill="#FF9015" d="M256.01 233.83c0 .722-.584 1.306-1.306 1.306h-1.937a1.306 1.306 0 0 1-1.306-1.306v-1.937c0-.721.585-1.306 1.306-1.306h1.937c.722 0 1.306.585 1.306 1.306v1.937z"/><path fill="#FFF" d="M253.526 233.846h.419"/><path stroke="#FFF" stroke-linecap="round" stroke-width=".095" d="M253.526 233.846h.419"/><path fill="#FFF" d="M254.685 231.913v1.185"/><path stroke="#FFF" stroke-linecap="round" stroke-width=".095" d="M254.685 231.913v1.185"/><path fill="#FFF" d="M252.786 231.913v1.185"/><path stroke="#FFF" stroke-linecap="round" stroke-width=".095" d="M252.786 231.913v1.185"/><path fill="#FFF" d="M253.526 233.846v-.207a.21.21 0 1 1 .419 0v.207"/><path stroke="#FFF" stroke-linecap="round" stroke-width=".095" d="M253.526 233.846v-.207a.21.21 0 1 1 .419 0v.207"/></g></g><g transform="translate(132 251)"><path fill="#FF9015" fill-rule="nonzero" d="M252.794 94.518v-1.726a.124.124 0 0 0-.124-.123h-1.727a.124.124 0 0 0-.123.123v1.726c0 .07.056.124.123.124h1.727a.124.124 0 0 0 .124-.124zm1.88-3.854c.069 0 .124.055.124.124v5.747a.124.124 0 0 1-.124.124h-5.738a.124.124 0 0 1-.123-.124v-5.747c0-.069.055-.124.123-.124h5.738zm4.74 2.463a.094.094 0 0 1-.095.094h-1.321a.094.094 0 0 1-.095-.094v-1.321c0-.054.042-.096.095-.096h1.32c.054 0 .096.042.096.096v1.321zm0 2.38a.094.094 0 0 1-.095.096h-1.321a.094.094 0 0 1-.095-.095v-1.321c0-.053.042-.094.095-.094h1.32c.054 0 .096.04.096.094v1.32zm2.14-4.843h-5.738a.124.124 0 0 0-.123.124v5.747c0 .069.055.124.123.124h5.738a.124.124 0 0 0 .124-.124v-5.747a.125.125 0 0 0-.124-.124zm6.03 2.463a.094.094 0 0 1-.095.094h-1.321a.094.094 0 0 1-.094-.094v-1.321c0-.053.042-.096.094-.096h1.32c.054 0 .096.043.096.096v1.321zm0 2.38a.094.094 0 0 1-.095.096h-1.321a.094.094 0 0 1-.094-.095v-1.321c0-.052.042-.094.094-.094h1.32c.054 0 .096.042.096.094v1.32zm-2.527-2.38a.094.094 0 0 1-.095.094h-1.322a.095.095 0 0 1-.094-.094v-1.321c0-.053.043-.096.094-.096h1.322c.053 0 .095.043.095.096v1.321zm0 2.38a.094.094 0 0 1-.095.096h-1.322a.095.095 0 0 1-.094-.095v-1.321c0-.052.043-.094.094-.094h1.322c.053 0 .095.042.095.094v1.32zm3.377-4.843h-5.738a.124.124 0 0 0-.123.124v5.747c0 .069.055.124.123.124h5.738a.124.124 0 0 0 .124-.124v-5.747a.125.125 0 0 0-.124-.124z"/><path stroke="#FF9015" stroke-width=".259" d="M127.964 117.683v.733m-.51 1.19l-.334-.543m1.777 0l-.317.514"/><path fill="#FF9015" fill-rule="nonzero" d="M128.008 120.724a1.853 1.853 0 1 1 0-3.706 1.853 1.853 0 0 1 0 3.706m0-4.325a2.46 2.46 0 0 0-2.46 2.46v4.487h4.918v-4.487c0-1.359-1.1-2.46-2.458-2.46"/><path stroke="#FF9015" stroke-width=".259" d="M229.322 23.216v.734m-.51 1.188l-.334-.54m1.777-.003l-.316.515"/><path fill="#FF9015" fill-rule="nonzero" d="M229.367 26.257a1.854 1.854 0 1 1-.085-3.707 1.854 1.854 0 0 1 .085 3.707m0-4.324a2.458 2.458 0 0 0-2.46 2.46v4.485h4.919v-4.486a2.458 2.458 0 0 0-2.46-2.459"/><path stroke="#FF9015" stroke-width=".259" d="M231.5 28.443v5.803"/><path fill="#FF9015" d="M231.262 35.098h.475v-.813h-.475z"/><path fill="#FF9015" d="M231.262 35.098h.475v-.813h-.475z"/><path fill="#FF9015" d="M231.744 35.231a.24.24 0 1 1-.48 0 .24.24 0 0 1 .48 0"/><path fill="#FF9015" fill-rule="nonzero" d="M99.01 103.555c0 .722-.584 1.306-1.306 1.306h-1.937a1.306 1.306 0 0 1-1.306-1.306v-1.937c0-.72.585-1.306 1.306-1.306h1.937c.722 0 1.306.585 1.306 1.306v1.937zm-2.484.017h.419-.419z"/><path stroke="#FFF" stroke-linecap="round" stroke-width=".095" d="M96.526 103.572h.419"/><path fill="#FF9015" d="M97.685 101.638v1.185"/><path stroke="#FFF" stroke-linecap="round" stroke-width=".095" d="M97.685 101.638v1.185"/><path fill="#FF9015" d="M95.786 101.638v1.185"/><path stroke="#FFF" stroke-linecap="round" stroke-width=".095" d="M95.786 101.638v1.185"/><path fill="#FF9015" d="M96.526 103.572v-.207a.21.21 0 1 1 .419 0v.207"/><path stroke="#FFF" stroke-linecap="round" stroke-width=".095" d="M96.526 103.572v-.207a.21.21 0 1 1 .419 0v.207"/><g><path fill="#FF9015" d="M119.156 104.135a.15.15 0 0 1-.145-.11l-.624-2.438-.01-.023-.02-.048a1.692 1.692 0 1 1 3.273-.599c0 .226-.046.447-.135.657l-.65 2.451a.148.148 0 0 1-.144.11h-1.545z"/><path stroke="#FFF" stroke-width=".323" d="M118.338 101.587h3.204"/><path stroke="#FF9015" stroke-linecap="round" stroke-linejoin="round" stroke-width=".289" d="M119.31 104.67h1.257m-1.052.58h.847"/></g><g fill="#FF9015"><path d="M.989 2.477h1.099v-.946H.989z"/><path fill-rule="nonzero" d="M12.926 6.456H2.108l-.529-4.508.004-.981H13.45l-.037 1.178-.487 4.311zM.631 13.449c0 .148-.096.269-.212.269-.117 0-.212-.121-.212-.27L.001 2.025c0-.387.188-.7.419-.7.232 0 .42.313.42.7L.632 13.449H.631zm3.745-.154c.175-.3.22-.979.27-1.694.126-1.875.3-3.559 2.87-3.559 2.568 0 2.742 1.684 2.869 3.56.049.715.095 1.393.27 1.694.059.103.333.435 1.379.436l.003.01V6.9H2.994v6.832c1.048 0 1.323-.333 1.382-.436v-.001z"/><path d="M7.437 11.888c.923 0 1.672.761 1.672 1.698 0 .387-.129.742-.344 1.028 1.212-.088 2.27-.305 3.031-.602-.98 0-1.367-.298-1.496-.52-.643-1.109.387-4.823-2.785-4.823s-2.142 3.714-2.786 4.823c-.129.222-.515.521-1.499.521.721.287 1.723.49 2.868.586a1.698 1.698 0 0 1-.332-1.013c0-.937.748-1.698 1.671-1.698"/><path fill-rule="nonzero" d="M7.433 14.85a.87.87 0 0 1-.862-.875c0-.483.386-.875.862-.875s.862.392.862.875a.87.87 0 0 1-.862.875m0-2.629c-.813 0-1.474.671-1.474 1.496 0 .827.661 1.497 1.474 1.497.814 0 1.474-.67 1.474-1.497 0-.825-.66-1.496-1.474-1.496"/></g><g fill="#FF9015"><path fill-rule="nonzero" d="M110.037 29.117a1.334 1.334 0 1 1-.003-2.668 1.334 1.334 0 0 1 .003 2.668m3.585-4.727a19.335 19.335 0 0 0-.162-1.968 2.845 2.845 0 0 0-.081-.41 1.335 1.335 0 0 0-.122-.296 1.008 1.008 0 0 0-.174-.227 1.286 1.286 0 0 0-.26-.19 2.017 2.017 0 0 0-.353-.156 3.078 3.078 0 0 0-.43-.11 4.93 4.93 0 0 0-.5-.062 12.987 12.987 0 0 0-.654-.027 40.052 40.052 0 0 0-1.7 0c-.217.005-.437.01-.654.027a4.875 4.875 0 0 0-.498.063c-.145.026-.29.062-.43.109-.123.04-.241.093-.354.156-.28.145-.483.406-.555.714-.037.134-.064.27-.081.409-.09.654-.142 1.308-.162 1.968a61.854 61.854 0 0 0 0 3.804c.018.658.072 1.315.162 1.968.033.255.076.494.212.724.078.13.184.242.31.328.156.107.33.183.51.24.212.065.43.11.65.137.295.035.594.043.89.048.567.012 1.133.012 1.7 0 .218-.003.438-.01.655-.026.168-.013.333-.032.499-.062.145-.028.289-.063.43-.11.122-.041.24-.092.353-.156.094-.053.183-.115.26-.19.069-.067.127-.143.174-.226.053-.093.092-.194.122-.297.038-.135.063-.271.08-.41.089-.653.142-1.31.163-1.968a63.481 63.481 0 0 0 0-3.804"/><path d="M109.036 27.783a1 1 0 1 1 2 0 1 1 0 0 1-2 0"/></g><g><path fill="#FF9015" d="M97.058 25.965a2.194 2.194 0 0 1-2.194 2.194h-3.745a2.194 2.194 0 0 1-2.194-2.194V22.22c0-1.21.982-2.193 2.194-2.193h3.745c1.212 0 2.194.982 2.194 2.193v3.745z"/><path stroke="#FFF" stroke-width=".335" d="M96.112 24.093a3.121 3.121 0 1 1-6.243 0 3.121 3.121 0 0 1 6.243 0z"/></g><animate attributeName="opacity" from="1" to="0" begin="0s" dur="2s" repeatCount="indefinite"/></g><g fill="#000" font-family="PingFangSC-Regular, PingFang SC" font-size="9"><text transform="translate(0 298)"><tspan x=".375" y="11.99">Smart Camera</tspan></text><text transform="translate(0 444)"><tspan x=".375" y="11.939">OOMI Siren</tspan></text><text transform="translate(185 499)"><tspan x=".734" y="11.299">OOMI In-Wall Switch</tspan></text><text transform="translate(58 499)"><tspan x=".132" y="11.299">OOMI Plug</tspan></text><text transform="translate(280 499)"><tspan x=".721" y="11.299">OOMI Single WallSwitch</tspan></text><text transform="translate(505 475)"><tspan x=".796" y="11.299">OOMI Quad WallSwitch</tspan></text><text transform="translate(130 499)"><tspan x=".846" y="11.299">OOMI Bulb</tspan></text><text transform="translate(390 499)"><tspan x=".35" y="11">OOMI Dual WallSwitch</tspan></text></g><g stroke="#FF9015" transform="translate(130 173)"><path stroke-width="1.099" d="M180 173.5a5.5 5.5 0 1 1-11 0 5.5 5.5 0 0 1 11 0z"/><path stroke-width="1.056" d="M189 174c0 7.732-6.268 14-14 14s-14-6.268-14-14 6.268-14 14-14 14 6.268 14 14z"/><path stroke-width="1.014" d="M196 173.5c0 11.874-9.626 21.5-21.5 21.5s-21.5-9.626-21.5-21.5 9.626-21.5 21.5-21.5 21.5 9.626 21.5 21.5z"/><path stroke-width=".971" d="M205 175c0 16.568-13.433 30-30 30-16.569 0-30-13.432-30-30 0-16.568 13.431-30 30-30 16.567 0 30 13.432 30 30z"/><path stroke-width=".929" d="M212 174c0 20.986-17.012 38-38 38-20.987 0-38-17.014-38-38 0-20.987 17.013-38 38-38 20.988 0 38 17.013 38 38z"/><path stroke-width=".886" d="M221 174c0 25.405-20.594 46-46 46s-46-20.595-46-46 20.594-46 46-46 46 20.595 46 46z"/><path stroke-width=".844" d="M229 174c0 29.822-24.177 54-54 54-29.825 0-54-24.178-54-54s24.175-54 54-54c29.823 0 54 24.178 54 54z"/><path stroke-width=".801" d="M237 175c0 34.24-27.759 62-62 62s-62-27.76-62-62c0-34.24 27.759-62 62-62s62 27.76 62 62z"/><path stroke-width=".759" d="M244 174c0 38.658-31.34 70-70 70s-70-31.342-70-70 31.34-70 70-70 70 31.342 70 70z"/><path stroke-width=".716" d="M253 174c0 43.077-34.922 78-78 78-43.08 0-78-34.923-78-78s34.92-78 78-78c43.078 0 78 34.923 78 78z"/><path stroke-width=".674" d="M261 174c0 47.494-38.502 86-85.998 86C127.504 260 89 221.494 89 174s38.504-86 86.002-86C222.498 88 261 126.506 261 174z"/><path stroke-width=".631" d="M270 174.5c0 52.19-42.309 94.5-94.5 94.5-52.19 0-94.5-42.31-94.5-94.5S123.31 80 175.5 80c52.191 0 94.5 42.31 94.5 94.5z"/><path stroke-width=".589" d="M276 174c0 56.33-45.666 102-102 102-56.333 0-102-45.67-102-102S117.667 72 174 72c56.334 0 102 45.67 102 102z"/><path stroke-width=".546" d="M285 174.5c0 61.026-49.472 110.5-110.5 110.5S64 235.526 64 174.5C64 113.475 113.472 64 174.5 64S285 113.475 285 174.5z"/><path stroke-width=".504" d="M293 174c0 65.166-52.83 118-118 118S57 239.166 57 174c0-65.168 52.83-118 118-118s118 52.832 118 118z"/><path stroke-width=".461" d="M302 173.5c0 69.862-56.636 126.5-126.5 126.5C105.635 300 49 243.362 49 173.5S105.635 47 175.5 47C245.364 47 302 103.638 302 173.5z"/><path stroke-width=".419" d="M308 173c0 74.003-59.993 134-133.998 134C99.993 307 40 247.003 40 173S99.993 39 174.002 39C248.007 39 308 98.997 308 173z"/><path stroke-width=".376" d="M317 174.5c0 78.697-63.798 142.5-142.5 142.5S32 253.197 32 174.5 95.798 32 174.5 32 317 95.803 317 174.5z"/><path stroke-width=".334" d="M327 175c0 83.391-67.604 151-151 151S25 258.391 25 175C25 91.607 92.604 24 176 24s151 67.607 151 151z"/><path stroke-width=".291" d="M334 173.5c0 87.534-70.962 158.5-158.5 158.5S17 261.034 17 173.5 87.962 15 175.5 15 334 85.966 334 173.5z"/><path stroke-width=".249" d="M342 174c0 92.228-74.769 167-167 167C82.767 341 8 266.228 8 174S82.767 7 175 7c92.231 0 167 74.772 167 167z"/><path stroke-width=".206" d="M349 174.5c0 96.368-78.124 174.5-174.5 174.5S0 270.868 0 174.5C0 78.13 78.124 0 174.5 0S349 78.13 349 174.5z"/><animate attributeName="opacity" from="1" to="0" begin="0s" dur="2s" repeatCount="indefinite"/></g></g></svg>