<svg xmlns="http://www.w3.org/2000/svg" width="655" height="409"><g fill="none" fill-rule="evenodd"><path d="M493.975 130.875h-32.847a.642.642 0 0 1 0-1.286h32.847a.644.644 0 0 1 0 1.286m0 2.198h-32.847a.643.643 0 0 1 0-1.286h32.847a.643.643 0 1 1 0 1.286m0 2.197h-32.847a.643.643 0 0 1 0-1.286h32.847a.643.643 0 1 1 0 1.286m-32.151-10.958a.65.65 0 1 1 .001 1.3.65.65 0 0 1-.001-1.3m2.104 0a.65.65 0 1 1 .002 1.3.65.65 0 0 1-.002-1.3m30.905-1.914H460.27c-.98 0-1.775.795-1.775 1.775v10.832c0 .98.796 1.774 1.775 1.774h34.563c.98 0 1.773-.795 1.773-1.774v-10.832c0-.98-.794-1.775-1.774-1.775M491.042 219.686c-1.418-.805-3.997-2.545-5.544-2.947-1.548-.4-3.997-.669-7.946-.669-3.948 0-6.4.268-7.947.67-1.545.401-4.125 2.141-5.543 2.946-1.418.803 2.063 1.74 2.836 2.543.774.804 2.065 1.474 3.74 1.474h13.827c1.676 0 2.967-.67 3.74-1.474.774-.804 4.256-1.74 2.837-2.543M494.78 194.283c0 .625-.509 1.133-1.133 1.133h-32.223a1.134 1.134 0 0 1-1.132-1.133V179.86c0-.625.508-1.133 1.132-1.133h32.223c.624 0 1.132.508 1.132 1.133v14.423zm-1.133-16.84h-32.223a2.419 2.419 0 0 0-2.415 2.417v14.423a2.419 2.419 0 0 0 2.415 2.416h32.223a2.419 2.419 0 0 0 2.415-2.416V179.86a2.419 2.419 0 0 0-2.415-2.416z" fill="#000"/><path fill="#000" d="M460.83 184.001l5.942 10.897 2.274-1.24-5.941-10.897zM464.418 184.001l5.94 10.897 2.275-1.24-5.94-10.897zM468.007 184.001l5.94 10.897 2.275-1.24-5.94-10.897zM471.595 184.001l5.941 10.897 2.274-1.24-5.94-10.897zM480.179 183.367l.012 11.352 2.892-.003-.01-11.353zM483.704 182.308l.013 12.41 2.891-.003-.01-12.41zM487.23 181.086l.013 13.631 2.892-.003-.013-13.631zM490.757 182.307l.012 12.41 2.893-.002-.012-12.411zM580.362 188.394a.73.73 0 1 1-1.46 0v-8.226a.731.731 0 0 1 1.46 0v8.226zm14.69-37.51H576.61v71.492h20.216v-69.718c0-.98-.795-1.774-1.775-1.774zM571.89 180.168a.73.73 0 1 1 1.46 0v8.226a.729.729 0 1 1-1.46 0v-8.226zm-18.395-27.51v69.719h22.177v-71.494h-20.404c-.98 0-1.773.795-1.773 1.775zM406.026 217.204c0-.98-.794-1.773-1.774-1.773H391.09c-.98 0-1.773.794-1.773 1.773v4.733h16.71v-4.733zM408.163 224.47H387.18c0 3.791 2.808 6.347 6.15 10.25 1.632 1.905 1.666 4.38 1.666 4.38s-4.003 1.004-4.003 3.353h13.357c0-2.349-4.002-3.354-4.002-3.354s.033-2.474 1.665-4.38c3.34-3.902 6.15-6.458 6.15-10.249M406.28 222.406h-17.218c-.98 0-1.774.795-1.774 1.774h20.765c0-.98-.794-1.774-1.773-1.774M423.523 195.263l-.493-3.393a.887.887 0 0 0-.887-.887h-1.251a.887.887 0 0 0-.887.887l-.492 3.393h1.813v-3.055a.192.192 0 0 1 .383 0v3.055h1.814zM445.298 195.263l-.493-3.393a.887.887 0 0 0-.887-.887h-1.251a.887.887 0 0 0-.887.887l-.492 3.393h1.814v-3.055a.19.19 0 1 1 .382 0v3.055h1.814z"/><path d="M445.57 195.561h-13.033v-7.887a2.33 2.33 0 0 1 2.266-2.326 2.33 2.33 0 0 1 2.267 2.326v2.786h1.877v-2.786a4.21 4.21 0 0 0-4.083-4.203h-.12a4.21 4.21 0 0 0-4.084 4.203v7.887h-11.24c-.979 0-1.774.794-1.774 1.774v2.072c0 .98.795 1.773 1.774 1.773h26.15c.98 0 1.774-.794 1.774-1.773v-2.072c0-.98-.795-1.774-1.774-1.774M526.145 79.777l-.789-.017v2.882zM494.59 71.088l-.094-.004v.348z" fill="#000"/><path d="M618.877 242.164v.132h-11.312v-14.18h8.067l.13 1.287h9.217l.13 1.286h9.216l.13 1.287h9.217l.132 1.286h6.102v9.034h-24.532v-.132h-6.497zm-17.81.545h-6.813v-1.09h.798c.979 0 1.774-.794 1.774-1.773v-16.59h-43.331v16.59c0 .979.793 1.773 1.773 1.773h.354v1.09h-4.507v-17.023c0-.832-.675-1.505-1.507-1.505h-.352c-.833 0-1.507.673-1.507 1.505v3.389h-.777v-3.252c0-.832-.674-1.507-1.506-1.507h-80.752c-.831 0-1.506.675-1.506 1.507v3.252h-.647V211.33c0-.832-.674-1.507-1.506-1.507h-.354c-.832 0-1.507.675-1.507 1.507v31.379h-1.754v-66.252h1.163c.28 0 .507-.228.507-.51v-2.46h5.434a4.19 4.19 0 0 0 4.187-4.183v-3.04a1.525 1.525 0 0 0 1.063-1.452v-.36h1.878l-1.59-8.43h-4.581l-2.342 8.43h3.483v.36c0 .68.446 1.256 1.062 1.452v3.04a3.162 3.162 0 0 1-3.16 3.159h-5.434v-2.42a.508.508 0 0 0-.507-.507h-1.163V120.734H532.884v1.5h1.025v-1.5h67.158v16.146h-2.604v59.188h2.604v46.64zm-39.153 0h26.048v-1.09h-26.048v1.09zm-99.353 0h85.188v-2.023H462.56v2.023zm-10.42 0h1.538v-86.99h-1.537v86.99zm-62.05-46.357l-.507-.045v-35.225h2.527c-.025 4.31.414 8.647.927 12.896.723 5.986 1.937 11.81 3.4 17.65.919 3.66 3.798 12.615-1.457 14.357-3.984 1.32-5.417-2.267-5.575-5.512h.178v-.676l.508-.046c1.14 0 1.278-.671 1.278-1.497v-.404c0-.826-.137-1.498-1.278-1.498zm61.026 46.357H437.43l-1.594-33.498c5.373-1.212 8.953-5.12 8.953-7.76h-24.59c0 2.64 3.582 6.548 8.955 7.76l-1.594 33.498h-41.823v-81.627h2.308v35.085l-1.42-.13v.896h-.887v2.239h.887v.893l1.42-.13v.538h.179c.107 2.843 1.067 6.51 4.172 6.892 2.188.268 4.433-.46 5.684-2.326 1.392-2.077 1.1-5.128.773-7.454-.49-3.457-1.451-6.808-2.287-10.19-.794-3.221-1.366-6.498-1.86-9.777-.815-5.407-1.484-11.008-1.424-16.536h.373v-1.69h-.34c.03-.795.084-1.587.15-2.376h.209s.39-6.138 3.852-6.372h4.21v-2.64s-2.672 0-4.252.193c-3.873.472-5.312 4.248-5.377 8.819h.184c-.066.79-.11 1.582-.14 2.376h-2.567V139.76a3.103 3.103 0 0 1 3.1-3.1h2.926c1.444 0 2.65.998 2.993 2.337l-6.325 1.453-1.28 2.145 17.513-4.026-2.088-1.37-6.323 1.453c-.5-2.021-2.316-3.53-4.49-3.53h-2.926a4.644 4.644 0 0 0-4.64 4.638v19.632h-2.307V129.317h65.205v26.403h.175v86.989zm-67.942-43.653h-1.677v-.001h-7.653V242.71H351.16v-43.654h-40.533v-45.081h.174V121.44h68.438v14.985h3.936v62.63zm-1.678 43.653h1.678v-40.882h-1.678v40.882zm-1.746 0h.72v-40.882h-.72v40.882zm-3.133 0h2.108v-40.882h-2.108v40.882zm-1.747 0h.72v-40.882h-.72v40.882zm-25.456 0h.719v-40.883h-.72v40.883zm-3.394 0h2.369v-40.883h-2.37v40.883zm-1.746 0h.72v-40.883h-.72v40.883zm-3.371 0h2.346v-40.883h-2.346v40.883zm-1.746 0h.72v-40.883h-.72v40.883zm-3.371 0h2.346v-40.883h-2.346v40.883zm-1.745 0h.72v-40.883h-.72v40.883zm-3.372 0h2.347v-40.883h-2.347v40.883zm-1.745 0h.72v-40.883h-.72v40.883zm-3.371 0h2.345v-40.883h-2.345v40.883zm-1.745 0h.72v-40.883h-.72v40.883zm-3.373 0h2.347v-40.883h-2.347v40.883zm-1.744 0h.719v-40.883h-.72v40.883zm-3.343 0h2.318v-40.883h-2.318v40.883zm-1.745 0h.719v-40.883h-.72v40.883zm-2.977 0h1.952v-40.883h-1.952v40.883zm75.11-121.975h46.246v1.5h1.025v-1.5h17.934v7.557h-65.205v-7.557zm0-1.026h46.246v-5.818h-46.246v5.818zm47.27 0h17.935v-5.818h-17.934v5.818zm24.433 0h9.195v-5.818h-9.195v5.818zm10.22 0h5.332v-2.977h-5.331v2.977zm0-4.001h5.332v-1.303h-5.331v1.303zm6.357 4h58.867v-5.817h-58.867v5.818zM404.913 65.83L526.395 99.44H404.913V65.829zm128.996 48.06h44.71l21.029 5.819h-65.74v-5.818zm74.467 24.786v1.7h-2.785v52.198h2.785v1.7h-8.118v-55.598h8.118zm17.082 104.646h25.474v-10.06h2.732v-14.234h-9.346v-1.286h-9.347v-1.285h-9.346v-1.287h-9.347v-1.286h-8.713v-17.815h2.606V136.88h-2.606v-9.851h18.54l26.556 7.347v-5.933l1.3.36v-10.495l.025.007.854-3.098-10.81-.222.704-2.56-12.048-.564.705-2.56-10.81-.222.705-2.561-12.05-.564.706-2.56-10.81-.222.705-2.56-12.05-.564.706-2.561-10.81-.221.705-2.561-11.312-.53v4.709l-1.283-.363v-6.965l-1.29-.027v6.627l-1.282-.363v-6.291l-1.29-.026v5.952l-1.283-.363v-5.616l-1.287-.026v5.278l-1.283-.363v-4.942l-1.29-.027v4.604l-1.282-.363v-6.88l-1.288-.06v6.575h-.001l-1.283-.363V88.62l-1.288-.061v5.967l-1.284-.363V88.5l-1.29-.06v5.359l-1.282-.364V88.38l-1.287-.06v4.75h-.001l-1.283-.362V88.26l-.33-.015-.103.376.433-1.573v-1.371l-1.288-.027v6.693h-.001l-1.283-.364v-6.356l-1.29-.026v6.018l-1.283-.364V85.57l-1.288-.026v5.343l-1.283-.363v-5.006l-1.287-.027v4.669l-1.283-.364v-4.332l-.15-.003.15-.537v-2.048l-1.29-.06v6.616l-1.283-.364v-6.312l-1.29-.061v6.008l-1.282-.363v-5.705l-1.288-.06v5.4l-1.283-.363v-5.097l-1.29-.06v4.792l-1.282-.363v-4.49l-1.205-.056-.084.305v3.876l-1.284-.363v-6.421l-1.29-.027v6.083l-1.282-.363v-5.746l-1.287-.027v5.408l-1.283-.362v-5.072l-1.288-.027v4.734l-1.284-.363v-4.397l-1.023-.021.705-2.56-.97-.046v6.659l-1.283-.363v-6.356l-1.29-.06v6.05l-1.282-.362v-5.75l-1.29-.06v5.445l-1.282-.363v-5.141l-1.288-.06v4.836l-1.284-.363v-4.533l-1.29-.061v4.229l-1.282-.363v-6.487l-1.288-.027v6.149l-1.283-.363v-5.812l-1.29-.026v5.473l-1.282-.363V73.74l-1.29-.026v4.798l-1.282-.363v-4.462l-1.288-.026v4.123l-1.283-.363v-6.397l-1.288-.061v6.094l-.001-.001-1.283-.363v-5.79l-1.29-.06v5.485l-1.283-.363v-5.182l-1.288-.06V75.6l-1.283-.364v-4.574l-1.29-.061v4.27l-1.282-.363v-3.967l-.383-.018.383-1.39v-1.176l-1.288-.027v6.213l-1.283-.363v-5.876l-1.29-.027v5.539l-1.282-.363v-5.202l-1.29-.027v4.863l-1.282-.363v-4.526l-1.29-.027v4.189l-1.282-.363v-3.852l-.201-.004.2-.73v-1.854l-11.544-.541-.07.249.775-2.81-10.81-.222.704-2.56-12.048-.563-.06.216.765-2.776-10.81-.223.704-2.56-12.05-.564.706-2.56-10.81-.223.705-2.56-12.048-.563.704-2.56-10.81-.223.705-2.56-12.05-.564.706-2.56-10.81-.223.705-2.561-12.05-.563.706-2.56-10.81-.222.705-2.56-12.05-.565.705-2.56-10.81-.223.706-2.56-12.05-.564-.006.025.712-2.585-3.59-.073v12.358l343.572 95.164v4.87l-343.571-95.06v1.064l95.822 26.512V99.44h-27.361v5.34h2.027v2.224H310.8v-2.223h2.026V99.44h-4.762v54.6h1.536v88.668h-1.536v10.67h317.393v-10.058zM468.41 30.945h99.566v6.248h1.283v-7.53H467.128v7.53h1.283zM468.41 44.724v-6.247h99.566v.814a1.56 1.56 0 0 1 1.1 1.485h.183v-3.582H467.128v8.813h5.51v-1.283h-4.227z" fill="#000"/><path d="M472.638 67.746v3.852l1.283.363V40.776a.28.28 0 0 1 .28-.28h.73a.28.28 0 0 1 .278.28c0-.516.255-.971.642-1.256a1.546 1.546 0 0 0-.92-.307h-.73c-.862 0-1.563.7-1.563 1.563v26.97z" fill="#000"/><path d="M476.772 40.496h.729a.28.28 0 0 1 .28.28c0-.517.256-.972.642-1.257a1.553 1.553 0 0 0-.922-.306h-.73c-.344 0-.661.116-.92.306-.387.285-.641.74-.641 1.256v31.55l1.283.363V40.775a.28.28 0 0 1 .279-.279" fill="#000"/><path d="M479.345 40.496h.729a.28.28 0 0 1 .28.28c0-.517.254-.972.64-1.257a1.552 1.552 0 0 0-.92-.306h-.73a1.55 1.55 0 0 0-.92.306c-.387.285-.642.74-.642 1.256v32.278l1.284.363V40.775a.28.28 0 0 1 .279-.279" fill="#000"/><path d="M481.916 40.496h.729a.28.28 0 0 1 .28.28c0-.517.254-.972.641-1.257a1.552 1.552 0 0 0-.921-.306h-.729a1.55 1.55 0 0 0-.921.306c-.388.285-.641.74-.641 1.256v33.006l1.283.363V40.775a.28.28 0 0 1 .279-.279" fill="#000"/><path d="M484.487 40.496h.73a.28.28 0 0 1 .28.28c0-.517.254-.972.64-1.257a1.548 1.548 0 0 0-.92-.306h-.73a1.55 1.55 0 0 0-.92.306c-.389.285-.642.74-.642 1.256V74.51l1.283.363V40.775a.28.28 0 0 1 .28-.279" fill="#000"/><path d="M487.06 40.496h.728a.28.28 0 0 1 .28.28c0-.517.254-.972.641-1.257a1.552 1.552 0 0 0-.92-.306h-.73c-.346 0-.662.116-.922.306-.387.285-.64.74-.64 1.256v34.462l1.283.363V40.775a.28.28 0 0 1 .28-.279M491.924 40.773v36.283-36.28-.002" fill="#000"/><path d="M489.63 40.496h.73a.28.28 0 0 1 .28.277c.002-.515.256-.969.642-1.254a1.55 1.55 0 0 0-.921-.306h-.73a1.55 1.55 0 0 0-.921.306c-.388.285-.641.74-.641 1.256v35.189l1.283.364V40.775a.28.28 0 0 1 .279-.279" fill="#000"/><path d="M491.924 40.773a.28.28 0 0 1 .279-.277h.73a.28.28 0 0 1 .28.28c0-.517.254-.972.642-1.257a1.558 1.558 0 0 0-.921-.307h-.731c-.345 0-.662.117-.921.307-.386.284-.64.738-.641 1.254v35.919l1.283.364V40.772z" fill="#000"/><path d="M494.496 71.084V40.775a.28.28 0 0 1 .279-.278h.73a.28.28 0 0 1 .279.278c0-.516.254-.97.642-1.256a1.555 1.555 0 0 0-.921-.307h-.73c-.345 0-.662.117-.921.307-.387.285-.641.74-.641 1.256V77.42l1.283.363V71.083z" fill="#000"/><path d="M497.347 40.496h.729a.28.28 0 0 1 .28.28c0-.517.254-.972.64-1.257a1.552 1.552 0 0 0-.92-.306h-.73a1.55 1.55 0 0 0-.92.306c-.388.285-.641.74-.641 1.256v37.373l1.283.364V40.775a.28.28 0 0 1 .279-.279" fill="#000"/><path d="M499.919 40.496h.729a.28.28 0 0 1 .28.28c0-.517.254-.972.64-1.257a1.552 1.552 0 0 0-.92-.306h-.73c-.345 0-.662.116-.921.306-.388.285-.641.74-.641 1.256V78.876l1.283.364V40.776a.28.28 0 0 1 .28-.28" fill="#000"/><path d="M502.49 40.496h.73a.28.28 0 0 1 .28.28c0-.517.253-.972.64-1.257a1.552 1.552 0 0 0-.92-.306h-.73a1.55 1.55 0 0 0-.92.306c-.389.285-.642.74-.642 1.256v38.829l1.283.364V40.775a.28.28 0 0 1 .28-.279" fill="#000"/><path d="M505.062 40.496h.729a.28.28 0 0 1 .28.28c0-.517.255-.972.64-1.257a1.548 1.548 0 0 0-.92-.306h-.73a1.55 1.55 0 0 0-.92.306c-.388.285-.641.74-.641 1.256v39.557l1.282.363v-39.92a.28.28 0 0 1 .28-.279" fill="#000"/><path d="M507.633 40.496h.73a.28.28 0 0 1 .28.28c0-.517.254-.972.64-1.257a1.552 1.552 0 0 0-.92-.306h-.73c-.346 0-.661.116-.921.306-.387.285-.641.74-.641 1.256V81.06l1.284.363V40.775c0-.154.125-.279.278-.279" fill="#000"/><path d="M510.205 40.496h.73a.28.28 0 0 1 .28.28c0-.517.254-.972.641-1.257a1.552 1.552 0 0 0-.921-.306h-.73a1.55 1.55 0 0 0-.921.306c-.388.285-.641.74-.641 1.256v41.013l1.283.363V40.775a.28.28 0 0 1 .279-.279" fill="#000"/><path d="M512.777 40.496h.73a.28.28 0 0 1 .28.28c0-.517.254-.97.64-1.256a1.544 1.544 0 0 0-.92-.307h-.73a1.55 1.55 0 0 0-.92.306c-.389.285-.642.74-.642 1.256v41.741l1.283.363V40.775a.28.28 0 0 1 .28-.279" fill="#000"/><path d="M515.349 40.496h.729a.28.28 0 0 1 .28.28c0-.517.255-.972.64-1.257a1.548 1.548 0 0 0-.92-.306h-.73c-.345 0-.661.116-.92.307a1.556 1.556 0 0 0-.641 1.255V83.244l1.284.363V40.775c0-.154.125-.279.278-.279" fill="#000"/><path d="M517.92 40.496h.729a.28.28 0 0 1 .28.28c0-.517.255-.972.642-1.257a1.553 1.553 0 0 0-.922-.306h-.73c-.345 0-.66.116-.92.306-.387.285-.641.74-.641 1.256V83.972l1.284.363V40.775c0-.154.125-.279.278-.279" fill="#000"/><path d="M520.492 40.496h.73a.28.28 0 0 1 .278.28c0-.517.255-.97.641-1.256a1.541 1.541 0 0 0-.92-.307h-.729a1.55 1.55 0 0 0-.92.306c-.389.285-.642.74-.642 1.256V84.7l1.283.363V40.775a.28.28 0 0 1 .28-.279" fill="#000"/><path d="M523.064 40.496h.73c.153 0 .277.124.278.277.001-.515.255-.969.641-1.254a1.547 1.547 0 0 0-.92-.306h-.729a1.55 1.55 0 0 0-.923.307 1.556 1.556 0 0 0-.64 1.255v44.653l1.282.362V40.775a.28.28 0 0 1 .281-.279M525.356 79.76V40.775 86.519 79.76z" fill="#000"/><path d="M525.356 40.773a.279.279 0 0 1 .28-.277h.73c.153 0 .278.125.278.28 0-.517.254-.972.642-1.257a1.552 1.552 0 0 0-.92-.307h-.73c-.346 0-.663.117-.923.307-.386.284-.64.738-.64 1.254V86.156l1.282.364V40.775l.001-.002" fill="#000"/><path d="M528.207 40.496h.73a.28.28 0 0 1 .28.28c0-.517.255-.972.641-1.257a1.552 1.552 0 0 0-.921-.306h-.73a1.55 1.55 0 0 0-.921.306c-.388.285-.641.74-.641 1.256v46.11l1.283.362V40.775a.28.28 0 0 1 .279-.279" fill="#000"/><path d="M530.778 40.496h.73a.28.28 0 0 1 .28.28c0-.517.254-.972.641-1.257a1.55 1.55 0 0 0-.92-.306h-.73c-.347 0-.662.116-.92.306-.388.285-.643.74-.643 1.256v46.837l1.284.363V40.775c0-.154.125-.279.278-.279" fill="#000"/><path d="M533.35 40.496h.73a.28.28 0 0 1 .28.28c0-.517.254-.972.641-1.257a1.55 1.55 0 0 0-.92-.306h-.73a1.55 1.55 0 0 0-.922.306c-.387.285-.64.74-.64 1.256V88.34l1.282.364V40.775a.28.28 0 0 1 .28-.279" fill="#000"/><path d="M535.923 40.496h.729a.28.28 0 0 1 .28.28c0-.517.255-.972.642-1.257a1.553 1.553 0 0 0-.922-.306h-.73a1.55 1.55 0 0 0-.92.306c-.388.285-.641.74-.641 1.256v48.293l1.283.363V40.775a.28.28 0 0 1 .279-.279" fill="#000"/><path d="M538.495 40.496h.73a.28.28 0 0 1 .278.28c0-.517.254-.972.641-1.257a1.547 1.547 0 0 0-.92-.306h-.729a1.55 1.55 0 0 0-.92.306c-.389.285-.642.74-.642 1.256v49.021l1.283.363V40.775a.28.28 0 0 1 .28-.279" fill="#000"/><path d="M541.066 40.496h.73c.153 0 .277.124.278.277.001-.515.255-.969.641-1.254a1.547 1.547 0 0 0-.92-.306h-.729c-.346 0-.663.116-.922.306-.388.285-.64.74-.64 1.256v49.748l1.282.364V40.775a.28.28 0 0 1 .28-.279M543.358 40.773V91.615 40.772zM545.93 40.773v51.57V40.772z" fill="#000"/><path d="M543.358 40.773a.279.279 0 0 1 .28-.277h.73c.153 0 .277.124.278.277.001-.516.255-.97.642-1.254a1.552 1.552 0 0 0-.92-.307h-.73c-.346 0-.663.117-.923.307-.386.284-.64.738-.64 1.254v50.478l1.282.363V40.775l.001-.002M548.503 40.773l-.001.002V93.07 40.773z" fill="#000"/><path d="M545.93 40.773a.279.279 0 0 1 .28-.277h.73c.154 0 .278.124.279.277 0-.516.255-.97.642-1.254a1.552 1.552 0 0 0-.92-.307h-.731c-.345 0-.662.117-.922.307-.386.284-.64.738-.641 1.254V91.98l1.283.364V40.775v-.002" fill="#000"/><path d="M548.503 40.773a.278.278 0 0 1 .278-.277h.73a.28.28 0 0 1 .279.28c0-.517.254-.972.642-1.257a1.553 1.553 0 0 0-.921-.307h-.73c-.345 0-.662.117-.921.307-.386.284-.64.738-.641 1.254V92.708l1.283.364V40.774v-.002" fill="#000"/><path d="M551.353 40.496h.73a.28.28 0 0 1 .28.28c0-.517.253-.972.64-1.257a1.55 1.55 0 0 0-.92-.306h-.73c-.346 0-.663.116-.922.306-.388.285-.64.74-.64 1.256v52.66l1.282.363V40.775a.28.28 0 0 1 .28-.279" fill="#000"/><path d="M553.925 40.496h.729a.28.28 0 0 1 .28.277c0-.515.255-.969.64-1.254a1.55 1.55 0 0 0-.92-.306h-.73a1.55 1.55 0 0 0-.92.306c-.388.285-.641.74-.641 1.256V94.163l1.283.363V40.775a.28.28 0 0 1 .279-.279M556.218 40.773l-.001.002v54.48V40.772z" fill="#000"/><path d="M556.218 40.773a.279.279 0 0 1 .279-.277h.73a.28.28 0 0 1 .279.28c0-.517.255-.972.642-1.257a1.555 1.555 0 0 0-.921-.307h-.73c-.345 0-.662.117-.922.307a1.56 1.56 0 0 0-.641 1.254v54.118l1.283.363V40.775v-.002" fill="#000"/><path d="M558.789 88.8V40.775a.28.28 0 0 1 .279-.279h.731a.28.28 0 0 1 .279.28c0-.517.255-.972.642-1.257a1.557 1.557 0 0 0-.921-.306h-.731c-.345 0-.662.116-.921.306a1.56 1.56 0 0 0-.641 1.256V95.62l1.283.362v-7.181z" fill="#000"/><path d="M561.64 40.496h.73a.28.28 0 0 1 .279.28c0-.517.255-.972.64-1.257a1.547 1.547 0 0 0-.92-.306h-.73c-.345 0-.66.116-.92.306-.386.285-.641.74-.641 1.256v55.572l1.284.363V40.775c0-.154.125-.279.278-.279" fill="#000"/><path d="M564.21 40.496h.73a.28.28 0 0 1 .28.28c0-.517.256-.972.642-1.257a1.552 1.552 0 0 0-.921-.306h-.73a1.55 1.55 0 0 0-.921.306c-.387.285-.641.74-.641 1.256v56.3l1.283.363V40.775a.28.28 0 0 1 .279-.279" fill="#000"/><path d="M567.976 39.29a1.543 1.543 0 0 0-.462-.077h-.73a1.55 1.55 0 0 0-.921.307c-.388.285-.643.74-.643 1.256V97.802l1.283.364v-57.39a.28.28 0 0 1 .28-.28h.73a.28.28 0 0 1 .28.28V98.53l1.283.364v-58.12c0-.7-.466-1.286-1.1-1.484M308.169 97.628h2.764V86.642h-2.868v11.98h.104zM308.065 85.398h2.868V40.002h-2.868zM558.79 89.352l.148-.544-.149-.008z" fill="#000"/><path d="M308.064 154.041v88.667"/><path d="M500.478 194.272h23.533v-53.833h-23.533v53.833zm25.28 0h23.534v-53.833h-23.534v53.833zm-27.941 2.66h54.136v-59.154h-54.136v59.154zM315.751 194.272h28.202v-53.833h-28.202v53.833zm29.948 0H373.9v-53.833h-28.201v53.833zm-32.608 2.66h63.47v-59.154h-63.47v59.154zM419.943 171.162h25.148v-30.723h-25.148v30.723zm-2.661 2.661h30.47v-36.045h-30.47v36.045zM475.163 164.452l-3.29-8.43h-.56l2.978 8.43zM473.272 164.452l-2.341-8.43h-.466l2.214 8.43zM461.272 164.452h.87l2.975-8.43h-.556z" fill="#000"/><g><path d="M500.186 125.052v.734M499.677 126.974l-.334-.542M501.12 126.43l-.316.515" stroke="#FF9015" stroke-width=".259"/><path d="M500.231 128.092a1.854 1.854 0 0 1-1.854-1.853 1.853 1.853 0 1 1 1.854 1.853m-2.459-1.866v4.488h4.918v-4.488a2.459 2.459 0 0 0-4.918 0z" fill="#FF9015"/><path d="M502.364 130.278v5.803" stroke="#FF9015" stroke-width=".259"/><path d="M502.608 136.065a.24.24 0 1 1-.48.002.24.24 0 0 1 .48-.002M372.42 239.705c0 .77-.625 1.392-1.393 1.392h-2.013a1.392 1.392 0 0 1-1.392-1.392v-2.013c0-.768.624-1.391 1.392-1.391h2.013c.769 0 1.393.623 1.393 1.39v2.014z" fill="#FF9015"/><g fill="#FF9015"><path d="M613.638 129.013h1.1v-.947h-1.1z"/><path d="M625.577 132.991h-10.819l-.529-4.508.004-.98H626.1l-.037 1.177zM613.282 139.984c0 .15-.096.27-.212.27-.117 0-.212-.12-.212-.27l-.208-11.424c0-.387.19-.7.42-.7.232 0 .42.313.42.7l-.208 11.424zM617.027 139.832c.175-.301.22-.978.27-1.695.126-1.875.3-3.56 2.87-3.56 2.568 0 2.742 1.685 2.869 3.56.049.717.095 1.394.269 1.695.06.102.334.435 1.38.435l.002.012v-6.843h-9.043v6.83c1.049 0 1.323-.332 1.383-.434"/><path d="M620.088 138.424c.924 0 1.672.76 1.672 1.697 0 .387-.129.743-.344 1.029 1.211-.088 2.27-.305 3.031-.602-.981 0-1.367-.298-1.496-.52-.643-1.11.386-4.823-2.785-4.823-3.173 0-2.142 3.714-2.786 4.823-.129.222-.515.52-1.499.52.721.288 1.723.492 2.868.586a1.694 1.694 0 0 1-.333-1.013c0-.936.748-1.697 1.672-1.697"/><path d="M620.084 141.386a.867.867 0 0 1-.86-.875c0-.483.383-.875.86-.875.476 0 .861.392.861.875a.868.868 0 0 1-.86.875m0-2.628c-.814 0-1.475.67-1.475 1.496s.661 1.496 1.474 1.496c.814 0 1.474-.67 1.474-1.496s-.66-1.496-1.474-1.496"/></g><path d="M386.85 237.916c0-.273.222-.494.494-.494h.796c.272 0 .493.22.493.494v2.885a.494.494 0 0 1-.493.494h-.796a.494.494 0 0 1-.493-.494v-2.885zM389.088 242.742h.601v-.454h-.601z" fill="#FF9015"/><path d="M387.741 237.906v-.645a.824.824 0 0 1 1.646 0v5.075M389.23 242.64v.237M389.535 242.64v.237" stroke="#FF9015" stroke-width=".259"/><g fill="#FF9015"><path d="M315.07 123.047h11.987v-1.177H315.07zM314.634 125.583h13.172v-2.28h-13.172zM327.806 125.808c0 .753-2.95 1.365-6.586 1.365-3.638 0-6.586-.612-6.586-1.365"/></g><g><path d="M431.478 97.398a.36.36 0 0 1-.36.36h-7.868a.358.358 0 0 1-.357-.36v-7.867c0-.199.16-.36.357-.36h7.868a.36.36 0 0 1 .36.36v7.867z" fill="#FF9015"/><path d="M427.185 97.757v1.316" fill="#050000"/><path d="M427.185 97.757v1.316" stroke="#FF9015" stroke-width=".392" stroke-linecap="round" stroke-linejoin="round"/><path d="M422.893 99.074h8.585" fill="#050000"/><path d="M422.893 99.074h8.585" stroke="#FF9015" stroke-width=".392" stroke-linecap="round" stroke-linejoin="round"/><path d="M430.205 93.465a3.019 3.019 0 0 1-3.021 3.018 3.02 3.02 0 1 1 3.021-3.019z" stroke="#FFF" stroke-width=".392" stroke-linecap="round" stroke-linejoin="round"/><path d="M429.113 93.465a1.928 1.928 0 1 1-3.856.002 1.928 1.928 0 0 1 3.856-.002z" stroke="#FFF" stroke-width=".392" stroke-linecap="round" stroke-linejoin="round"/></g><g><path d="M594.016 148.703a.359.359 0 0 1-.36.359h-7.868a.358.358 0 0 1-.357-.36v-7.866c0-.2.16-.36.357-.36h7.868c.199 0 .36.16.36.36v7.867z" fill="#FF9015"/><path d="M589.723 149.062v1.316" fill="#050000"/><path d="M589.723 149.062v1.316" stroke="#FF9015" stroke-width=".392" stroke-linecap="round" stroke-linejoin="round"/><path d="M585.43 150.379h8.586" fill="#050000"/><path d="M585.43 150.379h8.586" stroke="#FF9015" stroke-width=".392" stroke-linecap="round" stroke-linejoin="round"/><path d="M592.742 144.77a3.02 3.02 0 1 1-6.04-.001 3.02 3.02 0 0 1 6.04 0z" stroke="#FFF" stroke-width=".392" stroke-linecap="round" stroke-linejoin="round"/><path d="M591.652 144.77a1.929 1.929 0 1 1-3.859.001 1.929 1.929 0 0 1 3.859-.002z" stroke="#FFF" stroke-width=".392" stroke-linecap="round" stroke-linejoin="round"/></g><g><path d="M531.734 141.381l-.01.01M531.563 140.986h.004" fill="#050000"/><path d="M531.734 141.381a.232.232 0 0 0-.165-.395h-5.088a.295.295 0 0 0-.296.293v5.045c0 .206.252.31.399.164l.009-.008 5.14-5.099z" fill="#FF9015"/><path d="M531.033 141.332l-.008.008M530.884 140.986h.004M526.185 145.647v.004c0 .18.22.27.349.143l.007-.006 4.493-4.456c.129-.127.037-.345-.145-.345" fill="#FFF"/></g><g><path d="M351.634 141.381l-.008.01M351.464 140.986h.004" fill="#E68531"/><path d="M351.634 141.381a.231.231 0 0 0-.165-.395h-5.088a.294.294 0 0 0-.295.293v5.045c0 .206.252.31.398.164l.01-.008 5.14-5.099z" fill="#FF9015"/><path d="M350.935 141.332l-.008.008M350.786 140.986h.003M346.086 145.647v.004c0 .18.22.27.348.143l.008-.006 4.493-4.456a.202.202 0 0 0-.144-.345" fill="#FFF"/></g><g><path d="M596.809 128.778a2.193 2.193 0 0 1-2.193 2.194h-3.745a2.194 2.194 0 0 1-2.195-2.194v-3.745c0-1.212.983-2.194 2.195-2.194h3.745c1.21 0 2.193.982 2.193 2.194v3.745z" fill="#FF9015"/><path d="M595.863 126.906a3.12 3.12 0 1 1-6.24 0 3.12 3.12 0 0 1 6.24 0z" stroke="#FFF" stroke-width=".335"/></g><g><path d="M314.967 77.818v-.741M314.582 78.922l-.53-.523M315.293 78.922l.59-.457" stroke="#FF9015" stroke-width=".259" stroke-linecap="round" stroke-linejoin="round"/><path d="M314.967 79.856a1.868 1.868 0 0 1-1.88-1.856c0-1.025.842-1.856 1.88-1.856 1.039 0 1.88.83 1.88 1.856a1.868 1.868 0 0 1-1.88 1.856M317.279 75h-4.624a.728.728 0 0 0-.728.728v4.545c0 .4.326.727.728.727h4.624a.728.728 0 0 0 .728-.727v-4.545a.728.728 0 0 0-.728-.728" fill="#FF9015"/></g></g><g fill="#000"><path d="M584.205 334.123c-.22.235-.365.536-.409.87h-1.684c.048-.39.289-.721.643-.87h1.45zm2.66 0v.87h-2.535a1.08 1.08 0 0 1 1.03-.87h1.505zm3.101.87h-2.553v-.87h1.912c.353.149.594.48.641.87zm2.2 0h-1.674a1.564 1.564 0 0 0-.349-.87h1.381c.353.149.595.48.642.87zm11.854-.87a1.582 1.582 0 0 0-.41.87h-1.683c.048-.39.289-.721.642-.87h1.451zm2.66 0v.87h-2.535c.1-.485.51-.855 1.03-.87h1.505zm3.101.87h-2.554v-.87h1.913c.352.149.594.48.641.87zm2.199 0h-1.672a1.579 1.579 0 0 0-.349-.87h1.38c.352.149.595.48.641.87zm-74.599 46.542v-38.206h.625v-3.858h-4.172v-1.068h-22.942v1.068h-4.17v3.858h.624v38.206h-1.841l.506-.045-2.744-31.198h1.147c.283 0 .513-.23.513-.513a.509.509 0 0 0-.18-.382 1.405 1.405 0 0 0-1.349-1.022h-8.876c-.586 0-1.088.358-1.299.867-.763-.06-1.201-.467-1.372-1.336l-1.018-5.186a.512.512 0 1 0-1.006.197l1.019 5.187c.278 1.412 1.186 2.188 2.556 2.188h.291l-3.137 31.19.505.053h-55.018l-1.139-16.868.274.018a.887.887 0 1 0 .097-1.771l-.366-.025 3.195-18.738h-.413a.444.444 0 0 0-.356-.516l-.703-.105a.444.444 0 0 0-.517.356l-1.721 9.288a.443.443 0 0 0 .355.516l.705.105h.001l-2.083 8.989-1.479-.1V350.03h.889a.444.444 0 0 0 .443-.444v-1.131a.444.444 0 0 0-.443-.443H421.68v-3.491a.886.886 0 0 0-.886-.886h-12.461a.887.887 0 0 0-.887.886v3.49h-10.295a.444.444 0 0 0-.445.444v1.13c0 .246.199.445.445.445h.887v12.597l-2.284.156-2.084-8.99h.003l.703-.104a.444.444 0 0 0 .356-.516l-1.72-9.288a.445.445 0 0 0-.518-.356l-.703.105a.444.444 0 0 0-.356.516h-.413l3.195 18.738-.366.025a.887.887 0 0 0 .097 1.77l.275-.017-1.139 16.868h-7.522V269.328h195.001l.566 9.453h37.748v56.212h-6.37a1.596 1.596 0 0 0-1.013-1.36v-.204h-9.081v.205c-.561.218-.963.74-1.012 1.359h-8.709a1.595 1.595 0 0 0-1.013-1.36v-.204H582.6v.204a1.596 1.596 0 0 0-1.013 1.36h-34.668v-7.938a2.328 2.328 0 0 1 2.265-2.327 2.33 2.33 0 0 1 2.266 2.327v2.787h1.878v-2.787a4.209 4.209 0 0 0-4.084-4.203l-.12-.001a4.209 4.209 0 0 0-4.084 4.204v7.938h-35.492v2.838h109.329V381.535h-81.496zm-1.689 0h.663v-38.206h-.663v38.206zm-1.025 0H510.06v-38.206h.832v4.684h22.942v-4.684h.833v38.206zm-26.296 0h.664v-38.206h-.664v38.206zm-15.938-8.451l2.292-22.792h7.512l2.004 22.792h-11.808zm-.851 8.45l.747-7.425h12.003l.653 7.426h-13.403zm-59.689-4.971V364.46l1.454.099 1.283 12.003h-2.737zm0 4.972v-3.946h2.846l.422 3.946h-3.268zm-1.025-18.922l-1.05-.071v-10.373h-8.138v-2.138h9.188v12.582zm0 13.95h-1.05v-12.244l1.05.073v12.17zm-1.05 4.459h1.05v-3.434h-1.05v3.434zm-1.026-18.55l-4.714-.322a.888.888 0 0 0-.097 1.772l.42.028-1.188 17.585h-2.083l-.765-16.808h1.163c.49 0 .888-.396.888-.886v-.804a.888.888 0 0 0-.888-.887h-1.195v-8.181h.461c.449 0 .805-.34.863-.775h7.135v9.278zm0 14.09h-4.166l1.337-12.505 2.829.193v12.313zm0 4.973h-4.697l.422-3.946h4.275v3.946zm-18.404-19.384h8.351v-8.182h-8.351v8.182zm8.417 2.576l1.075 11.836h-10.634l1.076-11.836h8.483zm-10.011 16.808l.359-3.946h10.821l.358 3.946h-11.538zm-.797 0h-2.084l-1.187-17.585.42-.028a.888.888 0 0 0-.098-1.772l-3.908.267v-9.223h6.329a.878.878 0 0 0 .864.775h.461v8.18h-1.196a.888.888 0 0 0-.888.888v.804c0 .49.398.886.888.886h1.163l-.764 16.808zm-6.857 0v-3.946h3.47l.421 3.946h-3.891zm0-17.34l2.023-.138 1.337 12.506h-3.36v-12.368zm-1.025-1.71l-1.051.074V350.03h8.382v2.138h-7.331v10.317zm0 14.078h-1.051v-12.226l1.051-.072v12.298zm-1.051 4.459h1.051v-3.434h-1.051v3.434zm-1.026-4.46h-3.541l1.282-12.002 2.259-.154v12.157zm0 4.973h-4.073l.422-3.946h3.651v3.946zm-17.005 0h3.504v-120.05h-3.504v120.05zm-1.026-67.505h-4.262v-1.388h2.9v-1.938h-2.9v-2.344h2.9v-1.936h-2.9v-2.344h2.9v-1.937h-2.9v-2.344h2.9v-1.937h-2.9v-2.343h2.9v-1.938h-2.9v-2.344h2.9V289.3h-2.9v-2.344h2.9v-1.938h-2.9v-2.342h2.9v-1.938h-2.9v-2.344h2.9v-1.937h-2.9v-2.344h2.9v-1.936h-2.9v-2.344h2.9v-1.938h-2.9v-2.343h2.9v-1.937h-2.9v-2.131h4.262v52.545zm0 67.505h-38.122v-3.48h4.91v-4.764h-4.91v-3.003h2.901v-1.937h-2.901v-2.343h2.901v-1.938h-2.901v-2.343h2.901v-1.937h-2.901v-2.344h2.901v-1.936h-2.901v-2.345h2.901v-1.938h-2.901v-2.343h2.901v-1.937h-2.901v-2.344h2.901v-1.936h-2.901v-2.344h2.901v-1.937h-2.901v-2.344h2.901v-1.938h-2.901v-2.342h2.901v-1.938h-2.901v-2.345h2.901v-1.935h-2.901v-2.345h2.901v-1.936h-2.901v-2.47h38.122v62.742zm-62.497-60.272h21.604v-2.47H317.51v2.47zm0 4.28h21.604V323.2H317.51v2.345zm0 4.28h21.604v-2.344H317.51v2.345zm0 4.28h21.604v-2.342H317.51v2.343zm0 4.283h21.604v-2.344H317.51v2.344zm0 4.28h21.604v-2.343H317.51v2.344zm0 4.28h21.604v-2.343H317.51v2.344zm0 4.28h21.604v-2.343H317.51v2.344zm0 4.284h21.604v-2.345H317.51v2.345zm0 4.28h21.604v-2.344H317.51v2.344zm0 4.28h21.604v-2.344H317.51v2.344zm0 4.28h21.604v-2.342H317.51v2.343zm0 4.94h21.604v-3.002H317.51v3.003zm0 8.245h21.604v-3.48H317.51v3.48zm-2.77-60.272h-2.901v1.936h2.901v2.345h-2.901v1.935h2.901v2.345h-2.901v1.938h2.901v2.342h-2.901v1.938h2.901v2.344h-2.901v1.937h2.901v2.344h-2.901v1.936h2.901v2.344h-2.901v1.937h2.901v2.343h-2.901v1.938h2.901v2.345h-2.901v1.936h2.901v2.344h-2.901v1.937h2.901v2.343h-2.901v1.938h2.901v2.343h-2.901v1.937h2.901v3.003h-4.114v-54.497h4.114v2.469zm-4.113 60.272h4.113v-3.48h-4.113v3.48zm-.001-79.05h.175v-41h37.798v2.13h-2.9v1.938h2.9v2.343h-2.9v1.938h2.9v2.344h-2.9v1.936h2.9v2.344h-2.9v1.937h2.9v2.344h-2.9v1.938h2.9v2.342h-2.9v1.938h2.9v2.344h-2.9v1.936h2.9v2.344h-2.9v1.938h2.9v2.343h-2.9v1.937h2.9v2.344h-2.9v1.937h2.9v2.344h-2.9v1.936h2.9v2.344h-2.9v1.938h2.9v1.388h-37.973v-11.545zm40.744 11.546h21.604v-1.39H351.37v1.39zm0-3.327h21.604v-2.344H351.37v2.344zm0-4.28h21.604v-2.344H351.37v2.344zm0-4.281h21.604v-2.344H351.37v2.344zm0-4.28h21.604v-2.344H351.37v2.344zm0-4.282h21.604v-2.344H351.37v2.344zm0-4.28h21.604v-2.344H351.37v2.344zm0-4.281h21.604v-2.343H351.37v2.343zm0-4.281h21.604v-2.344H351.37v2.344zm0-4.281h21.604v-2.344H351.37v2.344zm0-4.28h21.604v-2.344H351.37v2.344zm0-4.281h21.604v-2.344H351.37v2.344zm0-4.281h21.604v-2.131H351.37v2.13zm34.192 4.199h28.722v-6.33h-28.722v6.33zm29.748-6.33h164.784l.379 6.33H415.31v-6.33zm203.567 0v9.658h-34.334l-2.534 5.157-.888-14.815h37.756zm0 16.27h-36.442l2.747-5.587h33.695v5.588zm0 120.792h-3.476V408.6h13.448v-10.054h-3.475V261.485h.084v-8.105H308.064v49.105h1.537v79.05h-1.537v12.22h310.813v4.792z"/><path d="M390.391 332.589h23.535V296.39h-23.535v36.199zm0-37.944h48.815v-15.888h-48.815v15.888zm25.28 37.944h23.535V296.39h-23.535v36.199zm-27.941 2.662h54.136v-59.155H387.73v59.155zM519.509 351.813h5.709v-1.069h-5.709v1.069zm-8.616 6.96h22.941v-9.61h-22.941v9.61zM519.509 362.572h5.709v-1.069h-5.709v1.069zm-8.616 6.961h22.941v-9.61h-22.941v9.61zM519.509 373.333h5.709v-1.069h-5.709v1.069zm-8.616 7.543h22.941v-10.193h-22.941v10.193zM536.523 330.364h-1.25a.886.886 0 0 0-.888.887l-.493 3.392h1.815v-3.054c0-.106.085-.192.191-.192.105 0 .19.086.19.192v3.054h1.815l-.492-3.392a.887.887 0 0 0-.888-.887M558.299 330.364h-1.252a.887.887 0 0 0-.887.887l-.492 3.392h1.814v-3.054a.191.191 0 1 1 .382 0v3.054h1.814l-.492-3.392a.887.887 0 0 0-.887-.887M555.038 345.672h1.07v-5.71h-1.07v5.71zm-16.36 35.204h18.819v-42.473h-18.819v42.473zM559.654 345.672h1.07v-5.709h-1.07v5.709zm-1.388 35.204h18.819v-42.473h-18.819v42.473zM483.017 332.227H472.1V320.03c0-.98.794-1.775 1.774-1.775h1.304v1.686h4.838v-1.686h1.226c.98 0 1.773.794 1.773 1.775v12.198zm0 1.8c0 .978-.794 1.773-1.773 1.773h-7.37a1.775 1.775 0 0 1-1.774-1.774v-.774h10.916v.774zm-15.487 9.846a.73.73 0 1 1-1.462 0v-24.349a.73.73 0 1 1 1.461 0v24.35zm17.506-46.898h-21.259v72.275h23.033v-70.5c0-.98-.795-1.775-1.774-1.775zM443.477 378.518c0 .98.796 1.774 1.774 1.774h39.785c.98 0 1.774-.794 1.774-1.774v-8.389h-43.333v8.39zM460.517 343.873a.73.73 0 0 1-1.46 0v-24.35a.73.73 0 0 1 1.46 0v24.35zm2.322-46.897h-17.587c-.98 0-1.775.793-1.775 1.774v70.5h19.362v-72.274zM523.146 291.595v-16.899c0-.806-.656-1.46-1.46-1.46h-13.019c-.805 0-1.46.654-1.46 1.46v16.9c0 .805.655 1.46 1.46 1.46h13.018c.805 0 1.461-.655 1.461-1.46"/><path d="M518.769 296.654h5.708v-1.069h-5.708v1.069zm-12.188-5.059v-16.899a2.09 2.09 0 0 1 2.087-2.088h13.017a2.09 2.09 0 0 1 2.087 2.088v16.899a2.088 2.088 0 0 1-2.087 2.086h-13.017a2.089 2.089 0 0 1-2.087-2.086zm-2.491 6.1h22.174v-27.499H504.09v27.499zM569.46 291.595v-16.899c0-.806-.656-1.46-1.461-1.46H554.98c-.804 0-1.46.654-1.46 1.46v16.9c0 .805.656 1.46 1.46 1.46h13.018c.805 0 1.46-.655 1.46-1.46"/><path d="M565.082 296.654h5.708v-1.069h-5.708v1.069zm-12.187-5.059v-16.899a2.09 2.09 0 0 1 2.087-2.088h13.017c1.149 0 2.087.937 2.087 2.088v16.899a2.09 2.09 0 0 1-2.087 2.086h-13.017a2.088 2.088 0 0 1-2.087-2.086zm-2.492 6.1h22.174v-27.499h-22.174v27.499zM544.673 273.235h-13.016c-.805 0-1.462.655-1.462 1.46v16.9c0 .806.657 1.46 1.462 1.46h13.016c.807 0 1.46-.654 1.46-1.46v-16.9c0-.805-.653-1.46-1.46-1.46"/><path d="M546.76 291.595c0 1.15-.936 2.086-2.087 2.086h-13.016a2.088 2.088 0 0 1-2.086-2.086v-16.899a2.09 2.09 0 0 1 2.086-2.088h13.016a2.09 2.09 0 0 1 2.087 2.088v16.9zm-17.895 5.06h5.709v-1.07h-5.71v1.07zm-1.786 1.04h22.172v-27.499h-22.172v27.5zM586.71 276.706c.604 0 1.096-.491 1.096-1.097v-.796a1.097 1.097 0 0 0-2.192 0v.796c0 .606.49 1.097 1.096 1.097M590.163 276.706c.604 0 1.095-.491 1.095-1.097v-.796a1.096 1.096 0 0 0-2.191 0v.796c0 .606.491 1.097 1.096 1.097M593.615 276.706c.605 0 1.097-.491 1.097-1.097v-.796a1.097 1.097 0 0 0-2.192 0v.796c0 .606.491 1.097 1.095 1.097M578.049 346.444h39.742v-8.041h-39.742zM580.38 365.845h36.166v8.14c0 .978-.815 1.772-1.821 1.772H582.2c-1.006 0-1.821-.794-1.821-1.773v-8.139zm0-11.412c0-.98.815-1.776 1.82-1.776h32.525c1.006 0 1.82.795 1.82 1.776v10.294H580.38v-10.294zm15.15-4.2h5.865v-1.07h-5.865v1.07zm-17.481 30.643h40.828V347.54h-40.828v33.337z"/></g><g><path d="M510.854 329.118a.094.094 0 0 1-.094.094h-1.321a.094.094 0 0 1-.095-.094v-1.322c0-.052.042-.095.095-.095h1.32c.053 0 .095.043.095.095v1.322zm0 2.38a.094.094 0 0 1-.094.096h-1.321a.095.095 0 0 1-.095-.096v-1.32c0-.053.042-.095.095-.095h1.32c.053 0 .095.042.095.095v1.32zm2.142-4.842h-5.74a.123.123 0 0 0-.122.123v5.747c0 .069.055.124.123.124h5.739a.123.123 0 0 0 .123-.124v-5.747a.123.123 0 0 0-.123-.123zM391.856 371.955c0 .769-.624 1.392-1.392 1.392h-2.013a1.392 1.392 0 0 1-1.392-1.392v-2.014c0-.767.624-1.391 1.392-1.391h2.013c.768 0 1.392.624 1.392 1.39v2.015zM578.197 275.055c0 .722-.585 1.306-1.306 1.306h-1.937a1.306 1.306 0 0 1-1.306-1.306v-1.937c0-.72.585-1.306 1.306-1.306h1.937c.721 0 1.306.585 1.306 1.306v1.937z" fill="#FF9015"/><path d="M575.713 275.072h.42" fill="#FFF"/><path d="M575.713 275.072h.42" stroke="#FFF" stroke-width=".095" stroke-linecap="round"/><path d="M576.872 273.138v1.185" fill="#FFF"/><path d="M576.872 273.138v1.185" stroke="#FFF" stroke-width=".095" stroke-linecap="round"/><path d="M574.974 273.138v1.185" fill="#FFF"/><path d="M574.974 273.138v1.185" stroke="#FFF" stroke-width=".095" stroke-linecap="round"/><path d="M575.713 275.072v-.207a.21.21 0 1 1 .42 0v.207" fill="#FFF"/><path d="M575.713 275.072v-.207a.21.21 0 1 1 .42 0v.207" stroke="#FFF" stroke-width=".095" stroke-linecap="round"/><g fill="#FF9015"><path d="M613.244 321.24a.191.191 0 0 0-.19.19c0 .106.086.192.19.192a.19.19 0 0 0 0-.381"/><path d="M613.244 322.055a.624.624 0 1 1 0-1.248.624.624 0 0 1 0 1.248m0-1.389a.765.765 0 1 0 .764.765.765.765 0 0 0-.764-.765"/><path d="M613.244 321.771a.34.34 0 1 1 .001-.68.34.34 0 0 1 0 .68m0-.814a.474.474 0 1 0-.001.948.474.474 0 0 0 0-.948"/><path d="M613.244 322.345a.915.915 0 0 1 0-1.829.915.915 0 0 1 0 1.829m0-1.963a1.049 1.049 0 1 0 1.048 1.049 1.05 1.05 0 0 0-1.048-1.049"/><path d="M613.244 322.628a1.2 1.2 0 0 1-1.198-1.197 1.2 1.2 0 0 1 1.198-1.198 1.2 1.2 0 0 1 1.198 1.198 1.2 1.2 0 0 1-1.198 1.197m2.13-4.368h-4.26a.305.305 0 0 0-.304.305v6.084c0 .167.137.304.304.304h4.26a.305.305 0 0 0 .304-.304v-6.084a.305.305 0 0 0-.304-.305"/></g><g fill="#FF9015"><path d="M455.746 271.837h11.986v-1.177h-11.986zM455.31 274.372h13.172v-2.28H455.31zM468.481 274.597c0 .753-2.949 1.365-6.586 1.365-3.638 0-6.586-.612-6.586-1.365"/></g><g><path d="M400.631 346.987h-4.44a1 1 0 0 1-1.002-1.001v-4.441a1 1 0 0 1 1.001-1.001h4.441a1 1 0 0 1 1.001 1v4.442a1 1 0 0 1-1 1" fill="#FF9015"/><path d="M398.411 340.544v6.443M395.19 343.765h6.442" stroke="#FFF" stroke-width=".258"/></g><g><path d="M574.838 333.007a.36.36 0 0 1-.359.359h-7.869a.358.358 0 0 1-.357-.36v-7.866c0-.2.16-.36.357-.36h7.869a.36.36 0 0 1 .359.36v7.867z" fill="#FF9015"/><path d="M570.545 333.366v1.316" fill="#E66C25"/><path d="M570.545 333.366v1.316" stroke="#FF9015" stroke-width=".392" stroke-linecap="round" stroke-linejoin="round"/><path d="M566.253 334.682h8.585" fill="#E66C25"/><path d="M566.253 334.682h8.585" stroke="#FF9015" stroke-width=".392" stroke-linecap="round" stroke-linejoin="round"/><path d="M573.566 329.073a3.02 3.02 0 1 1-6.04.001 3.02 3.02 0 0 1 6.04-.001z" stroke="#FFF" stroke-width=".392" stroke-linecap="round" stroke-linejoin="round"/><path d="M572.474 329.073a1.929 1.929 0 1 1-3.858.002 1.929 1.929 0 0 1 3.858-.002z" stroke="#FFF" stroke-width=".392" stroke-linecap="round" stroke-linejoin="round"/></g><g><path d="M432.492 332l.008-.009M433.5 332h-.004" fill="#E68531"/><path d="M432.573 331.575a.25.25 0 0 0 .177.425h5.435a.315.315 0 0 0 .315-.316v-5.428c0-.228-.27-.34-.425-.183l-5.502 5.502z" fill="#FF9015"/><path d="M433.492 332l.008-.008M433.5 332h-.003M438.5 327.213v-.004a.207.207 0 0 0-.354-.147l-.009.006-4.576 4.578a.208.208 0 0 0 .147.354" fill="#FFF"/></g><g><path d="M501.225 277.087a2.193 2.193 0 0 1-2.194 2.193h-3.744a2.194 2.194 0 0 1-2.195-2.193v-3.745c0-1.212.983-2.194 2.195-2.194h3.744c1.212 0 2.194.981 2.194 2.193v3.745z" fill="#FF9015"/><path d="M500.28 275.214a3.12 3.12 0 1 1-6.242 0 3.12 3.12 0 0 1 6.241 0z" stroke="#FFF" stroke-width=".335"/></g><g><path d="M508.94 376.46c0-.271.221-.492.493-.492h.795c.274 0 .494.22.494.493v2.887c0 .272-.22.493-.493.493h-.795a.493.493 0 0 1-.494-.493v-2.887zM511.179 381.289h.601v-.455h-.601z" fill="#FF9015"/><path d="M509.831 376.452v-.645a.824.824 0 0 1 1.647 0v5.075M511.32 381.186v.238M511.625 381.186v.238" stroke="#FF9015" stroke-width=".259"/></g></g><g fill="#000"><path d="M137.258 359.535a.518.518 0 0 0 0 1.034h3.792a.517.517 0 1 0 0-1.034h-3.792zm-11.463 2.93v-4.051h-1.078v-1.271h28.875v1.27h-1.078v4.053h-26.72zM137.258 364.921h3.792a.517.517 0 1 1 0 1.034h-3.792a.516.516 0 1 1 0-1.034zm-11.463 2.974h26.72v-4.912h-26.72v4.912zM135.174 335.256h-.72l-4.228 11.747h1.12zM133.419 347.003l2.846-11.747h-.6l-3.01 11.747zM148.081 347.003l-4.228-11.747h-.715l3.827 11.747zM145.656 347.003l-3.01-11.747h-5.89l-2.043 11.747zM134.918 352.257c.346 1.285 1.346 3.26 2.402 4.188h3.816c1.055-.928 2.055-2.903 2.403-4.188.311-1.156.205-3.59-.997-4.835h-6.627c-1.203 1.244-1.31 3.68-.997 4.835M180.603 333.227a.8.8 0 1 1 .001-1.599.8.8 0 0 1-.001 1.6m0-2.61a1.811 1.811 0 1 0 0 3.621 1.811 1.811 0 0 0 0-3.622M293.037 303.812l-3.29 8.431h.872l2.978-8.431zM291.637 312.243h.594l2.214-8.431h-.467zM299.791 303.812l2.977 8.431h.869l-3.29-8.431zM266.826 281.859h32.846a.643.643 0 0 1 0 1.287h-32.846a.644.644 0 0 1 0-1.287m0-2.196h32.846a.643.643 0 0 1 0 1.286h-32.846a.644.644 0 0 1 0-1.286m0-2.198h32.846a.643.643 0 0 1 0 1.286h-32.846a.643.643 0 0 1 0-1.286m.695-5.278a.652.652 0 0 1 0 1.3.65.65 0 1 1 0-1.3m2.103 0a.651.651 0 1 1 0 0m-3.655 12.468h34.56c.98 0 1.775-.794 1.775-1.775v-10.831c0-.98-.794-1.773-1.774-1.773h-34.561c-.981 0-1.774.794-1.774 1.773v10.83c0 .982.793 1.776 1.774 1.776"/><path d="M54.913 268.328h29.508v.115h1.026v-.115h29.625v5.872H54.913v-5.872zm0-1.026h29.508v-5.817H54.913v5.817zm30.534 0h29.625v-5.817H85.447v5.817zm34.319 16.007h1.052v98.226h-2.887v-93.593h-1.025v93.593h-2.886v-98.226h1.052v4.633h4.694v-4.633zm0-14.981h107.166v.115h1.025v-.115h76.345v34.157h.001v17.769h-3.939a3.162 3.162 0 0 1-3.159-3.16v-3.04a1.527 1.527 0 0 0 1.063-1.451v-.36h3.482l-2.342-8.431h-4.582l-1.589 8.43h1.88v.36c0 .682.446 1.257 1.062 1.453v3.04a4.19 4.19 0 0 0 4.185 4.184h3.939v60.256H277.22v-2.507h1.971a2.288 2.288 0 0 0 2.286-2.287v-8.532a2.288 2.288 0 0 0-2.286-2.286h-1.3v-37.55h-7.45v30.778a220.714 220.714 0 0 0-4.18-2.613c-1.1-.662-3.265-.644-3.623-.636v-2.371c0-2.94-2.633-5.325-5.88-5.325h-23.866c-3.248 0-5.88 2.385-5.88 5.325v2.372h-.77v-2.372c0-2.94-2.633-5.325-5.88-5.325h-23.553c-3.248 0-5.881 2.385-5.881 5.325v2.404c-.709.058-1.858.226-2.607.72l-3.992 2.52v-30.802h-7.451v37.55h-1.299a2.289 2.289 0 0 0-2.288 2.286v8.532a2.29 2.29 0 0 0 2.288 2.287h1.97v2.507h-26.802v-3.124h.879a.887.887 0 0 0 .888-.888v-9h-26.72v9c0 .49.397.888.887.888h.88v3.124h-5.718v-99.251h-2.077v-13.956zm0-1.026h32.314v-5.817h-32.314v5.817zm33.339 0h5.332v-2.977h-5.332v2.978zm0-4.002h5.332v-1.303h-5.332v1.303zm6.357 4.002h67.47v-5.817h-67.47v5.817zm68.495 0h48.726v-5.817h-48.726v5.817zm49.751 0h5.331v-2.977h-5.331v2.978zm0-4.002h5.331v-1.303h-5.331v1.303zm6.357 4.002h20.237v-5.817h-20.237v5.817zm-6.174 99.655v-.01h1.3c.695 0 1.261.567 1.261 1.262v8.532c0 .695-.566 1.262-1.261 1.262h-7.339l1.911-11.046h4.128zm-1.025-1.034h-2.925l.406-2.342c.358-1.237-.52-2.215-1.64-2.975h.001l-1.242-.8v-30.408h5.4v36.525zm-1.714 15.612h-7.219v-1.392h3.569v-.116l.173-1h3.477v2.508zm-12.514 0H192.13v-1.392H262.638v1.392zm-80.576-20.93c-1.079.717-1.999 1.739-1.64 2.976l.406 2.342h-2.924v-36.525h5.399v30.424l-1.243.784h.002zm-1.056 6.352l1.911 11.046h-7.338a1.264 1.264 0 0 1-1.262-1.262v-8.532c0-.695.566-1.261 1.262-1.261h1.299v.009h4.128zm5.83 14.578h-7.219v-2.507h3.478l.172.999v.116h3.569v1.392zM136.74 370.61c0-.286.232-.517.518-.517h3.792a.518.518 0 1 1 0 1.034h-3.792a.517.517 0 0 1-.518-.517zm-7.111 10.924h19.049v-3.124h-19.049v3.124zm-18.938 0h2.304v-42.792h-2.304v42.792zm-6.857 0h3.892v-42.792h-3.892v42.792zm-6.854 0h3.891v-42.792H96.98v42.792zm-6.856 0h3.891v-42.792h-3.891v42.792zm-6.857 0h3.891v-42.792h-3.891v42.792zm-6.856 0h3.892v-42.792h-3.892v42.792zm-6.856 0h3.892v-42.792h-3.892v42.792zm-6.856 0h3.892v-42.792h-3.892v42.792zm-7.274 0h4.309v-42.792h-4.309v42.792zm-7.011-106.23h6.499v-.08h60.159v7.059h-2.077v51.956h-57.57v-58.935H54.4v58.935h-9.46v4.503h9.46-5.986v43.298h-8.321v9.329H28.876v7.456H17.309v9.563h28.586v-.418H57.49v-14.216h250.574V253.38H48.414v21.925z"/><path d="M194.516 343.489h65.738v-32.842h-65.738v32.842zm65.272 1.433h-1.966a.28.28 0 1 1 0-.56h1.966a.28.28 0 1 1 0 .56zm-66.319.715H261.3v-36.314h-67.831v36.314zM274.166 331.628a.8.8 0 1 1 0 1.6.8.8 0 0 1 0-1.6m0 2.611a1.811 1.811 0 1 0 0-3.623 1.811 1.811 0 0 0 0 3.623"/></g><g><path d="M283.794 345.518v-1.726a.124.124 0 0 0-.124-.123h-1.727a.124.124 0 0 0-.123.123v1.726c0 .07.056.124.123.124h1.727a.124.124 0 0 0 .124-.124zm1.88-3.854c.069 0 .124.055.124.124v5.747a.124.124 0 0 1-.124.124h-5.738a.124.124 0 0 1-.123-.124v-5.747c0-.069.055-.124.123-.124h5.738zM290.414 344.127a.094.094 0 0 1-.095.094h-1.321a.094.094 0 0 1-.095-.094v-1.321c0-.054.042-.096.095-.096h1.32c.054 0 .096.042.096.096v1.32zm0 2.38a.094.094 0 0 1-.095.096h-1.321a.094.094 0 0 1-.095-.095v-1.321c0-.053.042-.094.095-.094h1.32c.054 0 .096.04.096.094v1.32zm2.14-4.843h-5.738a.124.124 0 0 0-.123.124v5.747c0 .069.055.124.123.124h5.738a.124.124 0 0 0 .124-.124v-5.747a.125.125 0 0 0-.124-.124zM298.584 344.127a.094.094 0 0 1-.095.094h-1.321a.094.094 0 0 1-.094-.094v-1.321c0-.053.042-.096.094-.096h1.32c.054 0 .096.043.096.096v1.32zm0 2.38a.094.094 0 0 1-.095.096h-1.321a.094.094 0 0 1-.094-.095v-1.321c0-.052.042-.094.094-.094h1.32c.054 0 .096.042.096.094v1.32zm-2.527-2.38a.094.094 0 0 1-.095.094h-1.322a.095.095 0 0 1-.094-.094v-1.321c0-.053.043-.096.094-.096h1.322c.053 0 .095.043.095.096v1.32zm0 2.38a.094.094 0 0 1-.095.096h-1.322a.095.095 0 0 1-.094-.095v-1.321c0-.052.043-.094.094-.094h1.322c.053 0 .095.042.095.094v1.32zm3.377-4.843h-5.738a.124.124 0 0 0-.123.124v5.747c0 .069.055.124.123.124h5.738a.124.124 0 0 0 .124-.124v-5.747a.125.125 0 0 0-.124-.124z" fill="#FF9015"/><path d="M158.964 368.683v.733M158.454 370.605l-.334-.542M159.897 370.062l-.317.515" stroke="#FF9015" stroke-width=".259"/><path d="M159.008 371.724a1.853 1.853 0 1 1 0-3.706 1.853 1.853 0 0 1 0 3.706m0-4.325a2.46 2.46 0 0 0-2.46 2.46v4.487h4.918v-4.487c0-1.359-1.1-2.46-2.458-2.46" fill="#FF9015"/><path d="M260.322 274.216v.734M259.812 276.138l-.334-.54M261.255 275.595l-.316.515" stroke="#FF9015" stroke-width=".259"/><path d="M260.367 277.257a1.854 1.854 0 1 1 .001-3.707 1.854 1.854 0 0 1-.001 3.707m0-4.324a2.458 2.458 0 0 0-2.46 2.46v4.485h4.919v-4.486a2.458 2.458 0 0 0-2.46-2.459" fill="#FF9015"/><path d="M262.5 279.443v5.803" stroke="#FF9015" stroke-width=".259"/><path fill="#FF9015" d="M262.262 286.098h.475v-.813h-.475z"/><path fill="#FF9015" d="M262.262 286.098h.475v-.813h-.475z"/><path d="M262.744 286.231a.24.24 0 1 1-.48 0 .24.24 0 0 1 .48 0" fill="#FF9015"/><g><path d="M130.01 354.555c0 .722-.584 1.306-1.306 1.306h-1.937a1.306 1.306 0 0 1-1.306-1.306v-1.937c0-.72.585-1.306 1.306-1.306h1.937c.722 0 1.306.585 1.306 1.306v1.937zM127.526 354.572h.419" fill="#FF9015"/><path d="M127.526 354.572h.419" stroke="#FFF" stroke-width=".095" stroke-linecap="round"/><path d="M128.685 352.638v1.185" fill="#FF9015"/><path d="M128.685 352.638v1.185" stroke="#FFF" stroke-width=".095" stroke-linecap="round"/><path d="M126.786 352.638v1.185" fill="#FF9015"/><path d="M126.786 352.638v1.185" stroke="#FFF" stroke-width=".095" stroke-linecap="round"/><path d="M127.526 354.572v-.207a.21.21 0 1 1 .419 0v.207" fill="#FF9015"/><path d="M127.526 354.572v-.207a.21.21 0 1 1 .419 0v.207" stroke="#FFF" stroke-width=".095" stroke-linecap="round"/></g><g><path d="M150.156 355.135a.15.15 0 0 1-.145-.11l-.624-2.438-.01-.023-.02-.048a1.692 1.692 0 0 1 1.581-2.289c.933 0 1.692.76 1.692 1.69 0 .226-.046.447-.135.657l-.65 2.451a.148.148 0 0 1-.144.11h-1.545z" fill="#FF9015"/><path d="M149.338 352.587h3.204" stroke="#FFF" stroke-width=".323"/><path d="M150.31 355.67h1.257M150.515 356.25h.847" stroke="#FF9015" stroke-width=".289" stroke-linecap="round" stroke-linejoin="round"/></g><g fill="#FF9015"><path d="M31.989 253.477h1.099v-.946h-1.099z"/><path d="M43.926 257.456H33.108l-.53-4.508.005-.981H44.45l-.037 1.178zM31.631 264.449c0 .148-.096.269-.212.269-.117 0-.212-.121-.212-.27L31 253.026c0-.387.188-.7.42-.7.231 0 .42.313.42.7l-.208 11.424zM35.376 264.296c.175-.301.22-.98.27-1.694.126-1.875.3-3.56 2.87-3.56 2.568 0 2.742 1.684 2.869 3.56.049.715.095 1.393.27 1.694.059.103.333.435 1.379.436l.003.01V257.9h-9.043v6.832c1.048 0 1.323-.333 1.382-.436"/><path d="M38.437 262.888c.923 0 1.672.761 1.672 1.698 0 .387-.129.742-.344 1.028 1.212-.088 2.27-.305 3.031-.602-.98 0-1.367-.298-1.496-.52-.643-1.109.387-4.823-2.785-4.823s-2.142 3.714-2.786 4.823c-.129.222-.515.521-1.499.521.721.287 1.723.49 2.868.586a1.698 1.698 0 0 1-.332-1.013c0-.937.748-1.698 1.671-1.698"/><path d="M38.433 265.85a.87.87 0 0 1-.862-.875c0-.483.386-.875.862-.875s.862.392.862.875a.87.87 0 0 1-.862.875m0-2.629c-.813 0-1.474.671-1.474 1.496 0 .827.661 1.497 1.474 1.497.814 0 1.474-.67 1.474-1.497 0-.825-.66-1.496-1.474-1.496"/></g><g fill="#FF9015"><path d="M141.037 280.117a1.334 1.334 0 1 1-.003-2.668 1.334 1.334 0 0 1 .003 2.668m3.585-4.727a19.335 19.335 0 0 0-.162-1.968 2.845 2.845 0 0 0-.081-.41 1.335 1.335 0 0 0-.122-.296 1.008 1.008 0 0 0-.174-.227 1.286 1.286 0 0 0-.26-.19 2.017 2.017 0 0 0-.353-.156 3.078 3.078 0 0 0-.43-.11 4.93 4.93 0 0 0-.5-.062 12.987 12.987 0 0 0-.654-.027 40.052 40.052 0 0 0-1.7 0c-.217.005-.437.01-.654.027a4.875 4.875 0 0 0-.498.063c-.145.026-.29.062-.43.109a2.026 2.026 0 0 0-.354.156 1.079 1.079 0 0 0-.555.714 2.845 2.845 0 0 0-.081.409c-.09.654-.142 1.308-.162 1.968a61.854 61.854 0 0 0 0 3.804 17.867 17.867 0 0 0 .162 1.968c.033.255.076.494.212.724a1.051 1.051 0 0 0 .31.328c.156.107.33.183.51.24a3.7 3.7 0 0 0 .65.137c.295.035.594.043.89.048a40.148 40.148 0 0 0 1.7 0c.218-.003.438-.01.655-.026.168-.013.333-.032.499-.062.145-.028.289-.063.43-.11.122-.041.24-.092.353-.156.094-.053.183-.115.26-.19.069-.067.127-.143.174-.226.053-.093.092-.194.122-.297.038-.135.063-.271.08-.41.089-.653.142-1.31.163-1.968a63.481 63.481 0 0 0 0-3.804"/><path d="M140.036 278.783a1 1 0 1 1 2 0 1 1 0 0 1-2 0"/></g><g><path d="M128.058 276.965a2.194 2.194 0 0 1-2.194 2.194h-3.745a2.194 2.194 0 0 1-2.194-2.194v-3.745c0-1.21.982-2.193 2.194-2.193h3.745c1.212 0 2.194.982 2.194 2.193v3.745z" fill="#FF9015"/><path d="M127.112 275.093a3.12 3.12 0 1 1-6.243 0 3.12 3.12 0 0 1 6.243 0z" stroke="#FFF" stroke-width=".335"/></g></g><g fill="#000"><path d="M287.85 230.748a.517.517 0 1 0 0 1.034h3.792a.516.516 0 1 0 0-1.034h-3.791zm-11.464 7.43v-9h26.72v9c0 .49-.397.887-.887.887h-.88v3.276h-2.068v-3.276h-19.048v3.276h-2.07v-3.276h-.879a.888.888 0 0 1-.887-.887zM285.767 207.568h-.72l-4.229 11.747h1.122zM284.012 219.315l2.846-11.747h-.6l-3.01 11.747zM298.674 219.315l-4.228-11.747h-.715l3.827 11.747zM285.305 219.315h10.943l-3.009-11.747h-5.89zM291.728 228.756c1.056-.928 2.056-2.902 2.404-4.188.311-1.156.205-3.59-.998-4.834h-6.627c-1.202 1.243-1.308 3.678-.997 4.834.348 1.286 1.348 3.26 2.404 4.188h3.815zM187.196 240.685h87.998v-11.61h-87.998zM189.579 242.519h7.578v-1.345h-7.578zM265.233 242.519h7.577v-1.345h-7.577zM261.353 221.844c-.774.805-2.065 1.475-3.741 1.475h-13.826c-1.675 0-2.967-.67-3.74-1.475-.774-.803-4.255-1.74-2.837-2.543 1.418-.805 3.998-2.544 5.544-2.945 1.548-.402 3.997-.67 7.947-.67 3.948 0 6.398.268 7.945.67 1.547.401 4.126 2.14 5.544 2.945 1.419.803-2.062 1.74-2.836 2.543m-39.009 0c-.773.805-2.066 1.475-3.741 1.475h-13.825c-1.675 0-2.968-.67-3.74-1.475-.775-.803-4.256-1.74-2.837-2.543 1.417-.805 3.997-2.544 5.545-2.945 1.545-.402 3.996-.67 7.944-.67 3.949 0 6.4.268 7.946.67 1.547.401 4.126 2.14 5.544 2.945 1.419.803-2.063 1.74-2.836 2.543m50.677-4.558c-3.456-1.969-17.973-7.755-41.826-7.755s-38.371 5.786-41.826 7.755c-1.485.845-2.173 2.092-2.173 3.693v7.633h2.173v-1.97c0-1.479.808-2.462 2.703-2.462h78.246c1.894 0 2.703.983 2.703 2.462v1.97h2.173v-7.633c0-1.6-.689-2.848-2.173-3.693M165.108 220.176h4.325a.528.528 0 0 0 0-1.057h-4.325a.529.529 0 0 0 0 1.057M165.108 221.534h4.325a.527.527 0 1 0 0-1.057h-4.325a.53.53 0 0 0 0 1.057M165.108 217.405h4.325a.528.528 0 0 0 0-1.057h-4.325a.529.529 0 0 0 0 1.057M165.108 218.762h4.325a.528.528 0 1 0 0-1.056h-4.325a.529.529 0 0 0 0 1.056M175.98 207.767c0-2.43-3.672-3.779-8.71-3.816-5.037.037-8.708 1.385-8.708 3.816v1.585h-32.209v3.236h32.21v.84c0 1.451 1.036 2.384 2.176 2.384h13.062c1.141 0 2.178-.933 2.178-2.384v-.84h11.203v-3.236H175.98v-1.585zM167.063 203.948c.07 0 .138.003.208.003.069 0 .137-.003.207-.003h-.415z"/><path d="M178.253 239.015c-1.1-1.424-2.206-2.204-3.153-2.204h-6.287c.017-.15.026-.276.032-.39h.267v-7.245h6.465v-1.105c.603 0 1.906-.852 1.91-1.606.187.154.44.251.721.251.571 0 1.036-.395 1.036-.882v-11.078c0-.488-.465-.883-1.036-.883-.573 0-1.037.395-1.037.883v7.85c-.318-.414-.814-.669-1.192-.669h-17.417c-.378 0-.874.255-1.192.668v-7.849c0-.488-.465-.883-1.036-.883-.573 0-1.037.395-1.037.883v11.078c0 .487.464.882 1.037.882.28 0 .533-.097.72-.25.004.753 1.306 1.605 1.91 1.605v1.105h7.181v7.244h.231c.006.115.017.241.034.391h-6.416c-.934 0-2.023.756-3.108 2.142-.037 0-.072-.01-.11-.01a1.86 1.86 0 1 0 1.042.32c.967-.87 1.943-.905 2.176-.905h6.653c.075.444.151.886.21 1.265-.19.196-.31.46-.31.752v1.208a1.081 1.081 0 0 0 2.163 0v-1.208c0-.296-.12-.562-.313-.757.053-.378.124-.818.194-1.26h6.51c.216 0 1.076.017 1.974.72a1.858 1.858 0 0 0 .691 3.586c1.027 0 1.86-.834 1.86-1.86 0-.859-.584-1.573-1.373-1.789M137.384 214.698h3.196a.436.436 0 1 1 0 .872h-3.196a.436.436 0 1 1 0-.872zm-9.66 5.853h22.516v-7.332h-22.516v7.332zM137.384 222.715h3.196a.436.436 0 1 1 0 .872h-3.196a.436.436 0 1 1 0-.872zm-9.66 7.163h22.516v-8.797h-22.516v8.797zM63.902 242.454h10.856c0-2.851-4.678-3.354-4.678-3.354s-.317-2.947 3.08-4.543c5.567-2.615 9.734-5.214 9.734-10.086H63.902v17.983zM61.847 215.43h-3.453c-.979 0-1.774.795-1.774 1.774v11.871h7.001v-11.87c0-.98-.794-1.775-1.774-1.775M81.12 222.406H65.676c-.98 0-1.774.795-1.774 1.774h18.992c0-.98-.795-1.774-1.774-1.774M282.327 97.628h3.057v.994h4.59v-.994h13.604v.994h4.487v-11.98h-25.738zM294.418 64.393h1.037v-6.219h-1.037v6.219zm-12.091 21.005h13.888V40.002h-13.888v45.396zM297.804 64.393h1.037v-6.219h-1.037v6.219zm-.76 21.005h11.021V40.002h-11.021v45.396zM225.55 65.256h24.802V33.191H225.55v32.065zm26.35 0h24.802V33.191H251.9v32.065zm-27.898 1.548h54.247V31.643h-54.247v35.161zM226.656 81.154c-.805 0-1.457.652-1.457 1.457v2.888h-1.133v-2.907c0-.794-.644-1.438-1.438-1.438h-67.53a2.807 2.807 0 0 0 2.433-1.418h.5a1.224 1.224 0 0 0 0-2.447h-.316a2.82 2.82 0 0 0-2.618-1.78h-10.399a2.82 2.82 0 0 0-2.618 1.78h-.01a1.224 1.224 0 1 0 0 2.447h.193a2.81 2.81 0 0 0 2.435 1.418h-3.16c-.806 0-1.458.652-1.458 1.458v2.887h-.367V68.418a1.457 1.457 0 1 0-2.914 0V99.34h2.914v-1.7H225.2v1.7h2.915V82.61c0-.805-.653-1.457-1.458-1.457M180.484 49.57l1.361 3.416.284.712 3.914-1.561.54 1.353 1.618-.646-.234-.586 2.295-.916-.914-2.294-2.296.914.44 1.102-.666-1.671-1.619.645.552 1.388-3.167 1.262-1.36-3.416 1.21-.482-.398-.996-3.487 1.389.397.997z"/><path d="M135.562 66.177V99.44H51.513l84.05-33.263zm-1.005 49.53h5.331v-1.304h-5.33v1.303zm0 4.001h5.331v-2.977h-5.33v2.977zm-10.996 0h9.97v-5.819h-9.97v5.818zm108.555 1.025v1.5h1.026v-1.5h71.159v33.24h.001v15.562h-.89a.508.508 0 0 0-.509.51v2.417h-5.434a3.162 3.162 0 0 1-3.16-3.159v-3.04a1.525 1.525 0 0 0 1.063-1.452v-.36h3.482l-2.342-8.429h-4.582l-1.589 8.43h1.878v.36c0 .68.447 1.257 1.064 1.451v3.04a4.19 4.19 0 0 0 4.186 4.185h5.434v2.46c0 .281.227.508.508.508h.891v66.252H186.018V212.83h-2.475v29.878h-33.45a.723.723 0 0 0 .146-.422v-11.768h-22.515v11.768c0 .161.061.301.147.422h-2.117v-91.443h-2.193v-30.532h108.555zm-91.203-1.026h91.203v-5.818h-91.203v5.818zm92.23 0h54.714v-5.818h-54.715v5.818zm55.74.001h5.331v-2.977h-5.332v2.977zm0-4.002h5.331v-1.303h-5.332v1.303zm6.356 4.001h9.062v-5.818h-9.062v5.818zM140.58 232.712h-3.196a.435.435 0 0 1 0-.872h3.196a.437.437 0 0 1 0 .872zm-15.85 9.996h-2.886V156.17h-1.026v86.538h-2.886v-90.417h1.167v3.878h4.463v-3.878h1.168v90.417zm-25.822-123h20.191v-5.819h-20.19v5.818zm-43.994 0h42.97v-5.819h-42.97v5.818zm42.97 1.025v1.5h1.024v-1.5h20.191v7.558H54.913v-7.558h42.97zm19.023 121.975h-11.742l-1.593-33.498c5.372-1.212 8.952-5.12 8.952-7.759H87.936c0 2.64 3.58 6.547 8.953 7.76l-1.595 33.497h-40.38v-46.64h2.604V136.88h-2.605v-7.564h64.185v21.95h-2.192v91.442zm-69.302-48.435v-1.7h2.785v-52.199h-2.785v-1.699h8.12v55.598h-8.12zm.81 55.696H2.401v-6.46h7.46l.131-1.287h9.215l.132-1.286h9.215l.132-1.287H37.9l.131-1.285h9.216l.105-1.03h1.062v12.635zM301.548 17.93l-12.016-.565-.032-.008.704-2.553-10.713-.22-.09-.025.698-2.537-9.595-.449V7.264L246.452 0l-20.3 9.206v4.312l-10.38 1.507.96 2.45-.084.032-10.282 1.21.97 2.471H93.57v7.37h95.138l-3.46 1.368H93.57v8.061h71.298l-3.46 1.368H93.57v8.06h47.46l-3.463 1.37H93.57v8.06h23.62l-3.462 1.367H93.57v6.7l-6.98.821.97 2.472-11.529 1.673.97 2.471-10.374 1.22.97 2.472-11.53 1.674.972 2.47-10.376 1.221.971 2.471-11.529 1.674.97 2.471-10.374 1.22.97 2.471-11.529 1.673.971 2.472-10.375 1.221 1.172 2.984-.013.006v10.497l1.593-.63v6.136l28.526-11.29h10.161v9.108h.237v22.991H45.81v59.188h2.605v26.947h-1.853v1.114h-9.175v1.286H28.04v1.286h-9.346v1.288H9.346v1.285H0v14.234h1.375v7.486h47.04v2.385h259.65V99.441H136.586V65.77l110.321-43.66 61.156 16.921v-1.064l-61.048-16.89-.166-.047-236.334 93.53v-5.032L246.88 16.047l61.185 16.947V20.636l-7.22-.148.704-2.56z"/><path d="M290.7 156.022h-.56l-3.289 8.43h.871zM289.335 164.452l2.213-8.43h-.466l-2.34 8.43zM300.74 164.452l-3.288-8.43h-.556l2.977 8.43zM128.285 134.535h32.847a.643.643 0 0 1 0 1.286h-32.847a.642.642 0 1 1 0-1.286m0-2.197h32.847a.643.643 0 0 1 0 1.286h-32.847a.643.643 0 0 1 0-1.286m0-2.198h32.847a.644.644 0 0 1 0 1.287h-32.847a.643.643 0 0 1 0-1.287m.696-5.277a.65.65 0 1 1 0 1.3.65.65 0 0 1 0-1.3m2.103 0a.65.65 0 1 1 .001 1.298.65.65 0 0 1 0-1.298m-5.43-.14v10.833c0 .98.793 1.775 1.773 1.775h34.562c.98 0 1.774-.795 1.774-1.775v-10.832c0-.98-.795-1.774-1.774-1.774h-34.562c-.98 0-1.774.795-1.774 1.774M128.089 201.609h33.266v-19.473h-33.266v19.473zm-1.672 1.741h15.015v2.293c0 1.163-2.07 2.944-4.209 2.944v.597h14.998v-.597c-2.139 0-4.21-1.781-4.21-2.944v-2.293h15.016v-22.955h-36.61v22.955zM67.617 197.474a.969.969 0 1 0 0 0"/><path d="M69.231 198.6h-.349a1.275 1.275 0 0 1-1.109 1.11v.347h-.313v-.348a1.277 1.277 0 0 1-1.11-1.109h-.348v-.313h.348a1.277 1.277 0 0 1 1.11-1.11v-.348h.313v.348c.58.072 1.038.53 1.11 1.11h.348v.313zm-1.615-2.187a2.03 2.03 0 1 0 .004 4.061 2.03 2.03 0 0 0-.004-4.06zM79.125 197.474a.968.968 0 1 0 0 0"/><path d="M80.74 198.6h-.349a1.276 1.276 0 0 1-1.11 1.11v.347h-.313v-.348a1.274 1.274 0 0 1-1.109-1.109h-.349v-.313h.35a1.274 1.274 0 0 1 1.108-1.11v-.348h.313v.348a1.276 1.276 0 0 1 1.11 1.11h.348v.313zm-1.616-2.187a2.03 2.03 0 1 0 .004 4.06 2.03 2.03 0 0 0-.004-4.06zM72.149 203.854c-1.034 2.434-3.694 2.938-5.972 1.854-2.184-1.04-2.3-3.892-2.212-5.972.127-3.06.94-6.103 1.69-9.056a135.022 135.022 0 0 0 3.163-16.702c.694-5.582 1.219-11.336.748-16.963h.184c-.002-.122-.01-.241-.012-.362h2.772v40.945h-2.342v1.692h2.342v1.22c0 .258.119.482.299.64a8.952 8.952 0 0 1-.66 2.704m2.083-67.716v-.247a.862.862 0 0 0-1.722 0v.241c-4.6.162-8.213 1.748-8.213 3.682 0 .061.015.12.022.179-.007.048-.022.095-.022.143 0 .455.323.885.883 1.27 1.34 1.155 4.085 1.978 7.33 2.092v11.827h-2.853c-.376-3.782-1.901-6.716-5.283-7.128-1.581-.193-4.253-.193-4.253-.193v2.64h4.21c2.27.153 3.216 2.845 3.6 4.681h-.573v1.328h.79c.024.222.035.362.035.362h.208c.549 6.521-.195 13.211-1.103 19.663-.472 3.347-1.062 6.68-1.822 9.975-.775 3.368-1.771 6.674-2.338 10.091-.738 4.453-.648 10.036 4.937 10.638 3.8.41 5.698-2.962 5.93-6.289a.848.848 0 0 0 .237-.583v-1.22h2.343v-1.692h-2.343v-54.105c3.167-.137 5.837-.953 7.153-2.087.559-.385.882-.815.882-1.27 0-.048-.014-.095-.022-.143.008-.059.022-.118.022-.179 0-1.909-3.52-3.481-8.035-3.676M89.061 192.208a.192.192 0 0 1 .383 0v3.055h1.813l-.492-3.393a.888.888 0 0 0-.887-.888h-1.251a.888.888 0 0 0-.887.888l-.492 3.393h1.813v-3.055zM110.836 192.208a.192.192 0 0 1 .383 0v3.055h1.814l-.492-3.393a.889.889 0 0 0-.888-.888h-1.251a.887.887 0 0 0-.886.888l-.493 3.393h1.813v-3.055z"/><path d="M113.305 195.561h-13.033v-7.887a2.33 2.33 0 0 1 2.267-2.326 2.33 2.33 0 0 1 2.266 2.326v2.786h1.877v-2.786a4.21 4.21 0 0 0-4.083-4.203h-.121a4.21 4.21 0 0 0-4.083 4.203v7.887h-11.24c-.98 0-1.774.794-1.774 1.774v2.072c0 .98.795 1.773 1.775 1.773h26.149c.979 0 1.773-.794 1.773-1.773v-2.072c0-.98-.794-1.774-1.773-1.774"/></g><g><path d="M290.695 194.226a.124.124 0 0 1-.124.124h-1.726a.124.124 0 0 1-.123-.124V192.5c0-.068.056-.123.123-.123h1.726c.069 0 .124.055.124.123v1.726zm1.88-3.854h-5.738a.123.123 0 0 0-.123.123v5.748c0 .067.055.123.123.123h5.738a.124.124 0 0 0 .123-.123v-5.748a.123.123 0 0 0-.123-.123z" fill="#FF9015"/><g fill="#FF9015"><path d="M278.573 229.032h1.792a.573.573 0 0 0 .572-.572v-2.953c-.468-.065-.96-.1-1.468-.1s-1 .035-1.468.1v2.953c0 .315.256.572.572.572M280.108 223.337a.412.412 0 1 1 .001-.824.412.412 0 0 1-.001.823m0 1.263a.412.412 0 1 1 .001-.823.412.412 0 0 1-.001.823m-1.241-1.262a.412.412 0 1 1 .001-.824.412.412 0 0 1-.001.823m0 1.263a.412.412 0 1 1 .001-.823.412.412 0 0 1-.001.823m1.498-2.773h-1.792a.573.573 0 0 0-.572.573v2.895a10.853 10.853 0 0 1 2.936 0v-2.895a.572.572 0 0 0-.572-.573"/></g><path d="M166.544 125.052v.734M166.034 126.974l-.334-.542M167.476 126.43l-.316.515" stroke="#FF9015" stroke-width=".259"/><path d="M166.589 128.092a1.854 1.854 0 0 1-1.854-1.853 1.853 1.853 0 1 1 1.854 1.853m-2.46-1.866v4.488h4.918v-4.488a2.458 2.458 0 0 0-4.917 0z" fill="#FF9015"/><path d="M168.721 130.278v5.803" stroke="#FF9015" stroke-width=".259"/><path fill="#FFF" d="M168.484 136.934h.475v-.814h-.475z"/><path fill="#FF9015" d="M168.484 136.934h.475v-.814h-.475zM168.965 137.065a.24.24 0 1 1 0 0"/><g><path d="M294.225 128.965a2.194 2.194 0 0 1-2.194 2.194h-3.745a2.194 2.194 0 0 1-2.194-2.194v-3.745c0-1.212.983-2.194 2.194-2.194h3.745c1.212 0 2.194.982 2.194 2.194v3.745z" fill="#FF9015"/><path d="M293.279 127.093a3.12 3.12 0 1 1-6.241 0 3.12 3.12 0 0 1 6.24 0z" stroke="#FFF" stroke-width=".335"/></g><g><path d="M111.496 236.643c0-.27.221-.493.493-.493h.796c.272 0 .493.222.493.493v2.887a.493.493 0 0 1-.493.493h-.796a.493.493 0 0 1-.493-.493v-2.887zM113.734 241.47h.601v-.454h-.601z" fill="#FF9015"/><path d="M112.387 236.634v-.644a.824.824 0 0 1 1.647 0v5.074M113.875 241.37v.237M114.18 241.37v.237" stroke="#FF9015" stroke-width=".259"/></g><g><path d="M155.01 233.83c0 .722-.584 1.306-1.306 1.306h-1.937a1.306 1.306 0 0 1-1.306-1.306v-1.937c0-.721.585-1.306 1.306-1.306h1.937c.722 0 1.306.585 1.306 1.306v1.937z" fill="#FF9015"/><path d="M152.526 233.846h.419" fill="#FFF"/><path d="M152.526 233.846h.419" stroke="#FFF" stroke-width=".095" stroke-linecap="round"/><path d="M153.685 231.913v1.185" fill="#FFF"/><path d="M153.685 231.913v1.185" stroke="#FFF" stroke-width=".095" stroke-linecap="round"/><path d="M151.786 231.913v1.185" fill="#FFF"/><path d="M151.786 231.913v1.185" stroke="#FFF" stroke-width=".095" stroke-linecap="round"/><path d="M152.526 233.846v-.207a.21.21 0 1 1 .419 0v.207" fill="#FFF"/><path d="M152.526 233.846v-.207a.21.21 0 1 1 .419 0v.207" stroke="#FFF" stroke-width=".095" stroke-linecap="round"/></g></g></g></svg>