<svg width="29" height="29" viewBox="0 0 29 29" xmlns="http://www.w3.org/2000/svg"><g stroke="#000" stroke-width=".65" fill="none"><path d="M22.033 20.216c0 .34-.276.616-.615.616h-13.454c-.338 0-.612-.276-.612-.616v-13.492c0-.341.274-.616.612-.616h13.454c.339 0 .615.275.615.616v13.492zm-7.341.616v2.258-2.258zm-7.34 2.258h14.681-14.681zm12.504-9.62c0 2.861-2.311 5.178-5.166 5.178-2.851 0-5.161-2.317-5.161-5.178 0-2.859 2.31-5.178 5.161-5.178 2.855 0 5.166 2.319 5.166 5.178zm-1.866 0c0 1.827-1.475 3.309-3.298 3.309s-3.298-1.482-3.298-3.309c0-1.825 1.475-3.307 3.298-3.307s3.298 1.482 3.298 3.307z"/><path d="M14.693 28.447c7.648 0 13.848-6.2 13.848-13.848 0-7.648-6.2-13.849-13.848-13.849-7.648 0-13.848 6.201-13.848 13.849 0 7.648 6.2 13.848 13.848 13.848z"/></g></svg>