<svg xmlns="http://www.w3.org/2000/svg" viewBox="0 0 3365.14 2551.18"><defs><style>.cls-1{fill:#040000;}</style></defs><path class="cls-1" d="M0 2178.77h230.04v55.8h-157.32v102.76h146.67v55.81h-146.67v158.04h-72.72v-372.41zM712.47 2394.26l-31.3-91.75c-7.68-22.65-14.13-48-20-69.6h-1.2c-5.94 21.55-11.85 47.53-19 69.6l-30.74 91.75zm-114.08 51.41l-34.29 105.51h-75.08l127.75-372.41h92.78l129.54 372.41h-78l-36.13-105.51z"/><path class="cls-1" d="M1173.54 2565.35v-372.41h82.74l102.94 159.65a1005.87 1005.87 0 0 1 68 124.9h1.19c-4.71-49.72-6.51-97.82-6.51-154.7v-129.85h67.38v372.41h-75.07l-104-164.11c-25.43-40.32-52.07-86.2-71.6-128.22l-1.76.59c3 48 3.54 97.24 3.54 158.6v133.14z" transform="translate(-18.7 -14.17)"/><path class="cls-1" d="M1891 2235.67h-113.55v-56.88h300.98v56.88h-114.69v315.51h-72.74v-315.51zM2608.22 2385.96h-150.19v109.42h167.96v55.8h-240.67v-372.41h231.8v55.8h-159.09v96.16h150.19v55.23zM3286.45 2399.21c-2.35-48.06-5.29-106.09-4.7-156.92h-1.79c-13 45.86-29.54 96.13-47.28 143.1l-57.93 161.35h-56.24l-53.21-159.15c-15.36-47.45-29.56-98.3-40.2-145.3h-1.19c-1.77 49.17-4.15 108.33-7.1 159.1l-8.89 149.79h-68l26.65-372.41h95.76l52 149.72c14.21 43.66 26.6 87.88 36.66 129.28h1.81c10.65-40.32 24.2-86.16 39.55-129.85l55-149.15h94.6l23.13 372.41h-70.88z"/><path class="cls-1" d="M2199 14.17c-35.18 0-72.48 4.75-113.82 14.43-192 44.93-289.42 216.93-298.55 233.85-95.63 167-151.27 531.76-153.63 547.26-53.75 351.68-120.46 490-189.68 541.75-67.36 62.41-157.2 87.46-237.46 56.72a200.29 200.29 0 0 1-67-43c44.17 65.23 158.66 189.09 351.78 101.18 0 0 6.62-3.83 16.46-9.72 118.58-81.18 192.41-276.5 246.25-628.73.58-3.72 54.76-358.9 139.24-505.59l1-1.76c.8-1.4 76.61-140.06 219.33-173.44 32.67-7.65 60-11.21 86.11-11.21 183.6 0 333 149.39 333 333 0 118.58-62.33 222.83-156 281.82-108.5 82.85-260.43 68.34-313 60.15-1.68 10.45-2.64 16.53-2.66 17-3.75 24.23-7.57 47.61-11.48 70.34a452.58 452.58 0 0 0 150.11 25.48c250.74 0 454.7-204 454.7-454.75s-203.95-454.78-454.7-454.78M2043.68 487.84a323.73 323.73 0 0 1 50-87.25c1.64-2 3.22-4.17 4.83-6.14l3.1-3.52c3.75-4.33 7.49-8.38 11.31-12.12 68.28-70.31 163.69-100 248.48-67.48a199.31 199.31 0 0 1 53.69 31.25c-132.49-180-287-118.29-326.78-97.91-131.02 72.23-210.31 269.33-267.2 641.48-.56 3.85-54 358.95-138.52 505.57l-.95 1.78c-.82 1.4-76.66 140.06-219.32 173.41-32.63 7.68-60 11.24-86.13 11.24-183.58 0-333-149.35-333-333 0-110.13 53.76-207.86 136.34-268.55 2.39-2.23 4.15-3.57 4.15-3.57 133.8-99.85 285.36-84.09 331.15-76.29l1-2.5c4.36-24.65 8.61-50.45 12.82-77.59a453.32 453.32 0 0 0-152.48-26.28c-250.74 0-454.72 204-454.72 454.78s204 454.69 454.72 454.69c35.22 0 72.44-4.69 113.88-14.41 189.92-44.4 287.28-213.22 298.13-233.18 95.94-166.73 151-532.48 153.26-547.95 30.09-196.47 64.17-326.17 100.55-411.58.58-1.65 1-3.28 1.67-4.89" transform="translate(-18.7 -14.17)"/></svg>