<svg width="30" height="29" viewBox="0 0 30 29" xmlns="http://www.w3.org/2000/svg"><g stroke="#000" stroke-width=".65" fill="none"><path d="M28.817 14.528c0 7.648-6.2 13.848-13.848 13.848-7.648 0-13.849-6.2-13.849-13.848 0-7.648 6.201-13.848 13.849-13.848 7.648 0 13.848 6.2 13.848 13.848z"/><path d="M9.786 15.637l-2.057.009v-9.297h6.753l-.007 1.735c.032 3.98-2.556 7.53-4.689 7.553zm-2.057 6.94v-6.931l2.194-.013c.043.047.628.872.979 2.178.219.812.359 3.221.225 3.276-.294.121-.73.067-.79.096-.045.021.016.657-.076 1.047-.054.231-.648.453-1.262.475-.614.021-1.27-.128-1.27-.128zm2.06-3.659s.31 1.021.548 2.265l-.548-2.265zm10.363-3.281l2.057.009v-9.297h-6.753l.007 1.735c-.032 3.98 2.556 7.53 4.689 7.553zm2.057 6.94v-6.931l-2.194-.013c-.043.047-.628.872-.98 2.178-.218.812-.359 3.221-.224 3.276.293.121.73.067.79.096.045.021-.016.657.076 1.047.054.231.648.453 1.262.475.614.021 1.27-.128 1.27-.128zm-2.06-3.659s-.311 1.021-.548 2.265l.548-2.265zm-12.42-12.569h14.48-14.48z"/></g></svg>