<svg width="14" height="13" viewBox="0 0 14 13" xmlns="http://www.w3.org/2000/svg"><path d="M3.875 9.484l-.188-.047c-.125-.031-.193-.141-.203-.328l.195.195.195.18zm0-4.984c-.146.417-.245.849-.297 1.297-.063.438-.102.862-.117 1.273-.016.411-.018.794-.008 1.148l.031.891-.055-.047-.039-.063c-.729-.854-1.271-1.776-1.625-2.766-.344-.99-.576-1.909-.695-2.758-.12-.849-.169-1.555-.148-2.117l.016-.844 1.094-.133c.729-.089 1.432-.112 2.109-.07.854.063 1.573.167 2.156.313l.875.219-.375.172c-.26.104-.565.292-.914.563-.349.271-.711.646-1.086 1.125-.375.469-.682 1.068-.922 1.797zm9.172 4.406c.073.729.057 1.497-.047 2.305l-.156 1.211h-.859c-.573.01-1.289-.052-2.148-.188-.859-.135-1.789-.38-2.789-.734-1-.354-1.927-.896-2.781-1.625.25.01.568.01.953 0 .385-.021.799-.057 1.242-.109.443-.052.904-.13 1.383-.234.479-.104.948-.245 1.406-.422.615-.25 1.13-.547 1.547-.891.427-.354.766-.693 1.016-1.016.25-.323.432-.599.547-.828l.156-.344.219.906c.146.604.25 1.26.313 1.969zm-9.172.578l.039.195c.026.13.138.195.336.195h.016l-.031-.023-.031-.023-.172-.164-.156-.18zm-.063-.125l-.031-.766c-.021-.521.016-1.148.109-1.883.094-.734.281-1.503.563-2.305.271-.813.708-1.516 1.313-2.109.604-.604 1.312-1.036 2.125-1.297.813-.26 1.586-.427 2.32-.5.734-.073 1.357-.089 1.867-.047l.766.063.078.703c.042.479.026 1.068-.047 1.766s-.255 1.443-.547 2.234c-.281.802-.75 1.536-1.406 2.203-.667.656-1.411 1.125-2.234 1.406-.823.281-1.594.461-2.313.539-.719.078-1.328.096-1.828.055l-.734-.063z" fill="#000"/></svg>