<svg width="28" height="32" xmlns="http://www.w3.org/2000/svg"><path d="M22.718 17.234c.276 3.149 2.375 5.027 4.474 6.132 0 1.933-3.59 7.954-7.402 8.506-2.209.331-2.872-1.326-5.689-1.326-2.265 0-2.928 1.326-5.69 1.381-3.922 0-8.12-8.34-8.396-14.361-.276-5.58 3.204-9.557 7.181-9.998 4.585-.498 4.419 1.27 6.629 1.215 2.375-.056 3.535-1.602 6.076-1.492 3.148.166 4.64 1.768 6.352 3.425-1.823 1.381-3.756 3.37-3.535 6.518"/><path d="M19.514 0c-5.248.718-6.739 5.524-6.463 7.733 4.033.221 7.071-4.032 6.463-7.733"/></svg>