<svg width="239" height="117" xmlns="http://www.w3.org/2000/svg"><g fill="none"><path fill="#E76C25" d="M230.484 79.328h7.907V.23h-7.907zM150.372.23l-11.17 79.098h7.906L158.278.23z"/><path fill="#E76C25" d="M150.524.23l26.564 79.098h7.9L158.43.23zm53.289 0l11.17 79.098h7.906L211.72.23z"/><path fill="#E76C25" d="M203.661.23l-26.565 79.098h7.913L211.574.23zM42.924 71.309C25.387 73.19 9.587 60.452 7.703 42.92 5.812 25.379 18.548 9.582 36.092 7.699c12.019-1.294 23.229 4.291 29.703 13.584a39.266 39.266 0 0 1 4.398-6.646C62.034 4.588 49.113-1.259 35.284.23 13.594 2.558-2.099 22.032.229 43.719c2.334 21.693 21.802 37.387 43.499 35.059 10.745-1.154 20.018-6.526 26.353-14.278a40.109 40.109 0 0 1-4.378-6.682c-5.115 7.306-13.234 12.463-22.779 13.491"/><path d="M93.998.362C83.246 1.516 73.98 6.886 67.638 14.636a39.443 39.443 0 0 1 4.385 6.693C77.137 14.013 85.249 8.859 94.8 7.83c17.537-1.883 33.331 10.852 35.221 28.389 1.883 17.535-10.851 33.337-28.389 35.221-12.026 1.294-23.242-4.292-29.702-13.585a39.74 39.74 0 0 1-4.404 6.643c8.158 10.049 21.086 15.9 34.916 14.414 21.69-2.331 37.377-21.807 35.049-43.496C135.162 13.725 115.688-1.969 93.998.362" fill="#E76C25"/><path d="M74.57 21.33a38.93 38.93 0 0 0-4.378-6.693 39.266 39.266 0 0 0-4.398 6.646 31.72 31.72 0 0 1 4.358 9.095c.418 1.379.736 2.798.962 4.258a31.645 31.645 0 0 1 .007 9.694c.663 5.949 3.085 10.927 4.345 11.514a39.24 39.24 0 0 0 3.443-18.986 42.809 42.809 0 0 0-.126-1.579A39.316 39.316 0 0 0 74.57 21.33m-7.004 27.43c-.378-1.28-.69-2.59-.909-3.94a38.436 38.436 0 0 1-.245-1.765 32.421 32.421 0 0 1 .219-8.461c-.697-5.903-3.509-11.09-4.404-11.229a39.247 39.247 0 0 0-3.284 20.49 39.224 39.224 0 0 0 4.205 13.963 39.613 39.613 0 0 0 4.378 6.682 39.68 39.68 0 0 0 4.404-6.643 31.77 31.77 0 0 1-4.364-9.097" fill="#E76C25"/><path fill="#231815" d="M84.134 100.119h9.996v2.418h-6.838v4.467h6.374v2.425h-6.374v6.865h-3.158zm30.957 9.357l-1.359-3.983c-.325-.982-.617-2.086-.876-3.025h-.047c-.259.939-.517 2.066-.822 3.025l-1.334 3.983h4.438zm-4.955 2.238l-1.492 4.58h-3.257l5.545-16.175h4.033l5.625 16.175h-3.383l-1.572-4.58h-5.499zm24.184 4.58v-16.175h3.589l4.477 6.935a42.738 42.738 0 0 1 2.951 5.432h.054c-.206-2.162-.279-4.258-.279-6.726v-5.641h2.925v16.175h-3.263l-4.524-7.124c-1.101-1.751-2.262-3.747-3.111-5.572l-.08.023c.133 2.093.159 4.225.159 6.892v5.781h-2.898zm31.984-13.71h-4.936v-2.465h13.081v2.465h-4.982v13.71h-3.163zm31.168 6.536h-6.527v4.753h7.303v2.421h-10.467v-16.175h10.076v2.418h-6.912v4.183h6.527zm29.477.574c-.106-2.089-.232-4.609-.206-6.819h-.086a75.878 75.878 0 0 1-2.049 6.215l-2.521 7.015h-2.435l-2.314-6.916a73.378 73.378 0 0 1-1.744-6.314h-.054a321.12 321.12 0 0 1-.312 6.919l-.384 6.5h-2.959l1.161-16.175h4.159l2.262 6.503a73.5 73.5 0 0 1 1.592 5.619h.079a79.558 79.558 0 0 1 1.718-5.645l2.395-6.477h4.106l1.008 16.175h-3.084l-.332-6.6zm-201.641-.48v4.344h3.038c1.18 0 1.937-.03 2.255-.096.484-.09.882-.306 1.194-.65.299-.345.451-.803.451-1.383 0-.488-.113-.899-.352-1.241-.232-.338-.577-.587-1.028-.743-.444-.149-1.413-.232-2.905-.232h-2.653v.001zm0-6.464v3.76h2.156c1.273 0 2.069-.02 2.381-.053.557-.072 1.002-.265 1.327-.59.325-.315.478-.743.478-1.266 0-.504-.133-.912-.411-1.221-.278-.314-.689-.511-1.24-.574-.325-.036-1.26-.055-2.806-.055h-1.885v-.001zm-3.283-2.707h6.506c1.28 0 2.242.053 2.872.159a4.327 4.327 0 0 1 1.698.673 4.14 4.14 0 0 1 1.24 1.364c.332.556.504 1.197.504 1.896 0 .764-.206 1.46-.617 2.097a3.807 3.807 0 0 1-1.665 1.426c.988.291 1.752.782 2.282 1.479.531.696.796 1.509.796 2.454 0 .736-.172 1.45-.511 2.156-.351.697-.815 1.254-1.413 1.672-.597.418-1.327.673-2.202.77-.544.059-1.864.096-3.96.106h-5.532v-16.252h.002zm27.029 16.251v-6.832l-5.956-9.419h3.848l3.827 6.435 3.747-6.435h3.781l-5.976 9.439v6.812z"/></g></svg>