<svg width="14" height="14" xmlns="http://www.w3.org/2000/svg"><path d="M2.438 6.484l-.031-.078-.016-.094-.016-.063V6.03l.016-.094.063-.188.094-.219.078-.109v-.078l.016-.078.016-.094.031-.125.031-.109.016-.063.031-.047.047-.063.031-.047v-.281l.031-.141.016-.172.047-.188.094-.328.094-.25.063-.109.047-.141.078-.125.063-.141.094-.141.047-.078.047-.063.094-.141.109-.141.109-.156.125-.141.281-.281.172-.156.109-.094.125-.109.141-.094.281-.156.156-.078.172-.078.172-.047.156-.063.188-.047.172-.047.375-.063.391-.047.188-.016h.594l.203.016.203.031.203.016.563.141.203.047.188.078.188.063.188.094.172.078.172.094.156.109.141.109.078.047.063.047.141.109.219.219.109.125.188.25.156.25.078.141.063.109.109.266.063.125.047.125.031.125.047.125.031.109.031.125.063.234.063.375.016.156.031.234.016.047.031.031.063.125.047.078.047.094.063.078.047.109.031.125.031.109.016.141.031.125v.078l-.016.063v.078l-.047.234-.047.078-.031.094v.016l.016.031.047.063.172.25.141.203.063.125.094.141.078.156.078.172.094.188.094.203.063.125.047.141.094.25.031.125.031.109.047.234.031.234.031.219v.297l-.047.281-.031.156-.047.156-.016.063-.094.188-.078.078-.031.047-.047.031-.047.016-.047.031-.031.016h-.063l-.094-.047-.031-.031-.031-.016-.125-.125-.078-.094-.047-.094-.047-.078-.063-.094-.156-.313h-.016l-.047.016-.016.047-.031.047-.063.156-.078.234-.109.266-.078.125-.094.141-.219.313-.047.078-.063.078-.156.141.016.016.016.031.078.047.328.156.141.078.125.078.141.094.109.094.063.047.047.063.047.047.031.078.016.047.031.063.016.063v.156l-.016.047-.031.047v.031l-.031.031-.047.078-.063.063-.047.063-.031.031-.188.125-.219.094-.141.063-.125.031-.156.031-.297.078-.344.031-.188.016h-.75l-.188-.031-.203-.016-.406-.063-.203-.047-.203-.031-.188-.063-.406-.125-.109-.047-.094-.031-.063-.016-.047-.016h-.172l-.188-.016h-.094l-.125-.016-.078.063-.109.078-.156.063-.156.094-.094.047-.109.047-.234.094-.25.063-.188.031-.219.016-.125.016-.156.016h-.594l-.328-.016-.328-.031-.172-.016-.156-.031-.156-.016-.156-.031-.281-.094-.25-.094-.109-.047-.109-.063-.094-.078-.109-.109-.063-.094-.016-.031-.047-.141-.016-.063v-.047l.016-.047v-.063l.016-.047v-.172l.031-.063.016-.063.047-.078.016-.031.031-.047.109-.109.094-.063.063-.016.047-.031.078-.047.156-.047.078-.016.188-.016.109-.016.031-.016h.031v-.016l-.031-.031-.047-.031-.156-.125-.094-.078-.109-.094-.125-.109-.109-.141-.141-.156-.047-.094-.125-.188-.047-.109-.078-.109-.094-.25-.063-.141-.031-.125-.047-.156-.016-.016h-.031l-.031.016-.016.016v.047l-.016.016-.016.063-.078.109-.031.078-.047.063-.188.234-.094.063-.063.078-.078.047-.094.063-.094.031-.188.031H.834l-.063-.063-.047-.094-.016-.063-.031-.063-.031-.156-.031-.172-.016-.094v-.328l.016-.234.016-.125.031-.141.016-.125.031-.141.094-.281.063-.156.047-.141.078-.141.063-.156.094-.141.094-.156.109-.141.109-.156.078-.109.125-.125.109-.125.063-.063.063-.078.109-.078.094-.094.172-.141.125-.094z"/></svg>