<svg width="29" height="29" xmlns="http://www.w3.org/2000/svg"><g stroke="#000" stroke-width=".65" fill="none"><path d="M28.541 14.292c0 7.648-6.2 13.848-13.848 13.848-7.648 0-13.849-6.2-13.849-13.848C.844 6.644 7.045.444 14.693.444c7.648 0 13.848 6.2 13.848 13.848z"/><path d="M19.713 23.397H9.673c-.678 0-1.227-.563-1.227-1.257V11.175c0-3.537 2.797-6.404 6.247-6.404 3.45 0 6.247 2.867 6.247 6.404V22.14c0 .694-.55 1.257-1.227 1.257zM9.59 11.11c0-2.889 2.285-5.23 5.103-5.23 2.818 0 5.102 2.341 5.102 5.23 0 2.889-2.284 5.231-5.102 5.231-2.818 0-5.103-2.342-5.103-5.231zm5.103-4.126v2.308-2.308zm-2.436 4.314l1.592 1.632-1.592-1.632zm4.872 0l-1.592 1.632 1.592-1.632z"/></g></svg>