<svg width="30" height="29" viewBox="0 0 30 29" xmlns="http://www.w3.org/2000/svg"><g stroke="#000" stroke-width=".65" fill="none"><path d="M28.817 14.438c0 7.648-6.2 13.848-13.848 13.848-7.648 0-13.849-6.2-13.849-13.848 0-7.648 6.201-13.848 13.849-13.848 7.648 0 13.848 6.2 13.848 13.848z"/><path d="M22.582 17.657c0 2.414-1.957 4.371-4.371 4.371h-6.486c-2.413 0-4.37-1.957-4.37-4.371v-6.484c0-2.415 1.957-4.372 4.37-4.372h6.486c2.414 0 4.371 1.957 4.371 4.372v6.484zm-4.437-6.418v3.966-3.966zm-6.354 0v3.966-3.966zm2.476 6.474v-.695c0-.388.314-.702.702-.702.387 0 .701.314.701.702v.695h-1.403zm0 0h1.403-1.403z"/></g></svg>