<svg width="29" height="30" viewBox="0 0 29 30" xmlns="http://www.w3.org/2000/svg"><g stroke="#000" stroke-width=".65" fill="none"><path d="M28.541 15.058c0 7.648-6.2 13.848-13.848 13.848-7.648 0-13.849-6.2-13.849-13.848 0-7.648 6.201-13.848 13.849-13.848 7.648 0 13.848 6.2 13.848 13.848z"/><path d="M22.306 18.564c0 2.269-1.839 4.108-4.108 4.108h-7.011c-2.269 0-4.108-1.839-4.108-4.108v-7.011c0-2.269 1.839-4.108 4.108-4.108h7.011c2.269 0 4.108 1.839 4.108 4.108v7.011zm-1.771-3.506c0 3.227-2.616 5.843-5.842 5.843-3.227 0-5.843-2.616-5.843-5.843 0-3.226 2.616-5.842 5.843-5.842 3.226 0 5.842 2.616 5.842 5.842z"/></g></svg>