<svg width="30" height="29" xmlns="http://www.w3.org/2000/svg"><g stroke="#000" stroke-width=".65" fill="none"><path d="M28.817 14.438c0 7.648-6.2 13.848-13.848 13.848-7.648 0-13.849-6.2-13.849-13.848C1.12 6.79 7.321.59 14.969.59c7.648 0 13.848 6.2 13.848 13.848z"/><path d="M22.582 17.657a4.371 4.371 0 0 1-4.371 4.371h-6.486a4.37 4.37 0 0 1-4.37-4.371v-6.484a4.371 4.371 0 0 1 4.37-4.372h6.486a4.371 4.371 0 0 1 4.371 4.372v6.484zm-4.437-6.418v3.966-3.966zm-6.354 0v3.966-3.966zm2.476 6.474v-.695a.702.702 0 1 1 1.403 0v.695h-1.403zm0 0h1.403-1.403z"/></g></svg>