<svg width="30" height="30" xmlns="http://www.w3.org/2000/svg"><g stroke="#000" stroke-width=".65" fill="none"><path d="M29.467 15.25c0 7.828-6.345 14.173-14.173 14.173S1.121 23.078 1.121 15.25 7.466 1.077 15.294 1.077 29.467 7.422 29.467 15.25z"/><path d="M21.851 22.336H8.388v-7.559c0-.756.36-2.262 1.298-3.3.756-.839 1.886-1.25 2.673-1.46.8-.213 1.843-.284 2.417-.312.752-.035 2.468.165 2.468.165 1.568.294 2.407.663 3.153 1.386.964.934 1.454 2.427 1.454 3.139v7.941zm-11.332-2.117a.551.551 0 1 1-1.102.002.551.551 0 0 1 1.102-.002zm1.65 0a.53.53 0 1 1-1.06 0 .53.53 0 0 1 1.06 0zm1.67 0a.53.53 0 1 1-1.06 0 .53.53 0 0 1 1.06 0zm1.672 0a.53.53 0 1 1-1.061-.001.53.53 0 0 1 1.061.001zm1.67 0a.53.53 0 1 1-1.06 0 .53.53 0 1 1 1.06 0zm1.671 0a.53.53 0 1 1-1.06 0 .53.53 0 0 1 1.06 0zm1.274 2.117h1.642v-2.791h-1.642v2.791zm1.725-8.152V8.163v6.021z"/></g></svg>