<svg width="29" height="30" xmlns="http://www.w3.org/2000/svg"><g stroke="#000" stroke-width=".65" fill="none"><path d="M28.541 15.058c0 7.648-6.2 13.848-13.848 13.848-7.648 0-13.849-6.2-13.849-13.848C.844 7.41 7.045 1.21 14.693 1.21c7.648 0 13.848 6.2 13.848 13.848z"/><path d="M22.306 18.564a4.108 4.108 0 0 1-4.108 4.108h-7.011a4.108 4.108 0 0 1-4.108-4.108v-7.011a4.108 4.108 0 0 1 4.108-4.108h7.011a4.108 4.108 0 0 1 4.108 4.108v7.011zm-1.771-3.506a5.843 5.843 0 1 1-11.686 0 5.843 5.843 0 0 1 11.686 0z"/></g></svg>