<svg width="29" height="30" viewBox="0 0 29 30" xmlns="http://www.w3.org/2000/svg"><g stroke="#000" stroke-width=".65" fill="none"><path d="M28.54 15.164c0 7.648-6.2 13.848-13.848 13.848-7.648 0-13.848-6.2-13.848-13.848 0-7.648 6.2-13.848 13.848-13.848 7.648 0 13.848 6.2 13.848 13.848z"/><path d="M10.73 7.868c.975-.423 6.134-.423 7.876 0 .988.177 1.589 1.101 1.817 2.295.508 1.241.563 8.231 0 9.949-.383 1.182-.938 1.995-1.817 2.295-1.005.546-6.737.437-7.876 0-.881-.054-1.544-1.211-1.817-2.295-.621-1.664-.293-9.036 0-9.949.171-1.135 1.159-2.254 1.817-2.295zm3.938 7.649c1.266 0 2.292 1.026 2.292 2.292 0 1.266-1.026 2.292-2.292 2.292-1.266 0-2.292-1.026-2.292-2.292 0-1.266 1.026-2.292 2.292-2.292z"/></g></svg>