<svg width="29" height="30" xmlns="http://www.w3.org/2000/svg"><g stroke="#000" stroke-width=".65" fill="none"><path d="M28.541 15.162c0 7.648-6.2 13.848-13.848 13.848-7.648 0-13.849-6.2-13.849-13.848 0-7.648 6.201-13.848 13.849-13.848 7.648 0 13.848 6.2 13.848 13.848z"/><path d="M12.534 20.374a.41.41 0 0 1-.398-.309l-1.721-6.72-.027-.065-.054-.132a4.666 4.666 0 0 1 4.359-6.313 4.667 4.667 0 0 1 4.66 4.663 4.63 4.63 0 0 1-.371 1.812l-1.791 6.758a.412.412 0 0 1-.397.306h-4.26zm-2.125-7.029h8.568-8.568zm2.553 8.503h3.463-3.463zm.564 1.599h2.334-2.334z"/></g></svg>