<svg width="30" height="30" viewBox="0 0 30 30" xmlns="http://www.w3.org/2000/svg"><g stroke="#000" stroke-width=".65" fill="none"><path d="M29.467 15.25c0 7.828-6.345 14.173-14.173 14.173s-14.173-6.345-14.173-14.173 6.345-14.173 14.173-14.173 14.173 6.345 14.173 14.173z"/><path d="M21.851 22.336h-13.463v-7.559c0-.756.36-2.262 1.298-3.3.756-.839 1.886-1.25 2.673-1.46.8-.213 1.843-.284 2.417-.312.752-.035 2.468.165 2.468.165 1.568.294 2.407.663 3.153 1.386.964.934 1.454 2.427 1.454 3.139v7.941zm-11.332-2.117c0 .305-.246.552-.551.552-.305 0-.552-.247-.552-.552 0-.305.247-.552.552-.552.305 0 .551.247.551.552zm1.65 0c0 .293-.238.53-.53.53-.294 0-.531-.237-.531-.53 0-.293.237-.531.531-.531.292 0 .53.238.53.531zm1.67 0c0 .293-.237.53-.53.53-.292 0-.53-.237-.53-.53 0-.293.238-.531.53-.531.293 0 .53.238.53.531zm1.672 0c0 .293-.238.53-.531.53-.292 0-.53-.237-.53-.53 0-.293.238-.531.53-.531.293 0 .531.238.531.531zm1.67 0c0 .293-.236.53-.531.53-.292 0-.529-.237-.529-.53 0-.293.237-.531.529-.531.295 0 .531.238.531.531zm1.671 0c0 .293-.237.53-.53.53-.292 0-.531-.237-.531-.53 0-.293.239-.531.531-.531.293 0 .53.238.53.531zm1.274 2.117h1.642v-2.791h-1.642v2.791zm1.725-8.152v-6.021 6.021z"/></g></svg>