<svg width="29" height="29" xmlns="http://www.w3.org/2000/svg"><g stroke="#000" stroke-width=".65" fill="none"><path d="M28.266 14.474c0 7.648-6.2 13.848-13.848 13.848-7.648 0-13.849-6.2-13.849-13.848C.569 6.826 6.77.626 14.418.626c7.648 0 13.848 6.2 13.848 13.848z"/><path d="M20.793 22.603H8.041a1.753 1.753 0 0 1-1.753-1.753V8.098c0-.968.785-1.753 1.753-1.753h12.752c.968 0 1.753.785 1.753 1.753V20.85c0 .968-.785 1.753-1.753 1.753zm-4.77-5.796h-3.212a.728.728 0 0 1-.727-.727v-3.212c0-.401.326-.727.727-.727h3.212c.401 0 .727.326.727.727v3.212a.728.728 0 0 1-.727.727z"/></g></svg>