<svg width="29" height="29" viewBox="0 0 29 29" xmlns="http://www.w3.org/2000/svg"><g stroke="#000" stroke-width=".65" fill="none"><path d="M28.157 14.598c0 7.648-6.2 13.848-13.848 13.848-7.648 0-13.849-6.2-13.849-13.848 0-7.648 6.201-13.848 13.849-13.848 7.648 0 13.848 6.2 13.848 13.848z"/><path d="M5.319 19.579h17.979v-9.961h-17.979v9.961zm5.432-1.823h10.712v-6.315h-10.712v6.315zm-4.176-6.152h1.948-1.948zm-.02 5.989h1.947-1.947zm1.968-2.995c0 .538-.436.974-.974.974s-.974-.436-.974-.974c0-.537.436-.974.974-.974s.974.437.974.974z"/></g></svg>