<svg width="14" height="12" viewBox="0 0 14 12" xmlns="http://www.w3.org/2000/svg"><path d="M9.5.297c.563-.01 1.01.073 1.344.25.333.177.641.396.922.656.24-.021.5-.086.781-.195.281-.109.51-.211.688-.305l.188-.094.172-.109c-.104.292-.229.547-.375.766-.146.219-.328.417-.547.594l-.156.117-.156.102c.302 0 .586-.052.852-.156.266-.104.518-.198.758-.281v.016c-.125.198-.271.396-.438.594-.167.198-.344.37-.531.516l-.219.18-.219.18c0 .323-.008.641-.023.953-.016.313-.055.609-.117.891-.177.802-.427 1.542-.75 2.219-.333.667-.734 1.268-1.203 1.805-.469.536-1.01.997-1.625 1.383-.604.385-1.286.698-2.047.938-.531.167-1.185.273-1.961.32-.776.047-1.471-.008-2.086-.164-.313-.073-.607-.154-.883-.242-.276-.089-.544-.19-.805-.305l-.422-.195c-.135-.068-.266-.143-.391-.227l-.125-.07-.125-.086.438.047c.156.021.312.021.469 0 .146-.031.286-.047.422-.047.135 0 .271-.016.406-.047.323-.073.628-.159.914-.258.286-.099.555-.221.805-.367l.406-.234c.156-.083.281-.172.375-.266-.167 0-.323-.016-.469-.047l-.391-.109c-.469-.167-.846-.401-1.133-.703-.286-.302-.513-.682-.68-1.141.135.021.357.036.664.047.307.01.513-.021.617-.094-.177-.01-.349-.057-.516-.141l-.438-.234c-.365-.24-.68-.56-.945-.961-.266-.401-.398-.904-.398-1.508l.148.078.148.063.289.102.305.07.195.039.195-.008c-.073-.083-.161-.159-.266-.227-.104-.068-.193-.143-.266-.227-.24-.302-.443-.674-.609-1.117-.167-.443-.177-.94-.031-1.492.031-.135.076-.266.133-.391l.164-.344h.016l.125.156.141.141c.125.156.26.302.406.438.146.135.297.26.453.375.521.417 1.044.758 1.57 1.023.526.266 1.169.492 1.93.68l.609.117c.219.036.443.055.672.055-.063-.188-.089-.414-.078-.68.01-.266.042-.492.094-.68.135-.448.339-.836.609-1.164.271-.328.609-.581 1.016-.758l.305-.109.336-.078.172-.023.172-.023z" fill="#000"/></svg>