<svg width="14" height="12" xmlns="http://www.w3.org/2000/svg"><path d="M9.5.297c.563-.01 1.01.073 1.344.25.333.177.641.396.922.656.24-.021.5-.086.781-.195.281-.109.51-.211.688-.305l.188-.094.172-.109a3.48 3.48 0 0 1-.375.766 2.66 2.66 0 0 1-.547.594l-.156.117-.156.102c.302 0 .586-.052.852-.156.266-.104.518-.198.758-.281v.016a5.374 5.374 0 0 1-.438.594c-.167.198-.344.37-.531.516l-.219.18-.219.18c0 .323-.008.641-.023.953a5.43 5.43 0 0 1-.117.891 10.283 10.283 0 0 1-.75 2.219 8.5 8.5 0 0 1-1.203 1.805 7.306 7.306 0 0 1-1.625 1.383 8.6 8.6 0 0 1-2.047.938c-.531.167-1.185.273-1.961.32-.776.047-1.471-.008-2.086-.164a11.52 11.52 0 0 1-.883-.242 8.343 8.343 0 0 1-.805-.305l-.422-.195a3.617 3.617 0 0 1-.391-.227l-.125-.07-.125-.086.438.047c.156.021.312.021.469 0 .146-.031.286-.047.422-.047.135 0 .271-.016.406-.047.323-.073.628-.159.914-.258.286-.099.555-.221.805-.367l.406-.234c.156-.083.281-.172.375-.266-.167 0-.323-.016-.469-.047l-.391-.109c-.469-.167-.846-.401-1.133-.703a3.25 3.25 0 0 1-.68-1.141c.135.021.357.036.664.047.307.01.513-.021.617-.094a1.302 1.302 0 0 1-.516-.141l-.438-.234a3.32 3.32 0 0 1-.945-.961C.679 5.392.547 4.889.547 4.285l.148.078.148.063.289.102.305.07.195.039.195-.008a1.271 1.271 0 0 0-.266-.227 1.267 1.267 0 0 1-.266-.227 4.087 4.087 0 0 1-.609-1.117c-.167-.443-.177-.94-.031-1.492.031-.135.076-.266.133-.391L.952.831h.016l.125.156.141.141c.125.156.26.302.406.438.146.135.297.26.453.375a9.014 9.014 0 0 0 1.57 1.023c.526.266 1.169.492 1.93.68l.609.117c.219.036.443.055.672.055a1.9 1.9 0 0 1-.078-.68c.01-.266.042-.492.094-.68.135-.448.339-.836.609-1.164A2.685 2.685 0 0 1 8.515.534L8.82.425l.336-.078.172-.023L9.5.301z"/></svg>