<svg width="16" height="13" viewBox="0 0 16 13" xmlns="http://www.w3.org/2000/svg"><path d="M11.672 6.359c.302.063.755.339 1.359.828.604.49.641 1.292.109 2.406-.26.563-.656 1.047-1.188 1.453-.531.417-1.125.755-1.781 1.016-.656.26-1.344.448-2.063.563-.719.104-1.401.13-2.047.078-.604-.042-1.24-.135-1.906-.281-.656-.135-1.266-.354-1.828-.656-.563-.302-1.042-.693-1.438-1.172-.396-.49-.635-1.104-.719-1.844l.078-.883c.052-.589.401-1.315 1.047-2.18l.328-.422c.208-.271.497-.594.867-.969s.799-.745 1.289-1.109c.49-.375 1.005-.656 1.547-.844 1.083-.365 1.758-.339 2.023.078.266.417.398.807.398 1.172-.052.313-.086.547-.102.703-.016.156.18.172.586.047l1.18-.391c.786-.26 1.398-.167 1.836.281.354.354.461.721.32 1.102l-.211.57-.07.18c-.047.12.081.211.383.273zm-5.422 5.516c.646-.031 1.245-.146 1.797-.344.563-.198 1.052-.453 1.469-.766.417-.313.745-.667.984-1.063.24-.396.359-.807.359-1.234 0-.427-.12-.807-.359-1.141-.24-.344-.568-.63-.984-.859-.417-.229-.906-.401-1.469-.516-.552-.104-1.151-.146-1.797-.125-.635.031-1.229.135-1.781.313-.563.177-1.052.409-1.469.695-.417.286-.745.612-.984.977-.24.375-.359.776-.359 1.203 0 .427.12.823.359 1.188.24.354.568.661.984.922.417.26.906.458 1.469.594.552.135 1.146.188 1.781.156zm-.5-4.922c.635-.073 1.151.005 1.547.234.385.219.661.505.828.859.167.354.234.724.203 1.109s-.146.703-.344.953c-.385.51-.93.854-1.633 1.031-.703.177-1.43.063-2.18-.344-.354-.188-.557-.424-.609-.711l-.078-.43.172-1.234c.115-.823.812-1.312 2.094-1.469zm-.656 3.375c.24-.031.445-.128.617-.289.172-.161.258-.341.258-.539s-.083-.365-.25-.5c-.167-.135-.385-.188-.656-.156-.24.021-.437.12-.594.297-.156.177-.234.365-.234.563 0 .198.086.357.258.477.172.12.372.169.602.148zm1.516-1.297c.083-.063.138-.141.164-.234.026-.094.018-.177-.023-.25-.042-.073-.107-.115-.195-.125-.089-.01-.185.021-.289.094-.073.052-.12.128-.141.227-.021.099-.01.185.031.258.052.073.12.112.203.117.083.005.167-.023.25-.086zm6.313-3.719c-.115 0-.214-.039-.297-.117-.083-.078-.125-.18-.125-.305l-.023-.883c-.016-.589-.497-.779-1.445-.57-.115 0-.211-.042-.289-.125-.078-.083-.117-.182-.117-.297 0-.115.039-.214.117-.297.078-.083.174-.125.289-.125l.406-.031c.271-.021.56.026.867.141.307.115.576.339.805.672.229.323.307.839.234 1.547v.047c-.021.094-.07.174-.148.242-.078.068-.169.102-.273.102zm-.297-5.172c.406.094.828.292 1.266.594.438.302.815.674 1.133 1.117.318.443.534.945.648 1.508.115.573.047 1.172-.203 1.797h-.016c-.031.5-.102.755-.211.766l-.367.016-.43-.016c-.12-.01-.18-.104-.18-.281 0-.146.021-.279.063-.398l.063-.18.102-.633c.057-.359-.039-.826-.289-1.398-.469-.781-1.065-1.237-1.789-1.367-.724-.13-1.138-.174-1.242-.133-.115.042-.237.073-.367.094l-.195.031c-.167 0-.31-.06-.43-.18s-.18-.263-.18-.43c0-.146.044-.276.133-.391.089-.115.195-.187.32-.219v-.023l.016-.023.031-.047.031-.047c.125-.021.391-.078.797-.172.406-.094.839-.089 1.297.016z" fill="#000"/></svg>