<svg width="16" height="13" xmlns="http://www.w3.org/2000/svg"><path d="M11.672 6.359c.302.063.755.339 1.359.828.604.49.641 1.292.109 2.406a3.845 3.845 0 0 1-1.188 1.453 7.134 7.134 0 0 1-1.781 1.016 9.77 9.77 0 0 1-2.063.563 9.157 9.157 0 0 1-2.047.078 13.19 13.19 0 0 1-1.906-.281 6.69 6.69 0 0 1-1.828-.656 4.772 4.772 0 0 1-1.438-1.172C.493 10.104.254 9.49.17 8.75l.078-.883c.052-.589.401-1.315 1.047-2.18l.328-.422c.208-.271.497-.594.867-.969s.799-.745 1.289-1.109a5.509 5.509 0 0 1 1.547-.844c1.083-.365 1.758-.339 2.023.078.266.417.398.807.398 1.172a12.49 12.49 0 0 0-.102.703c-.016.156.18.172.586.047l1.18-.391c.786-.26 1.398-.167 1.836.281.354.354.461.721.32 1.102l-.211.57-.07.18c-.047.12.081.211.383.273zM6.25 11.875a6.172 6.172 0 0 0 1.797-.344 5.424 5.424 0 0 0 1.469-.766c.417-.313.745-.667.984-1.063.24-.396.359-.807.359-1.234 0-.427-.12-.807-.359-1.141a2.845 2.845 0 0 0-.984-.859 5.2 5.2 0 0 0-1.469-.516 8.257 8.257 0 0 0-1.797-.125 6.875 6.875 0 0 0-1.781.313A5.49 5.49 0 0 0 3 6.835a3.56 3.56 0 0 0-.984.977c-.24.375-.359.776-.359 1.203 0 .427.12.823.359 1.188.24.354.568.661.984.922.417.26.906.458 1.469.594a6.165 6.165 0 0 0 1.781.156zm-.5-4.922c.635-.073 1.151.005 1.547.234.385.219.661.505.828.859.167.354.234.724.203 1.109s-.146.703-.344.953c-.385.51-.93.854-1.633 1.031-.703.177-1.43.063-2.18-.344-.354-.188-.557-.424-.609-.711l-.078-.43.172-1.234c.115-.823.812-1.312 2.094-1.469zm-.656 3.375c.24-.031.445-.128.617-.289.172-.161.258-.341.258-.539s-.083-.365-.25-.5c-.167-.135-.385-.188-.656-.156a.865.865 0 0 0-.594.297.841.841 0 0 0-.234.563c0 .198.086.357.258.477.172.12.372.169.602.148zM6.61 9.031a.438.438 0 0 0 .164-.234.318.318 0 0 0-.023-.25.244.244 0 0 0-.195-.125c-.089-.01-.185.021-.289.094a.358.358 0 0 0-.141.227.36.36 0 0 0 .031.258.26.26 0 0 0 .203.117.373.373 0 0 0 .25-.086zm6.313-3.719a.419.419 0 0 1-.297-.117.4.4 0 0 1-.125-.305l-.023-.883c-.016-.589-.497-.779-1.445-.57a.38.38 0 0 1-.289-.125.419.419 0 0 1-.117-.297c0-.115.039-.214.117-.297a.38.38 0 0 1 .289-.125l.406-.031c.271-.021.56.026.867.141.307.115.576.339.805.672.229.323.307.839.234 1.547v.047a.443.443 0 0 1-.421.344zM12.626.14c.406.094.828.292 1.266.594.438.302.815.674 1.133 1.117.318.443.534.945.648 1.508.115.573.047 1.172-.203 1.797h-.016c-.031.5-.102.755-.211.766l-.367.016-.43-.016c-.12-.01-.18-.104-.18-.281 0-.146.021-.279.063-.398l.063-.18.102-.633c.057-.359-.039-.826-.289-1.398-.469-.781-1.065-1.237-1.789-1.367-.724-.13-1.138-.174-1.242-.133a1.992 1.992 0 0 1-.367.094l-.195.031c-.167 0-.31-.06-.43-.18s-.18-.263-.18-.43c0-.146.044-.276.133-.391a.58.58 0 0 1 .32-.219V.414l.016-.023.031-.047.031-.047c.125-.021.391-.078.797-.172a2.862 2.862 0 0 1 1.297.016z"/></svg>