<svg width="16" height="13" viewBox="0 0 16 13" xmlns="http://www.w3.org/2000/svg"><path d="M10.828 3.969c-.677 0-1.307.12-1.891.359-.583.229-1.091.547-1.523.953-.432.406-.773.88-1.023 1.422-.25.542-.375 1.12-.375 1.734 0 .208.016.411.047.609s.078.391.141.578l-.273.016h-.258c-.354 0-.685-.029-.992-.086l-.992-.195-1.969 1 .563-1.703c-.708-.5-1.263-1.068-1.664-1.703s-.602-1.339-.602-2.109c0-.677.151-1.307.453-1.891.292-.583.695-1.091 1.211-1.523.516-.432 1.112-.773 1.789-1.023.688-.25 1.422-.375 2.203-.375.688 0 1.349.104 1.984.313.635.198 1.208.474 1.719.828.51.354.937.771 1.281 1.25.354.49.594 1.016.719 1.578l-.273-.023-.273-.008zm-3.047-1.531c-.208 0-.401.065-.578.195-.177.13-.266.299-.266.508 0 .219.089.391.266.516.177.125.37.188.578.188.219 0 .393-.062.523-.188.13-.125.195-.297.195-.516 0-.208-.065-.378-.195-.508s-.305-.195-.523-.195zm-3.953 1.406c.219 0 .391-.065.516-.195s.188-.299.188-.508c0-.208-.062-.378-.188-.508-.125-.13-.297-.195-.516-.195-.208 0-.401.065-.578.195-.177.13-.266.299-.266.508 0 .208.089.378.266.508.177.13.37.195.578.195zm12.156 4.531c0 .635-.19 1.229-.57 1.781-.38.552-.852 1.042-1.414 1.469l.422 1.406-1.547-.844c-.281.073-.562.138-.844.195-.281.057-.562.086-.844.086-.677 0-1.307-.104-1.891-.313-.583-.219-1.091-.513-1.523-.883-.432-.37-.773-.805-1.023-1.305-.25-.5-.375-1.031-.375-1.594 0-.563.125-1.094.375-1.594s.591-.935 1.023-1.305c.432-.37.94-.664 1.523-.883.583-.208 1.214-.313 1.891-.313.635 0 1.24.104 1.813.313.583.219 1.094.513 1.531.883.438.37.792.805 1.063 1.305.26.5.391 1.031.391 1.594zm-6.359-.703c.208 0 .378-.06.508-.18s.195-.253.195-.398c0-.135-.065-.263-.195-.383s-.299-.18-.508-.18c-.146 0-.276.06-.391.18-.115.12-.172.247-.172.383 0 .146.057.279.172.398.115.12.245.18.391.18zm3.109 0c.208 0 .378-.06.508-.18s.195-.253.195-.398c0-.135-.065-.263-.195-.383s-.299-.18-.508-.18c-.146 0-.276.06-.391.18-.115.12-.172.247-.172.383 0 .146.057.279.172.398.115.12.245.18.391.18z" fill="#000"/></svg>