<svg width="16" height="13" xmlns="http://www.w3.org/2000/svg"><path d="M10.828 3.969c-.677 0-1.307.12-1.891.359a4.717 4.717 0 0 0-1.523.953c-.432.406-.773.88-1.023 1.422a4.09 4.09 0 0 0-.328 2.343c.031.198.078.391.141.578l-.273.016h-.258c-.354 0-.685-.029-.992-.086l-.992-.195-1.969 1 .563-1.703c-.708-.5-1.263-1.068-1.664-1.703S.017 5.614.017 4.844c0-.677.151-1.307.453-1.891A4.736 4.736 0 0 1 1.681 1.43 5.993 5.993 0 0 1 3.47.407 6.4 6.4 0 0 1 5.673.032c.688 0 1.349.104 1.984.313a6.278 6.278 0 0 1 1.719.828c.51.354.937.771 1.281 1.25.354.49.594 1.016.719 1.578l-.273-.023-.273-.008zM7.781 2.438a.957.957 0 0 0-.578.195.603.603 0 0 0-.266.508c0 .219.089.391.266.516.177.125.37.188.578.188.219 0 .393-.062.523-.188.13-.125.195-.297.195-.516 0-.208-.065-.378-.195-.508s-.305-.195-.523-.195zM3.828 3.844c.219 0 .391-.065.516-.195s.188-.299.188-.508a.7.7 0 0 0-.188-.508c-.125-.13-.297-.195-.516-.195a.957.957 0 0 0-.578.195.603.603 0 0 0-.266.508c0 .208.089.378.266.508.177.13.37.195.578.195zm12.156 4.531c0 .635-.19 1.229-.57 1.781A6.402 6.402 0 0 1 14 11.625l.422 1.406-1.547-.844c-.281.073-.562.138-.844.195a4.234 4.234 0 0 1-.844.086 5.57 5.57 0 0 1-1.891-.313 5.042 5.042 0 0 1-1.523-.883A4.144 4.144 0 0 1 6.75 9.967a3.516 3.516 0 0 1-.375-1.594c0-.563.125-1.094.375-1.594s.591-.935 1.023-1.305c.432-.37.94-.664 1.523-.883a5.59 5.59 0 0 1 1.891-.313 5.146 5.146 0 0 1 3.344 1.196c.438.37.792.805 1.063 1.305.26.5.391 1.031.391 1.594zm-6.359-.703c.208 0 .378-.06.508-.18s.195-.253.195-.398c0-.135-.065-.263-.195-.383s-.299-.18-.508-.18a.529.529 0 0 0-.391.18.546.546 0 0 0-.172.383.56.56 0 0 0 .172.398c.115.12.245.18.391.18zm3.109 0c.208 0 .378-.06.508-.18s.195-.253.195-.398c0-.135-.065-.263-.195-.383s-.299-.18-.508-.18a.529.529 0 0 0-.391.18.546.546 0 0 0-.172.383.56.56 0 0 0 .172.398c.115.12.245.18.391.18z"/></svg>