<svg xmlns="http://www.w3.org/2000/svg" width="43" height="41"><g fill="none" fill-rule="evenodd" stroke="#221714"><path stroke-linecap="round" stroke-linejoin="round" d="M30.789 1.5a10.86 10.86 0 0 0-5.059 1.266c-1.553.816-2.946 2.025-4.028 3.488l-.208.28-.208-.28c-1.083-1.463-2.476-2.672-4.027-3.488A10.858 10.858 0 0 0 12.198 1.5C5.747 1.5.5 7.248.5 14.313c0 4.228 1.9 7.207 3.425 9.603C8.39 30.92 19.638 39.653 20.116 40.02c.406.314.883.48 1.377.48.496 0 .973-.166 1.378-.48.476-.367 11.716-9.084 16.19-16.104 1.527-2.396 3.425-5.375 3.425-9.603C42.486 7.248 37.24 1.5 30.789 1.5z"/><path d="M8.912 22.662l4.213-.054 4.774-9.384 5.57 14.331 5.216-4.893h5.392"/></g></svg>