<svg xmlns="http://www.w3.org/2000/svg" width="48" height="49"><g fill="none" fill-rule="evenodd"><path stroke="#040000" stroke-linecap="round" stroke-linejoin="round" d="M33.93 36.94c.2-.61.38-1.23.55-1.86H14.06c.14.54.29 1.07.46 1.6a39.93 39.93 0 0 0 5.59 11.17 23.7 23.7 0 0 0 3.56.27 23.42 23.42 0 0 0 8.61-1.63 22.88 22.88 0 0 1-3.67 1.11 40 40 0 0 0 5.32-10.66z"/><path stroke="#040000" stroke-linecap="round" stroke-linejoin="round" d="M14.52 36.68c-.17-.53-.32-1.06-.46-1.6H2.65c.25.49.5 1 .77 1.45.33.573.69 1.127 1.08 1.66v.05a23.488 23.488 0 0 0 5.82 5.73c.54.38 1.11.73 1.68 1.06l.14.07c.55.32 1.12.6 1.7.87l.21.1c.58.25 1.16.49 1.76.7l.23.08c.6.2 1.21.39 1.84.54h.18c.65.16 1.31.29 2 .39a39.93 39.93 0 0 1-5.54-11.1zm29.41-.13c.28-.47.53-1 .77-1.45H34.47a40 40 0 0 1-5.86 12.52 22.88 22.88 0 0 0 3.67-1.11h.12c.58-.23 1.15-.48 1.7-.76a23 23 0 0 0 3.24-2h.05c.51-.37 1-.76 1.47-1.16a23.48 23.48 0 0 0 2.68-2.69c.43-.5.84-1 1.23-1.57v-.05c.46-.6.82-1.16 1.16-1.73z"/><path fill="#000" fill-rule="nonzero" d="M46.09 19.21a4.05 4.05 0 0 1 1.41 3h-1.08a3.47 3.47 0 0 0-1.1-2.24 3.81 3.81 0 0 0-2.54-.75 4.53 4.53 0 0 0-2.39.53 1.9 1.9 0 0 0-1 1.77 1.87 1.87 0 0 0 1.18 1.67c.79.328 1.602.599 2.43.81a14.09 14.09 0 0 1 3.23 1.2 2.89 2.89 0 0 1 1.56 2.63 3 3 0 0 1-1.35 2.57 5.88 5.88 0 0 1-3.43.89 5.4 5.4 0 0 1-3.41-1 4.55 4.55 0 0 1-1.58-3.41h1.06a3.72 3.72 0 0 0 1.23 2.64 4.18 4.18 0 0 0 2.69.77 5.12 5.12 0 0 0 2.69-.65 2.07 2.07 0 0 0 1-1.78 2.21 2.21 0 0 0-1.28-2 13.19 13.19 0 0 0-2.76-1 15.19 15.19 0 0 1-2.88-1 2.55 2.55 0 0 1-1.44-2.35 2.78 2.78 0 0 1 1.35-2.5 5.55 5.55 0 0 1 3.13-.81 5 5 0 0 1 3.28 1.01zM23.07 18.46l3 11.11h.06l3.07-11.11h1.25l3.08 11.11 3-11.11h1.22L34.19 31h-1.26l-3.08-11-3.08 11h-1.26L21.9 18.45zM21.16 18.46v.95h-7.74V24h7.31v1h-7.31v5.06h8V31h-9.1V18.46zM1.49 18.46l7.59 10.88h.06V18.46h1.09V31H9L1.37 20h-.05v11H.25V18.46z"/><path stroke="#040000" stroke-linecap="round" stroke-linejoin="round" d="M34.49 14.17h10.22a23.58 23.58 0 0 0-1.89-3.18c-.39-.55-.8-1.07-1.23-1.58a23.6 23.6 0 0 0-4.16-3.83 24.52 24.52 0 0 0-3.23-2c-.56-.27-1.13-.53-1.71-.76h-.09a23.82 23.82 0 0 0-3.66-1.11A40.15 40.15 0 0 1 34 12.3c.14.58.32 1.22.49 1.87z"/><path stroke="#040000" stroke-linecap="round" stroke-linejoin="round" d="M14 14.17H34.45c-.17-.65-.35-1.29-.56-1.92a40.15 40.15 0 0 0-5.26-10.59 23.47 23.47 0 0 0-8.62-.26 40 40 0 0 0-5.54 11.11c-.12.55-.28 1.1-.47 1.66z"/><path stroke="#040000" stroke-linecap="round" stroke-linejoin="round" d="M14 14.17c.15-.56.31-1.11.48-1.66A40 40 0 0 1 20.02 1.4c-.69.11-1.36.25-2 .41h-.11c-.64.16-1.26.35-1.88.56l-.18.06c-.61.22-1.2.45-1.78.71l-.18.08c-.59.27-1.16.56-1.72.88l-.11.06a23.77 23.77 0 0 0-6.27 5.19c-.44.51-.85 1-1.24 1.58a23.64 23.64 0 0 0-1.9 3.18l11.35.06z"/></g></svg>