<svg xmlns="http://www.w3.org/2000/svg" width="56" height="41"><g fill="none" fill-rule="evenodd" stroke="#040000" stroke-linecap="round" stroke-linejoin="round"><path d="M43.77 28.707l-.162.077-.221.105a6.08 6.08 0 0 1-2.633.593 6.165 6.165 0 0 1-4.992-2.494l-7.905-10.524-7.838 10.525a6.233 6.233 0 0 1-4.12 2.435 6.347 6.347 0 0 1-.89.058 6.067 6.067 0 0 1-2.624-.593L12 28.707"/><path d="M10.618 27.68l-.28-.318a6.283 6.283 0 0 1-1.492-3.253 6.273 6.273 0 0 1 1.197-4.635L20.785 5.18l.01-.01.04-.056 2.461-3.273a.858.858 0 0 1 .69-.341c.185 0 .363.059.512.17l3.388 2.55 3.39-2.552a.86.86 0 0 1 1.201.174l2.482 3.302.026.026L45.73 19.476a6.274 6.274 0 0 1 1.196 4.636 6.276 6.276 0 0 1-1.492 3.25l-.279.318m-34.582-.053l1.52 1.123m-.782-.556l-7.085 9.473M.5 35.04l7.223 5.443M44.534 28.21l7.084 9.473m3.726-2.626L48.12 40.5m-4.35-11.793s.489-.214 1.383-1.028"/></g></svg>