<svg xmlns="http://www.w3.org/2000/svg" width="66" height="48"><g fill="none" fill-rule="evenodd"><path stroke="#231815" stroke-linecap="round" stroke-linejoin="round" d="M37.45 21.058h-3.08L49.831 8.139l5.568 4.775 4.243 3.57 5.653 4.574h-3.082m0 0v12.137c0 .823-.756 1.488-1.696 1.488H39.151c-.94 0-1.701-.665-1.701-1.488V21.058m-14.015-6.962v30.808c0 .965-.782 1.748-1.747 1.748H2.248A1.748 1.748 0 0 1 .5 44.904V8.246c0-.965.782-1.747 1.747-1.747H14.45"/><path stroke="#231815" stroke-linecap="round" stroke-linejoin="round" d="M20.5 14.245v24.219c0 .724-.588 1.312-1.313 1.312H4.748a1.311 1.311 0 0 1-1.31-1.313v-27.8a1.31 1.31 0 0 1 1.31-1.312h9.701"/><path fill="#231815" d="M10.913 43.247a1.053 1.053 0 1 0 2.107.001 1.053 1.053 0 0 0-2.107 0"/><path stroke="#231815" stroke-linecap="round" stroke-linejoin="round" d="M23.806 14.096h-8.988V3.823"/><path stroke="#231815" stroke-linecap="round" stroke-linejoin="round" d="M14.817 3.822V1.501h14.119v12.594h-5.13m11.923.001l-6.792-3.474V4.974L35.729 1.5z"/></g></svg>