<svg xmlns="http://www.w3.org/2000/svg" width="49" height="49"><g fill="none" fill-rule="evenodd" transform="translate(1)"><ellipse cx="23.51" cy="24.2" stroke="#221714" stroke-linecap="round" stroke-linejoin="round" stroke-width=".979" rx="23.5" ry="23.49"/><path fill="#221714" fill-rule="nonzero" d="M28.12 14.92a5.49 5.49 0 0 1 1.63 4.19 5.7 5.7 0 0 1-1.12 3.42c-.36.43-1.15 1.19-2.39 2.34a6.26 6.26 0 0 0-1.55 1.73 4.34 4.34 0 0 0-.64 2.33v.88H22.2v-.88a5.32 5.32 0 0 1 .55-2.43 10.89 10.89 0 0 1 2.79-3.3 16.77 16.77 0 0 0 1.42-1.46 4.22 4.22 0 0 0 .94-2.57 4.3 4.3 0 0 0-1.12-3.1 4.54 4.54 0 0 0-3.33-1.15 4.27 4.27 0 0 0-3.65 1.61 6.3 6.3 0 0 0-1.12 3.79h-1.82a7.52 7.52 0 0 1 1.7-5 6.14 6.14 0 0 1 5-2.06 6.29 6.29 0 0 1 4.56 1.66zm-3.89 17.83c.31.276.478.676.46 1.09a1.45 1.45 0 0 1-.46 1.09 1.54 1.54 0 0 1-1.09.43 1.63 1.63 0 0 1-1.55-1.52 1.34 1.34 0 0 1 .49-1.09 1.36 1.36 0 0 1 1.06-.42 1.45 1.45 0 0 1 1.09.42z"/></g></svg>