<svg xmlns="http://www.w3.org/2000/svg" width="55" height="49"><g fill="none" fill-rule="evenodd" stroke="#221714" stroke-linecap="round" stroke-linejoin="round"><path d="M24.856 17.83a8.54 8.54 0 1 1-.311 13.079m-13.123 8.764l3.534 3.534 2.286-1.366a6.525 6.525 0 0 1 5.932-.383 6.503 6.503 0 0 1 3.813 4.42l.66 2.622h4.999l.65-2.582a6.507 6.507 0 0 1 3.838-4.43c.019-.008.039-.015.058-.024a6.523 6.523 0 0 1 5.85.417l2.32 1.387 3.535-3.534-1.366-2.286a6.525 6.525 0 0 1-.407-5.874l.024-.058a6.501 6.501 0 0 1 4.419-3.813l2.622-.66v-4.999l-2.581-.65a6.503 6.503 0 0 1-4.454-3.896 6.523 6.523 0 0 1 .417-5.85l1.387-2.32-3.534-3.535-2.286 1.366a6.527 6.527 0 0 1-5.875.407l-.058-.024a6.504 6.504 0 0 1-3.812-4.42L32.732.5h-4.998l-.65 2.581a6.505 6.505 0 0 1-3.838 4.43c-.02.008-.04.016-.058.025a6.52 6.52 0 0 1-5.85-.418l-2.321-1.387-3.534 3.535"/><path stroke-width="2" d="M24.663 24.994H1m14.529-10.303l9.772 10.362-9.772 11.849"/></g></svg>