<svg xmlns="http://www.w3.org/2000/svg" width="56" height="49"><path fill="none" stroke="#211613" stroke-linecap="round" stroke-linejoin="round" d="M33.956 47.49h-22.57V3.332a2.312 2.312 0 0 1 2.311-2.313h17.946a2.312 2.312 0 0 1 2.313 2.313V47.49zm13.428 0h-13.22V20.271H44.58a2.805 2.805 0 0 1 2.805 2.805V47.49zm-46.413.166h54.105M17.608 12.97h10.124M17.609 24.255h10.124m9.46 5.477h7.593m-7.593 8.464h7.593M17.61 35.54h10.124M5.629 47.208v-7.196m3.227-5.352c0 2.908-1.445 5.265-3.227 5.265-1.782 0-3.227-2.357-3.227-5.265 0-2.908 1.445-5.265 3.227-5.265 1.782 0 3.227 2.357 3.227 5.265z"/></svg>