<svg xmlns="http://www.w3.org/2000/svg" xmlns:xlink="http://www.w3.org/1999/xlink" width="49" height="49"><defs><path id="a" d="M0 49h1139.349V0H0z"/></defs><g fill="none" fill-rule="evenodd" transform="translate(-346)"><mask id="b" fill="#fff"><use xlink:href="#a"/></mask><path stroke="#E76C26" stroke-linecap="round" stroke-linejoin="round" d="M366.481 6.177a1.89 1.89 0 0 0 0 2.667 1.89 1.89 0 0 0 2.666 0 1.888 1.888 0 0 0 .001-2.667 1.89 1.89 0 0 0-2.667 0zm-6.915 6.916a1.89 1.89 0 0 0 0 2.666 1.89 1.89 0 0 0 2.666 0 1.888 1.888 0 0 0 0-2.666 1.889 1.889 0 0 0-2.666 0zm-6.986 6.985a1.889 1.889 0 0 0 0 2.668c.734.734 1.93.734 2.666-.002a1.887 1.887 0 0 0 0-2.663 1.888 1.888 0 0 0-2.666-.003zm34.085 6.21a1.886 1.886 0 0 0-.001 2.665 1.89 1.89 0 0 0 2.667.001 1.89 1.89 0 0 0-.001-2.666 1.887 1.887 0 0 0-2.665 0zm-6.916 6.915a1.886 1.886 0 0 0-.001 2.666 1.89 1.89 0 0 0 2.667 0 1.886 1.886 0 0 0-2.666-2.666zm-6.988 6.988a1.887 1.887 0 0 0 0 2.665 1.888 1.888 0 0 0 2.666.001 1.889 1.889 0 0 0 0-2.667 1.886 1.886 0 0 0-2.666.001z" mask="url(#b)"/><path stroke="#E76C26" stroke-linecap="round" stroke-linejoin="round" d="M357.594 24.7l17.677-17.676L368.748.5l-17.677 17.678c-5.444 5.443-5.445 14.27 0 19.716a13.88 13.88 0 0 0 3.817 2.706c-2.495-5.188-1.595-11.6 2.706-15.9zm13.193 13.194c-4.3 4.3-10.71 5.2-15.899 2.706a13.91 13.91 0 0 0 2.706 3.816c5.445 5.446 14.272 5.445 19.716 0l17.678-17.676-6.524-6.523-17.677 17.677z" mask="url(#b)"/></g></svg>