<svg xmlns="http://www.w3.org/2000/svg" width="48" height="49"><g fill="none" fill-rule="evenodd" stroke="#E76C26" stroke-linecap="round" stroke-linejoin="round"><path d="M46.891 48.5H1.297V22.9c0-2.56 1.22-7.66 4.394-11.177 2.56-2.84 6.387-4.231 9.052-4.943 2.71-.721 6.242-.963 8.187-1.058 2.546-.12 8.357.56 8.357.56 5.312.997 8.151 2.247 10.68 4.694 3.265 3.164 4.924 8.219 4.924 10.63V48.5z"/><path d="M8.514 41.329a1.867 1.867 0 1 1-3.735 0 1.87 1.87 0 0 1 1.867-1.87 1.87 1.87 0 0 1 1.868 1.87zm5.586 0a1.795 1.795 0 1 1-3.59.001 1.795 1.795 0 0 1 3.59-.001zm5.658 0a1.795 1.795 0 1 1-1.794-1.796c.99 0 1.794.805 1.794 1.796zm5.66 0a1.797 1.797 0 1 1-3.594-.001 1.797 1.797 0 0 1 3.593.001zm5.657 0a1.794 1.794 0 1 1-3.59 0 1.795 1.795 0 1 1 3.59 0zm5.66 0a1.796 1.796 0 1 1-3.593 0 1.796 1.796 0 0 1 3.592 0zM41.046 48.5h5.562v-9.451h-5.562zM46.891 20.892V.5"/></g></svg>