<svg xmlns="http://www.w3.org/2000/svg" width="50" height="50" viewBox="0 0 50 50">
  <g fill="none" fill-rule="evenodd" stroke="#221714" transform="translate(0 1.315)">
    <path d="M48.6187,35.1161 C48.6187,42.2671 42.8207,48.0641 35.6697,48.0641 L13.5667,48.0641 C6.4157,48.0641 0.6187,42.2671 0.6187,35.1161 L0.6187,13.0131 C0.6187,5.8621 6.4157,0.0641 13.5667,0.0641 L35.6697,0.0641 C42.8207,0.0641 48.6187,5.8621 48.6187,13.0131 L48.6187,35.1161 Z"/>
    <path d="M43.0366,24.0646 C43.0366,34.2366 34.7906,42.4826 24.6186,42.4826 C14.4456,42.4826 6.1996,34.2366 6.1996,24.0646 C6.1996,13.8926 14.4456,5.6466 24.6186,5.6466 C34.7906,5.6466 43.0366,13.8926 43.0366,24.0646 Z"/>
  </g>
</svg>
