<svg xmlns="http://www.w3.org/2000/svg" xmlns:xlink="http://www.w3.org/1999/xlink" width="48" height="47"><defs><path id="a" d="M0 49h1074.079V0H0z"/></defs><g fill="none" fill-rule="evenodd" transform="translate(-901 -1)"><mask id="b" fill="#fff"><use xlink:href="#a"/></mask><path stroke="#E76C26" d="M943.394 47.336h-37.029a4.322 4.322 0 0 1-4.321-4.322V5.985a4.322 4.322 0 0 1 4.321-4.32h37.029a4.322 4.322 0 0 1 4.322 4.32v37.03a4.323 4.323 0 0 1-4.322 4.321zm-18.514-24.22v-5.642m-2.894 14.052l-3.989-3.99m9.327 3.99l4.439-3.483" mask="url(#b)"/><path stroke="#E76C26" d="M910.752 24.5c0-7.803 6.325-14.128 14.128-14.128 7.802 0 14.128 6.325 14.128 14.128 0 7.802-6.326 14.128-14.128 14.128-7.803 0-14.128-6.326-14.128-14.128z" mask="url(#b)"/></g></svg>