<svg xmlns="http://www.w3.org/2000/svg" width="54" height="45"><g fill="none" fill-rule="evenodd" stroke="#E76C26" stroke-linecap="round" stroke-linejoin="round"><path d="M53.149 6.524s-5.566 4.574-26.288 4.574C5.668 11.098.706 6.524.706 6.524V1.376h52.443v5.148z"/><path d="M41.665 10.138V29.34H12.19V10.138"/><path d="M24.827 15.57h4.2c.847 0 1.533.687 1.533 1.532v4.2c0 .846-.686 1.534-1.533 1.534h-4.2a1.533 1.533 0 0 1-1.532-1.534v-4.2c0-.845.686-1.532 1.532-1.532zm16.754 27.091s-9.054.964-14.653.964c-5.768 0-14.654-.964-14.654-.964v-9.633H41.58v9.633zm-3.001-13.32v3.687m-23.305 0V29.34"/></g></svg>