<svg xmlns="http://www.w3.org/2000/svg" width="29" height="49" viewBox="0 0 29 49">
  <path fill="none" stroke="#040000" stroke-linecap="round" stroke-linejoin="round" d="M7.5352 38.9713C7.0002 38.9713 6.5342 38.6093 6.4012 38.0923L1.4932 18.9473 1.4172 18.7643C1.3472 18.5963 1.3022 18.4903 1.2642 18.3883.6962 16.8873.4082 15.3053.4082 13.6863.4082 6.3623 6.3662.4043 13.6902.4043 21.0142.4043 26.9722 6.3623 26.9722 13.6863 26.9722 15.4553 26.6172 17.1923 25.9162 18.8493L20.8092 38.1013C20.6742 38.6133 20.2092 38.9713 19.6782 38.9713L7.5352 38.9713zM1.479 18.9476L25.901 18.9476M8.7539 43.1712L18.6259 43.1712M10.3623 47.7247L17.0173 47.7247" transform="translate(1 .315)"/>
</svg>
