<svg xmlns="http://www.w3.org/2000/svg" width="40" height="49"><g fill="none" fill-rule="evenodd" stroke="#E76C26" stroke-linecap="round" stroke-linejoin="round"><path d="M1.136 19.886c0-10.345 8.386-18.73 18.73-18.73 10.344 0 18.73 8.385 18.73 18.73 0 10.344-8.386 18.729-18.73 18.729-10.344 0-18.73-8.385-18.73-18.729z"/><path d="M12.567 19.886a7.3 7.3 0 1 1 14.599 0 7.3 7.3 0 0 1-14.599 0zm19.609 20.67c3.542 3.542 1.899 7.289-3.111 7.288l-18.541-.003c-5.008-.001-6.65-3.747-3.108-7.29"/></g></svg>