<svg xmlns="http://www.w3.org/2000/svg" width="47" height="47"><g fill="none" fill-rule="evenodd" stroke="#E76C26" stroke-linecap="round" stroke-linejoin="round" stroke-width=".75"><path d="M41.395 46l-35.293-.003a4.851 4.851 0 0 1-4.851-4.853l.003-35.292A4.852 4.852 0 0 1 6.106 1l35.293.003a4.852 4.852 0 0 1 4.851 4.853l-.003 35.292A4.852 4.852 0 0 1 41.395 46z"/><path d="M27.404 37.157h-7.31a1.656 1.656 0 0 1-1.656-1.657l.001-7.31c0-.914.741-1.656 1.656-1.656l7.31.001c.915 0 1.656.742 1.655 1.656v7.31c0 .915-.74 1.656-1.656 1.656zm.002-16.692h-7.31a1.657 1.657 0 0 1-1.656-1.656l.001-7.31c0-.915.741-1.656 1.655-1.656h7.311c.914 0 1.655.742 1.655 1.656v7.311c0 .914-.742 1.655-1.656 1.655z"/></g></svg>