<svg xmlns="http://www.w3.org/2000/svg" width="42" height="49" viewBox="0 0 42 49">
  <g fill="none" fill-rule="evenodd" stroke="#211613" stroke-linecap="round" stroke-linejoin="round" transform="translate(0 .315)">
    <path d="M41.1372 39.493C41.1372 40.427 40.3762 41.185 39.4422 41.185L2.3832 41.185C1.4532 41.185.6992 40.427.6992 39.493L.6992 2.436C.6992 1.497 1.4532.743 2.3832.743L39.4422.743C40.3762.743 41.1372 1.497 41.1372 2.436L41.1372 39.493zM20.916 41.1854L20.916 47.3854M.6992 47.3858L41.1372 47.3858"/>
    <path d="M35.1401,20.9642 C35.1401,28.8232 28.7741,35.1862 20.9111,35.1862 C13.0571,35.1862 6.6941,28.8232 6.6941,20.9642 C6.6941,13.1102 13.0571,6.7422 20.9111,6.7422 C28.7741,6.7422 35.1401,13.1102 35.1401,20.9642 Z"/>
    <path d="M30,20.9642 C30,25.9822 25.938,30.0532 20.916,30.0532 C15.896,30.0532 11.832,25.9822 11.832,20.9642 C11.832,15.9512 15.896,11.8802 20.916,11.8802 C25.938,11.8802 30,15.9512 30,20.9642 Z"/>
  </g>
</svg>
