<svg xmlns="http://www.w3.org/2000/svg" width="42" height="49"><g fill="none" fill-rule="evenodd" stroke="#211613" stroke-linecap="round" stroke-linejoin="round"><path d="M41.137 39.808c0 .934-.76 1.692-1.695 1.692H2.383C1.453 41.5.7 40.742.7 39.808V2.751c0-.939.754-1.693 1.684-1.693h37.06c.933 0 1.694.754 1.694 1.693v37.057zM20.916 41.5v6.2m-20.217 0h40.438"/><path d="M35.14 21.28c0 7.858-6.366 14.221-14.229 14.221-7.854 0-14.217-6.363-14.217-14.222 0-7.854 6.363-14.222 14.217-14.222 7.863 0 14.23 6.368 14.23 14.222z"/><path d="M30 21.28c0 5.017-4.062 9.088-9.084 9.088-5.02 0-9.084-4.07-9.084-9.089 0-5.013 4.064-9.084 9.084-9.084A9.083 9.083 0 0 1 30 21.28z"/></g></svg>