<svg xmlns="http://www.w3.org/2000/svg" width="46" height="47"><g fill="none" fill-rule="evenodd" stroke="#E76C26" stroke-linecap="round" stroke-linejoin="round" stroke-width=".75"><path d="M40.675 46H5.38a4.852 4.852 0 0 1-4.852-4.852V5.852A4.852 4.852 0 0 1 5.38 1h35.296a4.852 4.852 0 0 1 4.852 4.852v35.296A4.852 4.852 0 0 1 40.675 46z"/><path d="M26.683 27.293h-7.311a1.655 1.655 0 0 1-1.656-1.656v-7.31c0-.915.74-1.657 1.656-1.657h7.31c.916 0 1.656.742 1.656 1.656v7.311c0 .915-.74 1.656-1.655 1.656z"/></g></svg>