<svg xmlns="http://www.w3.org/2000/svg" width="48" height="47"><g fill="none" fill-rule="evenodd" stroke="#E76C26"><path d="M42.394 46.336H5.365a4.322 4.322 0 0 1-4.321-4.322V4.985A4.322 4.322 0 0 1 5.365.665h37.029a4.322 4.322 0 0 1 4.322 4.32v37.03a4.323 4.323 0 0 1-4.322 4.321zM23.88 22.116v-5.642 5.642zm-2.894 8.41l-3.989-3.99 3.989 3.99zm5.338 0l4.439-3.483-4.439 3.483z"/><path d="M9.752 23.5c0-7.803 6.325-14.128 14.128-14.128 7.802 0 14.128 6.325 14.128 14.128 0 7.802-6.326 14.128-14.128 14.128-7.803 0-14.128-6.326-14.128-14.128z"/></g></svg>