<svg xmlns="http://www.w3.org/2000/svg" width="42" height="49"><g fill="none" fill-rule="evenodd" stroke="#E76C26"><path d="M40.938 39.929c0 .934-.761 1.692-1.695 1.692H2.184c-.93 0-1.684-.758-1.684-1.692V2.872c0-.94.754-1.693 1.684-1.693h37.059c.934 0 1.695.754 1.695 1.693v37.057zM20.717 41.62v6.2M.5 47.82h40.438"/><path d="M34.94 21.4c0 7.859-6.364 14.222-14.228 14.222-7.854 0-14.217-6.363-14.217-14.222 0-7.854 6.363-14.222 14.217-14.222 7.864 0 14.229 6.368 14.229 14.222z"/><path d="M29.8 21.4c0 5.018-4.061 9.088-9.083 9.088-5.02 0-9.084-4.07-9.084-9.088 0-5.013 4.064-9.084 9.084-9.084A9.083 9.083 0 0 1 29.8 21.4z"/></g></svg>