<svg xmlns="http://www.w3.org/2000/svg" width="47" height="47"><g fill="none" fill-rule="evenodd" stroke="#E76C26" stroke-linecap="round" stroke-linejoin="round" stroke-width=".75"><path d="M41.122 46H5.826a4.851 4.851 0 0 1-4.85-4.853V5.852A4.85 4.85 0 0 1 5.825 1h35.296a4.852 4.852 0 0 1 4.852 4.852v35.295A4.852 4.852 0 0 1 41.122 46z"/><path d="M18.883 37.158H11.57a1.655 1.655 0 0 1-1.655-1.656V28.19c0-.914.74-1.656 1.655-1.656h7.312c.914 0 1.655.742 1.655 1.656v7.31c0 .916-.741 1.657-1.655 1.657zm0-16.694H11.57a1.655 1.655 0 0 1-1.655-1.655V11.5c0-.916.74-1.657 1.655-1.657h7.312c.914 0 1.655.741 1.655 1.656v7.311c0 .914-.741 1.655-1.655 1.655zm16.494 16.694h-7.311a1.655 1.655 0 0 1-1.656-1.656V28.19c0-.914.741-1.656 1.656-1.656h7.311c.915 0 1.655.742 1.655 1.656v7.31c0 .916-.74 1.657-1.655 1.657zm0-16.694h-7.311a1.655 1.655 0 0 1-1.656-1.655V11.5c0-.916.741-1.657 1.656-1.657h7.311c.915 0 1.655.741 1.655 1.656v7.311c0 .914-.74 1.655-1.655 1.655z"/></g></svg>