<svg xmlns="http://www.w3.org/2000/svg" width="57" height="49"><path fill="none" stroke="#231815" d="M4.371 46.92H8.93V23.132l.6-.035c1.498-.088 2.944.536 3.946 1.653 2.36 2.63 3.572 5.213 4.572 7.302 1.923 4.017 3.066 8.69 4.355 12.717a4.529 4.529 0 0 0 4.319 3.14s13.912.506 18.512 0c6.97-.766 9.592-2.02 9.592-2.02 1.911-.658 1.952-3.346.063-4.063l-21.63-8.22a8.654 8.654 0 0 1-4.057-3.184s-6.086-11.524-8.776-15.02C14.48 7.673 9.78 2.22 9.78 2.22a2.819 2.819 0 0 0-4.528-.156A19.576 19.576 0 0 0 1.6 19.054l1.185 4.674L4.371 46.92z"/></svg>