<svg xmlns="http://www.w3.org/2000/svg" width="49" height="48"><g fill="none" fill-rule="evenodd" stroke="#040000" stroke-linecap="round" stroke-linejoin="round"><path d="M3 21.59a38.17 38.17 0 0 0 35.83 25c1 0 1.94 0 2.9-.12a5.82 5.82 0 0 0 4.63-5.69v-5.46a5.58 5.58 0 0 0-5.57-5.57H29.88a5.56 5.56 0 0 0-5.42 4.34A29.52 29.52 0 0 1 13 22.64a5.57 5.57 0 0 0 4.58-5.47V6.27A5.56 5.56 0 0 0 12.01.71H6.42a5.78 5.78 0 0 0-4.26 1.88A5.49 5.49 0 0 0 .75 6.27v5.34A38 38 0 0 0 3 21.59z"/><path stroke-width=".953" d="M29.34.67c9.916.615 17.824 8.515 18.45 18.43m-5.86 1.47a13.83 13.83 0 0 0-14.06-14m-1.48 5.88A8.09 8.09 0 0 1 36 22.06"/></g></svg>