<svg xmlns="http://www.w3.org/2000/svg" width="59" height="46"><path fill="none" stroke="#000" stroke-linecap="round" stroke-linejoin="round" d="M28.08 21.446c-1.617 8.231-6.914 14.12-11.834 13.154-4.928-.962-7.615-8.417-6-16.653 1.617-8.23 6.925-14.119 11.836-13.152 4.917.962 7.613 8.406 5.997 16.651zm27.605 4.357c1.478.91 2.55 3.713 2.14 5.762-.4 2.006-1.587 4.464-4.143 4.495M24.642 6.015l31.042 19.787m-37.297 8.799l35.299 1.459m-9.137 1.156v7.722M.837 29.523L5.7 26.726M.5 14.444l5.529.971M6.414.5l2.8 4.85"/></svg>